<?xml version="1.0" encoding="UTF-8"?> <svg xmlns="http://www.w3.org/2000/svg" xmlns:xlink="http://www.w3.org/1999/xlink" width="1024px" height="1024px" viewBox="0 0 1024 1024"> <title>amp</title> <g id="Page-1" stroke="none" stroke-width="1" fill="none" fill-rule="evenodd"> <g id="amp"> <rect id="Rectangle" x="0" y="0" width="1024" height="1024"></rect> <g fill="#0379C4" id="Shape"> <path d="M687.548,465.12 L472.764,822.56 L433.852,822.56 L472.32,589.652 L351.52,589.84 C340.784,589.84 332.1,581.152 332.1,570.42 C332.1,565.812 336.38,558.012 336.38,558.012 L550.46,200.996 L590.06,201.168 L550.62,434.436 L672.272,434.264 C683.008,434.264 691.692,442.952 691.692,453.684 C691.692,458.036 689.984,461.86 687.56,465.1 L687.576,465.116 L687.548,465.12 Z M512,0 C229.224,0 0,229.2 0,512 C0,794.8 229.224,1024 512,1024 C794.776,1024 1024,794.776 1024,512 C1024,229.224 794.8,0 512,0 Z"></path> </g> </g> </g> </svg> 