<?xml version="1.0" encoding="UTF-8"?> <svg xmlns="http://www.w3.org/2000/svg" xmlns:xlink="http://www.w3.org/1999/xlink" width="1024px" height="1024px" viewBox="0 0 1024 1024"> <title>antd</title> <defs> <linearGradient x1="62.110983%" y1="0%" x2="108.238803%" y2="37.8635764%" id="linearGradient-1"> <stop stop-color="#4285EB" offset="0%"></stop> <stop stop-color="#2EC7FF" offset="100%"></stop> </linearGradient> <linearGradient x1="69.6581657%" y1="0%" x2="54.045789%" y2="108.456714%" id="linearGradient-2"> <stop stop-color="#29CDFF" offset="0%"></stop> <stop stop-color="#148EFF" offset="37.8600687%"></stop> <stop stop-color="#0A60FF" offset="100%"></stop> </linearGradient> <linearGradient x1="69.7048996%" y1="-12.9743587%" x2="16.6990979%" y2="117.391248%" id="linearGradient-3"> <stop stop-color="#FA816E" offset="0%"></stop> <stop stop-color="#F74A5C" offset="41.472606%"></stop> <stop stop-color="#F51D2C" offset="100%"></stop> </linearGradient> <linearGradient x1="68.1279872%" y1="-35.6293305%" x2="30.4400914%" y2="114.896264%" id="linearGradient-4"> <stop stop-color="#FA8E7D" offset="0%"></stop> <stop stop-color="#F74A5C" offset="51.2635191%"></stop> <stop stop-color="#F51D2C" offset="100%"></stop> </linearGradient> </defs> <g id="Page-1" stroke="none" stroke-width="1" fill="none" fill-rule="evenodd"> <g id="antd"> <rect id="Rectangle" x="0" y="0" width="1024" height="1024"></rect> <path d="M468.316784,18.2110907 L18.1512367,467.8457 C-6.05041225,492.018805 -6.05041225,531.062453 18.1512367,555.235559 L468.316784,1004.87017 C492.518433,1029.04328 531.608185,1029.04328 555.809833,1004.87017 L744.55782,816.344801 C766.232163,794.696023 766.232163,759.596414 744.55782,737.947636 C722.883476,716.298852 687.74242,716.298852 666.068077,737.947636 L522.979746,880.867207 C516.955993,886.883854 507.813722,886.883854 501.78997,880.867207 L142.300626,521.801853 C136.276874,515.785206 136.276874,506.65372 142.300626,500.637072 L501.78997,141.57172 C507.813722,135.555072 516.955993,135.555072 522.979746,141.57172 L666.068077,284.491292 C687.74242,306.140072 722.883476,306.140072 744.55782,284.491292 C766.232163,262.842512 766.232163,227.742904 744.55782,206.094124 L555.83064,17.5892652 C531.529619,-6.06072398 492.425573,-5.86926355 468.316784,18.2110907 Z" id="Shape" fill="url(#linearGradient-1)" fill-rule="nonzero"></path> <path d="M468.316784,18.2110907 L18.1512367,467.8457 C-6.05041225,492.018805 -6.05041225,531.062453 18.1512367,555.235559 L468.316784,1004.87017 C492.518433,1029.04328 531.608185,1029.04328 555.809833,1004.87017 L744.55782,816.344801 C766.232163,794.696023 766.232163,759.596414 744.55782,737.947636 C722.883476,716.298852 687.74242,716.298852 666.068077,737.947636 L522.979746,880.867207 C516.955993,886.883854 507.813722,886.883854 501.78997,880.867207 L142.300626,521.801853 C136.276874,515.785206 136.276874,506.65372 142.300626,500.637072 L501.78997,141.57172 C516.788917,128.645849 541.26132,102.464809 577.199167,96.3415291 C603.907536,91.790816 633.107041,101.806854 664.797683,126.389645 C643.610498,105.227423 607.288151,68.9606296 555.83064,17.5892652 C531.529619,-6.06072398 492.425573,-5.86926355 468.316784,18.2110907 Z" id="Shape" fill="url(#linearGradient-2)" fill-rule="nonzero"></path> <path d="M788.1289,696.131343 C809.803243,717.780121 844.944294,717.780121 866.618637,696.131343 L1005.84841,557.06578 C1030.05006,532.892675 1030.05006,493.849025 1005.85124,469.678741 L865.407748,329.898332 C843.682093,308.275249 808.529882,308.30643 786.84271,329.968023 C765.168367,351.616803 765.168367,386.716411 786.84271,408.365191 L881.699023,503.109626 C887.722775,509.126274 887.722775,518.257762 881.699023,524.274409 L788.1289,617.734173 C766.454552,639.382951 766.454552,674.48256 788.1289,696.131343 Z" id="Shape" fill="url(#linearGradient-3)" fill-rule="nonzero"></path> <ellipse id="Combined-Shape" fill="url(#linearGradient-4)" fill-rule="nonzero" cx="514.314138" cy="513.788802" rx="121.544698" ry="121.401344"></ellipse> </g> </g> </svg> 