<?xml version="1.0" encoding="UTF-8"?> <svg xmlns="http://www.w3.org/2000/svg" xmlns:xlink="http://www.w3.org/1999/xlink" width="1024px" height="1024px" viewBox="0 0 1024 1024"> <title>aws</title> <g id="Page-1" stroke="none" stroke-width="1" fill="none" fill-rule="evenodd"> <g id="aws"> <rect id="Rectangle" x="0" y="0" width="1024" height="1024"></rect> <g transform="translate(0.000000, 206.000000)"> <path d="M288.573218,222.266963 C288.573218,234.860957 289.935504,245.072303 292.319506,252.560623 C295.044079,260.048943 298.449795,268.21802 303.217798,277.067853 C304.920656,279.790879 305.601799,282.513904 305.601799,284.896552 C305.601799,288.300334 303.55837,291.704116 299.130938,295.107898 L277.674925,309.403782 C274.60978,311.446051 271.544636,312.467186 268.820063,312.467186 C265.414346,312.467186 262.00863,310.765295 258.602914,307.701891 C253.834911,302.596218 249.748051,297.150167 246.342335,291.704116 C242.936618,285.917686 239.530902,279.450501 235.784614,271.621802 C209.220026,302.936596 175.844006,318.593993 135.656553,318.593993 C107.048535,318.593993 84.2302353,310.424917 67.5422251,294.086763 C50.8542149,277.74861 42.339924,255.964405 42.339924,228.734149 C42.339924,199.802002 52.5570731,176.315907 73.331943,158.61624 C94.1068128,140.916574 121.693115,132.066741 156.771994,132.066741 C168.35143,132.066741 180.271437,133.087875 192.872588,134.789766 C205.473738,136.491657 218.41546,139.214683 232.038326,142.278087 L232.038326,117.430478 C232.038326,91.5617353 226.58918,73.5216908 216.031459,62.9699666 C205.133166,52.4182425 186.742298,47.3125695 160.518282,47.3125695 C148.598275,47.3125695 136.337696,48.6740823 123.736545,51.7374861 C111.135395,54.8008899 98.8748157,58.5450501 86.9548084,63.3103448 C81.5056623,65.6929922 77.4188026,67.054505 75.0348011,67.7352614 C72.6507997,68.4160178 70.9479415,68.756396 69.585655,68.756396 C64.817652,68.756396 62.4336506,65.352614 62.4336506,58.2046719 L62.4336506,41.5261402 C62.4336506,36.080089 63.1147939,31.9955506 64.817652,29.6129032 C66.5205102,27.2302558 69.585655,24.8476085 74.3536579,22.4649611 C86.2736652,16.3381535 100.577674,11.2324805 117.265684,7.14794216 C133.953694,2.72302558 151.663419,0.680756396 170.39486,0.680756396 C210.922884,0.680756396 240.552617,9.87096774 259.624628,28.2513904 C278.356068,46.6318131 287.892074,74.5428254 287.892074,111.984427 L287.892074,222.266963 L288.573218,222.266963 Z M150.301133,274.004449 C161.539997,274.004449 173.119433,271.96218 185.380012,267.877642 C197.64059,263.793103 208.538883,256.304783 217.734317,246.093437 C223.183463,239.626251 227.270323,232.478309 229.313753,224.309232 C231.357183,216.140156 232.719469,206.269188 232.719469,194.696329 L232.719469,180.400445 C222.842892,178.017798 212.285171,175.975528 201.386878,174.614016 C190.488586,173.252503 179.930865,172.571746 169.373145,172.571746 C146.554845,172.571746 129.866835,176.996663 118.627971,186.186874 C107.389107,195.377086 101.93996,208.311457 101.93996,225.330367 C101.93996,241.328142 106.02682,253.241379 114.541111,261.410456 C122.71483,269.919911 134.634838,274.004449 150.301133,274.004449 Z M423.780157,310.765295 C417.649868,310.765295 413.563008,309.74416 410.838435,307.361513 C408.113862,305.319244 405.729861,300.553949 403.686431,294.086763 L323.652096,30.974416 C321.608666,24.1668521 320.586951,19.7419355 320.586951,17.3592881 C320.586951,11.9132369 323.311525,8.84983315 328.760671,8.84983315 L362.136691,8.84983315 C368.607552,8.84983315 373.034984,9.87096774 375.418985,12.2536151 C378.143558,14.2958843 380.186988,19.0611791 382.230418,25.5283648 L439.446453,250.858732 L492.575628,25.5283648 C494.278486,18.7208009 496.321916,14.2958843 499.046489,12.2536151 C501.771062,10.2113459 506.539065,8.84983315 512.669355,8.84983315 L539.915086,8.84983315 C546.385947,8.84983315 550.813378,9.87096774 553.537951,12.2536151 C556.262524,14.2958843 558.646526,19.0611791 560.008812,25.5283648 L613.819131,253.581758 L672.738024,25.5283648 C674.781454,18.7208009 677.165455,14.2958843 679.549457,12.2536151 C682.27403,10.2113459 686.701461,8.84983315 692.831751,8.84983315 L724.504913,8.84983315 C729.954059,8.84983315 733.019204,11.5728587 733.019204,17.3592881 C733.019204,19.0611791 732.678632,20.7630701 732.338061,22.8053393 C731.997489,24.8476085 731.316346,27.570634 729.954059,31.3147942 L647.876295,294.427141 C645.832865,301.234705 643.448863,305.659622 640.72429,307.701891 C637.999717,309.74416 633.572286,311.105673 627.782568,311.105673 L598.493407,311.105673 C592.022546,311.105673 587.595115,310.084538 584.870542,307.701891 C582.145969,305.319244 579.761967,300.894327 578.399681,294.086763 L525.611077,74.5428254 L473.163045,293.746385 C471.460187,300.553949 469.416757,304.978865 466.692184,307.361513 C463.967611,309.74416 459.199608,310.765295 453.069318,310.765295 L423.780157,310.765295 Z M861.414711,319.955506 C843.704986,319.955506 825.995261,317.913237 808.966679,313.828699 C791.938097,309.74416 778.655803,305.319244 769.800941,300.213571 C764.351794,297.150167 760.605506,293.746385 759.24322,290.682981 C757.880933,287.619577 757.19979,284.215795 757.19979,281.152392 L757.19979,263.793103 C757.19979,256.645161 759.924363,253.241379 765.032938,253.241379 C767.076368,253.241379 769.119797,253.581758 771.163227,254.262514 C773.206657,254.94327 776.271802,256.304783 779.677518,257.666296 C791.256954,262.771969 803.858104,266.856507 817.140398,269.579533 C830.763264,272.302558 844.045558,273.664071 857.668423,273.664071 C879.124436,273.664071 895.812446,269.919911 907.391882,262.431591 C918.971318,254.94327 925.101607,244.051168 925.101607,230.095662 C925.101607,220.565072 922.036462,212.736374 915.906173,206.269188 C909.775884,199.802002 898.196448,194.015573 881.508438,188.569522 L832.12555,173.252503 C807.263821,165.423804 788.872952,153.850945 777.634088,138.533927 C766.395224,123.557286 760.605506,106.878754 760.605506,89.1790879 C760.605506,74.8832036 763.670651,62.2892102 769.800941,51.3971079 C775.93123,40.5050056 784.104949,30.974416 794.322099,23.4860957 C804.539248,15.6573971 816.118683,9.87096774 829.741549,5.78642937 C843.364414,1.70189099 857.668423,0 872.653575,0 C880.146151,0 887.979299,0.340378198 895.471875,1.36151279 C903.305022,2.38264739 910.457027,3.74416018 917.609031,5.10567297 C924.420464,6.80756396 930.891325,8.50945495 937.021614,10.5517241 C943.151904,12.5939933 947.919907,14.6362625 951.325623,16.6785317 C956.093626,19.4015573 959.499343,22.1245829 961.542772,25.1879867 C963.586202,27.9110122 964.607917,31.6551724 964.607917,36.4204672 L964.607917,52.4182425 C964.607917,59.5661846 961.883344,63.3103448 956.774769,63.3103448 C954.050196,63.3103448 949.622765,61.948832 943.833047,59.2258065 C924.420464,50.3759733 902.623879,45.9510567 878.443293,45.9510567 C859.03071,45.9510567 843.704986,49.0144605 833.147265,55.4816463 C822.589544,61.948832 817.140398,71.8197998 817.140398,85.7753059 C817.140398,95.3058954 820.546115,103.474972 827.357547,109.942158 C834.16898,116.409344 846.770131,122.876529 864.820427,128.662959 L913.1816,143.979978 C937.702758,151.808676 955.412483,162.700779 965.970204,176.656285 C976.527924,190.611791 981.636499,206.609566 981.636499,224.309232 C981.636499,238.945495 978.571354,252.220245 972.781636,263.793103 C966.651347,275.365962 958.477628,285.577308 947.919907,293.746385 C937.362186,302.25584 924.761036,308.382647 910.116455,312.807564 C894.790731,317.572859 878.783865,319.955506 861.414711,319.955506 Z" id="Shape" fill="#252F3E" fill-rule="nonzero"></path> <g id="Group" transform="translate(0.000000, 381.537568)" fill="#FF9900"> <path d="M925.78275,103.841742 C813.734682,186.553644 650.941439,230.462432 510.966497,230.462432 C314.797234,230.462432 138.040554,157.961876 4.53647228,37.4679936 C-6.02124847,27.9374041 3.51475737,15.0030325 16.1159079,22.4913529 C160.518282,106.22439 338.637248,156.940741 522.886504,156.940741 C647.195151,156.940741 783.764378,131.071998 909.435312,77.9729992 C928.166752,69.4635442 944.173619,90.2266143 925.78275,103.841742 Z" id="Path"></path> <path d="M972.441065,50.7427433 C958.137056,32.3623206 877.76215,41.8929102 841.320984,46.3178267 C830.422692,47.6793395 828.719834,38.14875 838.596411,31.0008078 C902.623879,-13.9291143 1007.86051,-0.994742776 1020.12109,13.9818979 C1032.38167,29.2989168 1016.71538,134.47578 956.774769,184.851753 C947.579335,192.680452 938.724473,188.595914 942.811332,178.384568 C956.434198,144.687126 986.745073,68.7827878 972.441065,50.7427433 Z" id="Path"></path> </g> </g> </g> </g> </svg> 