<?xml version="1.0" encoding="UTF-8"?> <svg xmlns="http://www.w3.org/2000/svg" xmlns:xlink="http://www.w3.org/1999/xlink" width="1024px" height="1024px" viewBox="0 0 1024 1024"> <title>express</title> <g id="Page-1" stroke="none" stroke-width="1" fill="none" fill-rule="evenodd"> <g id="express"> <rect id="Rectangle" x="0" y="0" width="1024" height="1024"></rect> <g id="expressjs" transform="translate(0.000000, 215.000000)" fill="#000000"> <path d="M1024,578.596196 C986.751907,588.064219 963.711849,579.010854 943.044918,547.980619 L796.03399,344.621619 L774.783377,316.463274 L603.104228,548.656358 C583.489459,576.592016 562.914687,588.739958 526.304036,578.857277 L746.144585,283.797443 L541.472074,17.2722183 C576.669602,10.4303624 600.992222,13.9088817 622.588436,45.4305634 L775.067538,251.323584 L928.667922,46.5516756 C948.344131,18.6160171 969.502584,8.0038456 1004.83067,18.2935054 L925.473034,123.493758 L817.952765,263.471526 C805.150173,279.466572 806.908897,290.416613 818.690047,305.858781 L1024,578.596196 Z M0.261120653,278.867621 L18.2400456,190.430299 C67.200168,15.4139364 267.84067,-57.3124575 406.211576,50.8287953 C487.074498,114.432715 507.173108,204.405807 503.171818,305.190721 L47.3626784,305.190721 C40.5197813,486.603566 171.110828,596.088618 337.598284,540.232659 C395.99715,520.620874 430.395956,474.893319 447.614559,417.693561 C456.354421,389.028412 470.808217,384.543963 497.757404,392.737297 C484.00249,464.281148 452.959852,524.045642 387.357128,561.449323 C289.344723,617.435822 149.430134,599.329093 75.8401896,521.5193 C31.99496,476.367658 13.8854747,419.1679 5.7600144,357.990498 C4.47745119,347.877451 1.9200048,338.248173 0,328.557463 C0.168960422,312.001862 0.261120653,295.453938 0.261120653,278.898337 L0.261120653,278.867621 Z M48.1921205,266.712001 L460.09459,266.712001 C457.406584,135.534196 375.714219,42.3590231 264.0621,41.5681015 C141.504354,40.6082452 53.4990137,131.56423 48.1844405,266.712001 L48.1921205,266.712001 Z" id="Shape"></path> </g> </g> </g> </svg> 