<?xml version="1.0" encoding="UTF-8"?> <svg xmlns="http://www.w3.org/2000/svg" xmlns:xlink="http://www.w3.org/1999/xlink" width="1024px" height="1024px" viewBox="0 0 1024 1024"> <title>graphql</title> <g id="Page-1" stroke="none" stroke-width="1" fill="none" fill-rule="evenodd"> <g id="graphql"> <rect id="Rectangle" x="0" y="0" width="1024" height="1024"></rect> <g id="graph" transform="translate(56.000000, 0.000000)" fill="#E535AB" fill-rule="nonzero"> <polygon id="Rectangle" transform="translate(273.453768, 406.933050) rotate(-149.999272) translate(-273.453768, -406.933050) " points="251.687096 -11.7994943 295.081201 -11.7922781 295.220439 825.665594 251.826334 825.658378"></polygon> <rect id="Rectangle" x="36.7517387" y="700.796731" width="837.235132" height="43.4075587"></rect> <polygon id="Rectangle" transform="translate(273.553358, 827.326889) rotate(-149.999272) translate(-273.553358, -827.326889) " points="31.7452473 805.585459 515.354252 805.665881 515.361468 849.068318 31.7524635 848.987897"></polygon> <polygon id="Rectangle" transform="translate(637.342609, 196.926235) rotate(-149.999272) translate(-637.342609, -196.926235) " points="395.534498 175.184805 879.143503 175.265227 879.150719 218.667664 395.541714 218.587243"></polygon> <polygon id="Rectangle" transform="translate(273.669415, 196.760972) rotate(-120.000728) translate(-273.669415, -196.760972) " points="251.927986 -45.047138 295.330423 -45.0399218 295.410845 438.569083 252.008407 438.561867"></polygon> <polygon id="Rectangle" transform="translate(637.640333, 406.940895) rotate(-120.000728) translate(-637.640333, -406.940895) " points="218.907789 385.174223 1056.36566 385.313461 1056.37288 428.707566 218.915005 428.568328"></polygon> <rect id="Rectangle" x="69.9483862" y="270.120531" width="43.3908935" height="483.758938"></rect> <rect id="Rectangle" x="797.66072" y="270.120531" width="43.3908935" height="483.758938"></rect> <polygon id="Rectangle" transform="translate(637.340779, 827.085532) rotate(-120.000728) translate(-637.340779, -827.085532) " points="618.349923 616.777816 656.26169 616.784119 656.331635 1037.39325 618.419868 1037.38694"></polygon> <path d="M898.557617,768 C873.464088,811.66905 817.526431,826.574055 773.874146,801.470889 C730.221862,776.367722 715.322579,720.40858 740.416108,676.73953 C765.509637,633.07048 821.447294,618.165475 865.099579,643.268641 C909.013254,668.633299 923.912537,724.33095 898.557617,768" id="Path"></path> <path d="M170.322501,347.26047 C145.228972,390.92952 89.2913146,405.834525 45.6390302,380.731359 C1.98674577,355.628192 -12.9125369,299.66905 12.1809918,256 C37.2745206,212.33095 93.2121785,197.425945 136.864463,222.529111 C180.516747,247.893769 195.41603,303.59142 170.322501,347.26047" id="Path"></path> <path d="M12.4423828,768 C-12.651146,724.33095 2.24813669,668.633299 45.9004211,643.268641 C89.5527055,618.165475 145.228972,633.07048 170.583892,676.73953 C195.677421,720.40858 180.778138,776.106231 137.125854,801.470889 C93.2121785,826.574055 37.5359115,811.66905 12.4423828,768" id="Path"></path> <path d="M740.677499,347.26047 C715.58397,303.59142 730.483253,247.893769 774.135537,222.529111 C817.787822,197.425945 873.464088,212.33095 898.819008,256 C923.912537,299.66905 909.013254,355.366701 865.36097,380.731359 C821.708685,405.834525 765.771028,390.92952 740.677499,347.26047" id="Path"></path> <path d="M455.5,1024 C405.051552,1024 364.274567,983.207354 364.274567,932.73953 C364.274567,882.271706 405.051552,841.47906 455.5,841.47906 C505.948448,841.47906 546.725433,882.271706 546.725433,932.73953 C546.725433,982.945863 505.948448,1024 455.5,1024" id="Path"></path> <path d="M455.5,182.52094 C405.051552,182.52094 364.274567,141.728294 364.274567,91.2604699 C364.274567,40.7926456 405.051552,0 455.5,0 C505.948448,0 546.725433,40.7926456 546.725433,91.2604699 C546.725433,141.728294 505.948448,182.52094 455.5,182.52094" id="Path"></path> </g> </g> </g> </svg> 