<?xml version="1.0" encoding="UTF-8"?> <svg xmlns="http://www.w3.org/2000/svg" xmlns:xlink="http://www.w3.org/1999/xlink" width="1024px" height="1024px" viewBox="0 0 1024 1024"> <title>gulp</title> <g id="Page-1" stroke="none" stroke-width="1" fill="none" fill-rule="evenodd"> <g id="gulp"> <rect id="Rectangle" x="0" y="0" width="1024" height="1024"></rect> <path d="M509.361834,808.034163 C449.328742,808.034163 402.940985,799.021966 380.634014,793.650792 C365.379747,789.977877 353.130592,786.177392 343.825383,782.273259 L373.57599,833.069521 L385.213485,991.783588 C385.213485,1009.57676 441.773412,1024 511.542534,1024 C581.311656,1024 637.871584,1009.57676 637.871584,991.783588 L647.086373,831.342028 L675.236027,782.124428 C665.890927,786.081716 653.532737,789.932696 638.086994,793.650792 C615.780023,799.021966 569.392266,808.034163 509.361834,808.034163 Z M676.201386,291.572279 C632.140596,297.722153 573.663248,301.110697 511.542534,301.110697 C449.421821,301.110697 390.944473,297.722153 346.883683,291.572279 C325.058061,288.526576 307.790636,284.933391 295.560097,280.899031 C292.642745,279.934293 287.698937,278.289188 282.941286,275.668714 L310.239935,526.747836 C311.508464,522.423789 312.920601,518.105057 314.486982,513.802271 C317.691548,504.984084 321.398739,496.362566 325.605896,487.940374 C329.815712,479.52084 334.397842,471.561085 339.352288,464.063766 C344.304074,456.569105 349.577646,449.667107 355.165026,443.360429 C360.755066,437.056409 366.488713,431.634739 372.376605,427.090104 C378.261837,422.550785 384.202916,419.000122 390.199843,416.443433 C396.199429,413.886744 402.140509,412.605741 408.025741,412.605741 C414.804528,412.605741 421.362586,414.458145 427.697256,418.162953 C434.029266,421.865103 439.94907,427.863489 445.464647,436.152797 C446.730517,438.005201 447.533653,439.878866 447.866077,441.773793 C448.20382,443.671378 448.368702,445.457339 448.368702,447.131679 C448.368702,451.099597 447.419299,454.233003 445.520494,456.523924 C443.621689,458.817503 441.366525,459.962964 438.760322,459.962964 C436.372189,459.962964 434.156916,458.70588 432.109185,456.194372 C430.058795,453.680205 427.769059,450.08702 425.23466,445.412159 C422.849186,441.178473 420.224367,438.116824 417.357544,436.219239 C414.488061,434.324313 411.379233,433.37552 408.025741,433.37552 C402.810675,433.37552 397.24191,435.536215 391.319447,439.857605 C385.394324,444.176337 379.527707,449.887694 373.719597,456.986361 C367.906169,464.087685 362.337404,472.198928 357.010644,481.328063 C351.683884,490.454541 346.968783,499.801606 342.870662,509.369258 C338.77254,518.942226 335.517446,528.379652 333.094741,537.681537 C330.672036,546.983421 329.462013,555.339171 329.462013,562.746129 C329.462013,565.217772 329.632214,567.755858 329.964638,570.352413 C330.30238,572.95694 330.932656,575.314303 331.866102,577.432475 C332.79423,579.550647 334.062759,581.288771 335.663712,582.652161 C337.267325,584.023525 339.29644,584.703891 341.753718,584.703891 C344.511506,584.703891 347.63895,583.779018 351.144027,581.926614 C354.643786,580.079526 358.276514,577.650405 362.036893,574.655199 C365.799931,571.654676 369.581585,568.260817 373.381855,564.465649 C377.184784,560.675795 380.721774,556.840761 383.998143,552.957889 C387.274513,549.080332 390.181227,545.351605 392.712968,541.782339 C395.247367,538.210415 397.146172,535.100928 398.414702,532.453878 L408.807602,501.36698 C410.073472,498.018302 411.730272,495.637019 413.780663,494.225791 C415.828394,492.814562 417.934631,492.107619 420.096716,492.107619 C421.136538,492.107619 422.179019,492.285683 423.22416,492.636497 C424.269301,492.989969 425.197428,493.542766 426.01918,494.289575 C426.838272,495.041699 427.489823,496.009095 427.973832,497.202394 C428.457842,498.390377 428.699846,499.780344 428.699846,501.36698 C428.699846,505.600666 428.327531,509.565927 427.582902,513.273392 C426.838272,516.980858 425.88887,520.592646 424.732035,524.122047 C423.577859,527.646132 422.290714,531.196795 420.875918,534.768718 C419.461122,538.340642 418.080898,542.066711 416.743224,545.949583 C416.445373,546.390758 415.905516,547.77541 415.120996,550.111512 C414.339135,552.452929 413.392392,555.387009 412.272788,558.911095 C411.155844,562.440495 409.943162,566.384494 408.64006,570.751065 C407.334299,575.117635 405.996625,579.569251 404.619061,584.111228 C403.238837,588.653206 401.91712,593.10748 400.65125,597.47405 C399.38272,601.837962 398.244501,605.784619 397.24191,609.31402 C396.236661,612.838105 395.398952,615.790789 394.726126,618.174729 C394.05596,620.556012 393.646414,621.964583 393.497488,622.411073 C393.125173,623.816986 392.52681,625.385018 391.710377,627.101881 C390.891285,628.8214 389.923266,630.455874 388.803663,631.997329 C387.686719,633.538785 386.45808,634.822445 385.115088,635.832363 C383.774754,636.84494 382.39719,637.355215 380.979735,637.355215 C378.59692,637.355215 376.862997,636.560568 375.785944,634.97659 C374.703572,633.387297 374.166375,630.477136 374.166375,626.246107 L374.166375,624.393703 C374.166375,623.774464 374.200947,623.110043 374.27541,622.411073 C374.347213,620.997187 374.908345,618.350136 375.953486,614.467264 C376.995967,610.589707 378.243221,606.204533 379.697908,601.309084 C381.149936,596.413635 382.716317,591.342779 384.391733,586.093859 C386.06449,580.847596 387.575024,576.154131 388.918017,572.008148 C384.963502,576.419899 380.684542,580.805073 376.06518,585.171643 C371.443159,589.535556 366.712102,593.460951 361.87201,596.942514 C357.0266,600.426734 352.146618,603.270453 347.232063,605.476328 C342.314849,607.679546 337.583793,608.785141 333.038894,608.785141 C327.823828,608.785141 323.334776,607.637023 319.569078,605.343444 C318.890934,604.926188 318.25002,604.461094 317.611767,603.998657 L332.802208,763.161873 C336.756722,773.067051 411.203713,797.403438 509.361834,797.403438 C607.565164,797.403438 682.041408,773.043132 685.926778,763.145927 L707.747081,573.913705 C705.941355,575.569441 704.183497,577.187969 702.502762,578.756001 C696.242556,584.573665 690.336049,589.578079 684.7859,593.766584 C679.23841,597.95509 673.815912,601.200119 668.526383,603.488383 C663.234195,605.784619 657.572352,606.93008 651.538194,606.93008 C645.87635,606.93008 641.496333,605.694258 638.406121,603.225272 C635.315909,600.758944 633.768143,597.365085 633.768143,593.041038 L633.768143,592.049722 C633.768143,591.741431 633.805375,591.364041 633.882497,590.922866 C634.17769,588.28113 635.337184,585.23277 637.347684,581.796388 C639.358183,578.354691 641.778229,574.785425 644.607821,571.083275 C647.440072,567.378467 650.455822,563.628479 653.660388,559.835968 C656.864954,556.046114 659.827515,552.452929 662.548072,549.053755 C665.26597,545.665211 667.518474,542.555724 669.305585,539.730609 C671.098014,536.908152 671.99157,534.61723 671.99157,532.85253 C671.99157,531.794773 671.616596,530.957603 670.874626,530.335706 C670.127337,529.724439 668.896039,529.410833 667.18605,529.410833 C664.204873,529.410833 661.130617,530.184218 657.968601,531.725673 C654.798607,533.267128 651.665845,535.345435 648.575632,537.944647 C645.48542,540.546517 642.467011,543.525778 639.523065,546.874456 C636.584438,550.225792 633.82665,553.710013 631.255019,557.321801 C628.683388,560.941563 626.340464,564.579929 624.215611,568.239556 C622.090758,571.899183 620.285031,575.271781 618.793113,578.354691 C618.346335,579.327402 617.7134,580.696108 616.891648,582.455493 C616.072556,584.220193 615.179,586.208139 614.210982,588.411357 C613.240304,590.617232 612.216439,592.88955 611.136726,595.220336 C610.057013,597.561753 609.070379,599.767629 608.176824,601.837962 C607.283269,603.910954 606.482792,605.758042 605.778053,607.392516 C605.065337,609.021675 604.562712,610.148532 604.26486,610.767772 C603.892545,611.559761 603.278226,613.056035 602.421902,615.261911 C601.565578,617.467786 600.576285,620.048394 599.462,623.001078 C598.345056,625.953762 597.169605,629.063249 595.938307,632.32954 C594.714987,635.587857 593.555492,638.67874 592.47578,641.588901 C591.393408,644.496404 590.444005,647.055751 589.627572,649.261627 C588.80848,651.462187 588.28192,652.963777 588.058531,653.758424 C587.316561,656.052003 586.438962,658.207382 585.436372,660.243166 C584.428463,662.268319 583.276946,664.054281 581.971185,665.601051 C580.668084,667.142506 579.178825,668.375671 577.500749,669.300544 C575.822673,670.230732 573.942484,670.690511 571.860181,670.690511 C569.174196,670.690511 566.961583,670.047352 565.206385,668.771665 C563.459165,667.49332 562.581566,665.042938 562.581566,661.431149 C562.581566,659.666449 562.804955,657.859226 563.251732,656.00948 C563.69851,654.157076 564.259641,652.323276 564.929808,650.51871 C565.599975,648.706172 566.291416,646.946787 566.998814,645.227267 C567.703553,643.505089 568.357763,641.854669 568.950807,640.265376 C572.977125,631.447189 577.075247,622.607742 581.245172,613.741717 C585.415097,604.881008 589.420139,596.108002 593.2603,587.420042 C594.058117,585.607503 594.792109,583.832172 595.571311,582.030264 C595.337284,582.258825 595.108577,582.498016 594.879869,582.721261 C590.034459,587.39878 585.212983,591.518186 580.407463,595.09011 C575.599285,598.662033 570.830997,601.505752 566.105259,603.623924 C561.371543,605.736781 556.770797,606.797196 552.297701,606.797196 C549.24472,606.797196 546.694364,606.313498 544.646633,605.343444 C542.596243,604.370733 540.960717,603.047207 539.729419,601.375526 C538.498121,599.701187 537.620522,597.715899 537.099282,595.42232 C536.923762,594.638304 536.814727,593.819738 536.700373,593.00383 C535.391953,594.021722 534.072895,595.013037 532.743199,595.953856 C528.123837,599.212173 523.578938,601.837962 519.108502,603.820593 C514.640725,605.805881 510.614407,606.797196 507.042845,606.797196 C503.463305,606.797196 500.55925,605.606555 498.320042,603.225272 C496.086154,600.846647 494.971869,596.788368 494.971869,591.058407 C494.971869,586.99747 495.567573,582.280086 496.75632,576.903597 C494.820284,580.342636 492.400238,583.826857 489.496183,587.350942 C486.586809,590.880343 483.273208,594.098795 479.550061,597.011613 C475.818935,599.919117 471.64901,602.279138 467.032308,604.086361 C462.410286,605.893584 457.381378,606.797196 451.945583,606.797196 C449.485646,606.797196 447.121447,606.488905 444.847668,605.872323 C442.573889,605.253083 440.582005,604.195326 438.869357,602.696394 C437.15405,601.200119 435.779145,599.190912 434.734004,596.679403 C433.691523,594.167894 433.170282,591.010569 433.170282,587.220716 C433.170282,587.133012 433.319208,585.788225 433.61706,583.183698 C433.914912,580.581828 434.864314,576.481026 436.467927,570.881291 C438.068881,565.284214 440.547433,558.028745 443.895606,549.120197 C447.251758,540.214307 451.982814,529.410833 458.091435,516.715089 C459.655157,513.361096 461.463543,510.958552 463.508615,509.5048 C465.561664,508.048391 467.774278,507.320186 470.157092,507.320186 C471.202233,507.320186 472.281945,507.476989 473.39889,507.782623 C474.521153,508.093571 475.560974,508.577269 476.531652,509.239032 C477.497011,509.900795 478.281531,510.740622 478.879894,511.753198 C479.470279,512.765775 479.77345,513.932497 479.77345,515.256022 C479.77345,516.138373 479.659096,516.980858 479.435707,517.767531 C479.060733,519.274436 478.260256,521.23049 477.036936,523.654295 C475.805638,526.083416 474.369567,528.860693 472.728723,531.991441 C471.093198,535.12219 469.359275,538.494787 467.534932,542.114549 C465.707931,545.726338 464.013899,549.473669 462.450177,553.356541 C460.886455,557.239413 459.543463,561.183412 458.426518,565.196511 C457.309574,569.20961 456.67398,573.113743 456.527713,576.903597 C456.527713,578.490233 456.897369,579.943984 457.644657,581.26751 C458.389287,582.591035 459.620585,583.25014 461.333233,583.25014 C466.173324,583.25014 470.792686,581.660846 475.191319,578.490233 C479.584633,575.314303 483.642864,571.367647 487.37133,566.650263 C491.097136,561.932878 494.466585,556.859365 497.484994,551.435037 C500.503402,546.01071 503.016527,541.054134 505.027026,536.55468 C506.444482,533.559473 507.691736,530.335706 508.771449,526.899324 C509.851162,523.457627 511.026612,520.287013 512.292483,517.374194 C513.561012,514.461376 515.01038,512.03757 516.651224,510.097463 C518.28675,508.160013 520.3398,507.187302 522.794417,507.187302 C525.480402,507.187302 527.599937,508.202536 529.168978,510.230347 C530.7327,512.260816 531.511901,514.684621 531.511901,517.504421 C531.511901,519.091056 531.011936,521.278328 530.004026,524.055605 C528.996117,526.832882 527.730247,530.008811 526.203757,533.580735 C524.674607,537.152658 523.017806,540.966431 521.233355,545.019395 C519.446244,549.080332 517.784125,553.199738 516.262953,557.390901 C514.728485,561.579407 513.467933,565.680209 512.460024,569.693308 C511.452115,573.703749 510.952149,577.432475 510.952149,580.868857 C510.952149,584.044786 512.590334,585.63408 515.866704,585.63408 C518.177715,585.63408 521.044538,584.839433 524.472493,583.25014 C527.900448,581.660846 531.495945,579.436367 535.256324,576.568729 C536.195089,575.853813 537.141832,575.107004 538.080597,574.322988 C539.131056,569.993626 540.362354,565.991158 541.795766,562.352792 C544.401969,555.469398 547.048063,548.639157 549.731389,541.848781 C552.412055,535.058405 554.869332,528.839431 557.108539,523.194516 L590.967905,437.872317 C592.308238,434.433278 594.116624,432.006815 596.385084,430.595586 C598.661523,429.187015 600.951259,428.480072 603.262269,428.480072 C605.567961,428.480072 607.67154,429.229538 609.573004,430.72847 C611.474469,432.23006 612.426531,434.653865 612.426531,438.005201 C612.426531,439.591837 612.107404,441.268834 611.474469,443.030876 C610.841534,444.795577 610.041057,446.690504 609.070379,448.718314 C607.211465,452.866955 604.993533,457.935153 602.421902,463.930882 C599.850271,469.929268 597.092482,476.456534 594.151196,483.51002 C591.20725,490.566163 588.188841,497.906679 585.098629,505.534224 C582.008417,513.164427 578.990008,520.592646 576.046062,527.824197 C573.107435,535.058405 570.346987,541.909908 567.775356,548.39465 C565.206385,554.876735 562.993771,560.500388 561.126879,565.260295 C560.307787,567.288106 559.50731,569.650785 558.728108,572.340358 C557.943588,575.027274 557.555317,577.432475 557.555317,579.550647 C557.555317,580.868857 557.778706,581.926614 558.225483,582.721261 C558.672261,583.515908 559.528585,583.91456 560.794455,583.91456 C562.358177,583.91456 564.312829,583.36442 566.661072,582.258825 C569.006654,581.158545 571.538395,579.699478 574.258952,577.892254 C576.982168,576.087689 579.81176,574.014697 582.750387,571.675938 C585.696992,569.339836 588.619663,566.916031 591.523718,564.401864 C594.433091,561.88504 597.206836,559.373531 599.850271,556.859365 C602.493705,554.347856 604.863223,552.033016 606.950845,549.914844 C607.440173,549.407227 608.025239,549.04844 608.668811,548.780014 C609.926703,545.02471 611.07556,541.346479 612.088788,537.747979 C612.684492,536.158685 613.506243,533.912945 614.548725,531.000126 C615.588547,528.087307 616.782613,525.222327 618.122946,522.39987 C619.463279,519.58007 620.976473,517.129688 622.64657,515.059354 C624.324646,512.98902 626.133032,511.949867 628.069068,511.949867 C631.050246,511.949867 633.212331,512.635549 634.552664,513.998939 C635.892997,515.370303 636.563163,517.374194 636.563163,520.021245 C636.563163,520.550123 636.4887,521.387293 636.339774,522.532754 C636.188189,523.680872 636.007351,524.895432 635.783962,526.173777 C635.560573,527.449464 635.315909,528.664024 635.055289,529.812143 C634.792009,530.957603 634.552664,531.794773 634.329275,532.323651 C637.081744,529.323129 640.062922,526.349184 643.267488,523.3965 C646.472054,520.441159 649.785655,517.767531 653.21361,515.391564 C656.644224,513.007624 660.143983,511.072832 663.723523,509.565927 C667.295085,508.07231 670.874626,507.320186 674.448847,507.320186 C676.906124,507.320186 679.347445,507.673658 681.767491,508.380601 C684.187537,509.084886 686.352281,510.121382 688.248427,511.48743 C690.149891,512.858794 691.697657,514.575656 692.886405,516.648647 C694.077812,518.718981 694.673515,521.121525 694.673515,523.856279 C694.673515,527.476041 693.764004,531.332336 691.937002,535.433138 C690.11266,539.533941 687.822924,543.656004 685.065136,547.796672 C682.307347,551.945312 679.32617,555.977015 676.126923,559.90241 C672.922357,563.827805 669.925223,567.397071 667.130203,570.615523 C664.335183,573.83929 661.986941,576.568729 660.085476,578.817127 C658.19199,581.070841 657.197378,582.591035 657.125574,583.385681 C657.125574,584.443439 657.463317,585.30187 658.133483,585.96629 C658.80365,586.625395 659.920594,586.957605 661.484316,586.957605 C662.750186,586.957605 664.617079,586.250662 667.071696,584.839433 C669.528974,583.428204 672.978204,580.983138 677.408749,577.498917 C681.839294,574.014697 687.469225,569.339836 694.285244,563.474333 C698.960454,559.455919 704.43348,554.66412 710.600608,549.213216 L740.157079,275.660741 C735.396769,278.28653 730.444983,279.934293 727.524972,280.899031 C715.297092,284.933391 698.029667,288.526576 676.201386,291.572279 Z M511.367014,226.669045 C383.587262,226.669045 280,240.947121 280,258.56122 C280,276.175319 383.587262,290.453395 511.367014,290.453395 C639.146767,290.453395 742.734029,276.175319 742.734029,258.56122 C742.734029,240.947121 639.146767,226.669045 511.367014,226.669045 Z M603.748938,267.881708 C603.748938,272.014403 591.438617,275.365739 576.250835,275.365739 C561.065713,275.365739 548.755392,272.014403 548.755392,267.881708 C548.755392,263.746356 561.065713,260.39502 576.250835,260.39502 C591.438617,260.39502 603.748938,263.746356 603.748938,267.881708 Z" id="Cup" fill="#DA4648" fill-rule="nonzero"></path> <path d="M554.323505,264.572878 C554.187169,264.790104 554.116724,265.011915 554.116724,265.237315 C554.116724,267.9136 564.028274,270.079611 576.250835,270.079611 C588.476056,270.079611 598.384946,267.9136 598.384946,265.237315 L627.295186,148.092041 L742.268758,26.7828148 C742.306298,26.7458042 742.342609,26.707503 742.377671,26.6678994 C744.811013,23.9171993 739.872524,15.4046462 731.678941,8.1039958 C723.485357,0.80334538 714.637563,-1.66829819 711.887753,1.11163641 C711.867199,1.13242698 711.847152,1.15351126 711.827606,1.17488687 L589.15686,130.173954 L554.323505,264.572878 Z" id="Straw" fill="#DA4648" fill-rule="nonzero"></path> </g> </g> </svg> 