<?xml version="1.0" encoding="UTF-8"?> <svg xmlns="http://www.w3.org/2000/svg" xmlns:xlink="http://www.w3.org/1999/xlink" width="1024px" height="1024px" viewBox="0 0 1024 1024"> <title>java</title> <g id="Page-1" stroke="none" stroke-width="1" fill="none" fill-rule="evenodd"> <g id="java"> <rect id="Rectangle" x="0" y="0" width="1024" height="1024"></rect> <g transform="translate(236.000000, 0.000000)"> <path d="M182.166636,543.175013 C182.166636,543.175013 155.320028,558.788544 201.294358,564.057276 C256.999709,570.412072 285.465044,569.496919 346.833607,557.90602 C346.833607,557.90602 363.00066,568.011544 385.539993,576.76376 C247.923332,635.676913 74.0851312,573.350194 182.166636,543.175013 L182.166636,543.175013 Z" id="Path" fill="#0074BD"></path> <path d="M165.341829,466.283536 C165.341829,466.283536 135.226668,488.562612 181.235207,493.313948 C240.745577,499.452774 287.72442,499.956186 369.0635,484.314687 C369.0635,484.314687 380.287295,495.706707 397.962672,501.932543 C231.602336,550.555277 46.3102044,505.75785 165.341829,466.283536 L165.341829,466.283536 Z" id="Path" fill="#0074BD"></path> <path d="M307.097828,335.833094 C341.024228,374.85527 298.201828,409.941823 298.201828,409.941823 C298.201828,409.941823 384.296015,365.5406 344.765493,309.912053 C307.831775,258.059094 279.515718,232.301195 432.812726,143.469228 C432.812726,143.469228 192.174442,203.507288 307.097828,335.833094 L307.097828,335.833094 Z" id="Path" fill="#EA2D2E"></path> <path d="M489.104302,600.057428 C489.104302,600.057428 508.978411,616.42763 467.214947,629.087503 C387.800924,653.122304 136.621478,660.372054 66.856062,630.049268 C41.794563,619.142014 88.813835,604.024125 103.607848,600.83119 C119.033179,597.496864 127.840546,598.10593 127.840546,598.10593 C99.9489963,578.480643 -52.4352429,636.649554 50.4464325,653.332059 C331.008647,698.772734 561.869261,632.864644 489.104302,600.057428 L489.104302,600.057428 Z" id="Path" fill="#0074BD"></path> <path d="M195.086906,386.604651 C195.086906,386.604651 67.3381036,416.932098 149.849633,427.954329 C184.699687,432.613994 254.130784,431.541914 318.851868,426.116254 C371.730279,421.681881 424.79684,412.197853 424.79684,412.197853 C424.79684,412.197853 406.165154,420.184076 392.675764,429.382215 C262.922601,463.482143 12.3107208,447.601369 84.4692406,412.738554 C145.466165,383.253234 195.086906,386.604651 195.086906,386.604651 L195.086906,386.604651 Z" id="Path" fill="#0074BD"></path> <path d="M424.26815,514.595522 C556.157845,446.133084 495.170251,380.333757 452.604422,389.196289 C442.195433,391.366863 437.525849,393.246888 437.525849,393.246888 C437.525849,393.246888 441.403951,387.176427 448.788518,384.56459 C532.998078,354.996921 597.745597,471.800866 421.63247,518.060362 C421.630915,518.060362 423.657045,516.226949 424.26815,514.595522 L424.26815,514.595522 Z" id="Path" fill="#0074BD"></path> <path d="M344.767048,0 C344.767048,0 417.793242,73.0102344 275.482118,185.247738 C161.357988,275.316482 249.4612,326.652046 275.441689,385.335245 C208.818872,325.27854 159.952293,272.40322 192.729567,223.199387 C240.8622,150.983114 374.224455,115.958711 344.767048,0 L344.767048,0 Z" id="Path" fill="#EA2D2E"></path> <path d="M208.053826,700.172653 C334.623959,708.258315 529.040672,695.673023 533.641837,635.824518 C533.641837,635.824518 524.797151,658.512227 429.029477,676.513857 C320.988401,696.838328 187.70234,694.471982 108.680169,681.434551 C108.680169,681.434551 124.868993,694.823127 208.053826,700.172653 L208.053826,700.172653 Z" id="Path" fill="#0074BD"></path> <path d="M527.798249,807.503447 L523.943471,807.503447 L523.943471,805.351517 L534.32447,805.351517 L534.32447,807.503447 L530.485242,807.503447 L530.485242,818.267756 L527.796694,818.267756 L527.796694,807.503447 L527.798249,807.503447 L527.798249,807.503447 Z M548.526038,808.048809 L548.476279,808.048809 L544.64949,818.266202 L542.889261,818.266202 L539.085797,808.048809 L539.046923,808.048809 L539.046923,818.266202 L536.499877,818.266202 L536.499877,805.349963 L540.234922,805.349963 L543.755381,814.493722 L547.286725,805.349963 L551,805.349963 L551,818.266202 L548.527593,818.266202 L548.527593,808.048809 L548.526038,808.048809 Z" id="Shape" fill="#EA2D2E"></path> <path d="M187.313597,928.845866 C175.377624,939.18445 162.755909,944.998545 151.426376,944.998545 C135.288867,944.998545 126.535924,935.309423 126.535924,919.8031 C126.535924,903.018049 135.907746,890.732628 173.438573,890.732628 L187.313597,890.732628 L187.313597,928.845866 L187.313597,928.845866 L187.313597,928.845866 Z M220.261918,965.984909 L220.261918,851.014377 C220.261918,821.625388 203.488425,802.233161 163.066903,802.233161 C139.481074,802.233161 118.801488,808.059685 101.990676,815.478793 L106.828197,835.842107 C120.068791,830.983563 137.190598,826.471502 154.001411,826.471502 C177.291796,826.471502 187.313597,835.842107 187.313597,855.223458 L187.313597,869.760248 L175.674624,869.760248 C119.100043,869.760248 93.5751622,891.683517 93.5751622,924.663198 C93.5751622,953.073331 110.398415,969.227564 142.066994,969.227564 C162.41848,969.227564 177.629225,960.8296 191.827683,948.539518 L194.413603,965.984909 L220.261918,965.984909 L220.261918,965.984909 Z" id="Shape" fill="#EA2D2E"></path> <path d="M330.217166,965.984909 L289.130115,965.984909 L239.671091,805.169729 L275.555202,805.169729 L306.255032,903.987582 L313.082919,933.677997 C328.578224,890.734182 339.567218,847.133135 345.062492,805.169729 L379.96386,805.169729 C370.630913,858.121183 353.792111,916.249697 330.217166,965.984909 L330.217166,965.984909 Z" id="Path" fill="#EA2D2E"></path> <path d="M487.880538,928.845866 C475.905691,939.18445 463.280866,944.998545 451.982432,944.998545 C435.838703,944.998545 427.085761,935.309423 427.085761,919.8031 C427.085761,903.018049 436.476242,890.732628 473.974415,890.732628 L487.878983,890.732628 L487.878983,928.845866 L487.880538,928.845866 L487.880538,928.845866 Z M520.839745,965.984909 L520.839745,851.014377 C520.839745,821.625388 504.018047,802.233161 463.633845,802.233161 C440.016916,802.233161 419.341995,808.059685 402.531183,815.478793 L407.376478,835.842107 C420.623293,830.983563 437.768425,826.471502 454.577682,826.471502 C477.840078,826.471502 487.878983,835.842107 487.878983,855.223458 L487.878983,869.760248 L476.24001,869.760248 C419.65299,869.760248 394.135884,891.683517 394.135884,924.663198 C394.135884,953.073331 410.935812,969.227564 442.602836,969.227564 C462.971426,969.227564 478.152627,960.8296 492.38996,948.539518 L494.992984,965.984909 L520.839745,965.984909 L520.839745,965.984909 Z" id="Shape" fill="#EA2D2E"></path> <path d="M57.4422558,993.315192 C48.0548841,1007.02073 32.8736831,1017.87827 16.268127,1024 L0,1004.85171 C12.649705,998.360185 23.4847565,987.897301 28.5259788,978.155353 C32.8736831,969.471501 34.6836717,958.309434 34.6836717,931.588216 L34.6836717,747.967244 L69.7001075,747.967244 L69.7001075,929.057174 C69.7001075,964.794744 66.8451772,979.242971 57.4422558,993.315192 L57.4422558,993.315192 Z" id="Path" fill="#EA2D2E"></path> </g> </g> </g> </svg> 