<?xml version="1.0" encoding="UTF-8"?> <svg xmlns="http://www.w3.org/2000/svg" xmlns:xlink="http://www.w3.org/1999/xlink" width="1024px" height="1024px" viewBox="0 0 1024 1024"> <title>jest</title> <g id="Page-1" stroke="none" stroke-width="1" fill="none" fill-rule="evenodd"> <g id="jest"> <rect id="Rectangle" x="0" y="0" width="1024" height="1024"></rect> <path d="M652.670228,504.067686 L733.324,505.233 L733.326115,505.479616 C734.480175,576.41838 792.539163,633.765349 863.744062,633.765349 C891.378388,633.765349 917.01294,625.104969 938.126092,610.389493 C952.785789,640.398069 958.247323,674.163195 952.407346,707.796861 C944.699054,752.206207 917.267892,791.002639 877.152904,814.235085 C839.758725,835.894003 794.947058,842.359411 747.502222,849.199279 C722.086768,852.864205 695.802887,856.656607 670.128498,862.990556 C603.597533,879.394925 539.113404,911.091275 476.709855,942.08114 L472.89183,943.97746 L472.89183,943.97746 C345.635297,1007.18549 235.731386,1061.76899 132.105649,989.948383 C56.1978954,937.340756 59.7034752,840.00111 68.547097,786.660498 C76.7413899,737.243747 98.8982478,691.730939 120.326104,647.715971 C124.034849,640.099298 127.636035,632.637986 131.1695,625.224478 C141.797781,629.474995 153.099292,632.371084 164.878837,633.685677 C143.068554,705.673594 177.371449,783.943672 249.367294,820.931543 L259.21877,825.994718 L269.655838,822.278005 C326.573706,802.009369 379.017977,769.479164 425.538617,725.591672 C455.610915,697.224345 481.452615,665.837438 502.701209,632.299379 C509.07499,633.25943 515.596166,633.765349 522.232866,633.765349 C593.909579,633.765349 652.269547,575.655883 652.670228,504.067686 Z M179.426993,424.848615 C223.119265,424.848615 258.661064,460.390433 258.661064,504.078745 C258.661064,547.767057 223.119265,583.312858 179.426993,583.312858 C135.742688,583.312858 100.196906,547.767057 100.196906,504.078745 C100.196906,460.390433 135.742688,424.848615 179.426993,424.848615 Z M863.744062,424.095712 C907.436334,424.095712 942.978133,459.63753 942.978133,503.325842 C942.978133,547.014153 907.436334,582.559955 863.744062,582.559955 C820.059757,582.559955 784.513974,547.014153 784.513974,503.325842 C784.513974,459.63753 820.059757,424.095712 863.744062,424.095712 Z M522.232866,424.095712 C565.921154,424.095712 601.462953,459.63753 601.462953,503.325842 C601.462953,547.014153 565.921154,582.559955 522.232866,582.559955 C478.548561,582.559955 443.002778,547.014153 443.002778,503.325842 C443.002778,459.63753 478.548561,424.095712 522.232866,424.095712 Z M961,0 L833.345108,376.503457 C827.811868,377.830001 822.418056,379.503119 817.179604,381.514845 L691.074337,124.26092 L564.602578,379.993104 C559.137061,378.108854 553.512198,376.559227 547.743926,375.411946 L420.527231,0 L961,0 Z" id="Combined-Shape" fill="#C63D14" fill-rule="nonzero"></path> </g> </g> </svg> 