<?xml version="1.0" encoding="UTF-8"?> <svg xmlns="http://www.w3.org/2000/svg" xmlns:xlink="http://www.w3.org/1999/xlink" width="1024px" height="1024px" viewBox="0 0 1024 1024"> <title>karma</title> <g id="Page-1" stroke="none" stroke-width="1" fill="none" fill-rule="evenodd"> <g id="karma"> <rect id="Rectangle" x="0" y="0" width="1024" height="1024"></rect> <g id="karma-seeklogo.com" transform="translate(0.000000, 118.000000)" fill-rule="nonzero"> <polyline id="Path" fill="#429F87" points="618.613752 552.567199 775.685369 787 1024 787 742.59638 371.037009 618.613752 552.567199"></polyline> <polyline id="Path" fill="#429F87" points="118.035323 678.264904 233.043999 569.871499 416.919696 787 298.884375 351.450868 199.224845 515.468604 118.035323 678.264904"></polyline> <polyline id="Path" fill="#56C5A8" points="118.035323 678.264904 298.884375 351.450868 183.903179 459.895333 0 242.758974 118.035323 678.264904"></polyline> <polyline id="Path" fill="#56C5A8" points="1000.32463 0 752.009998 0 599.927836 224.806648 599.927836 0 372.152011 0 372.152011 233.156384 493.598691 680.955203 521.898435 787 599.927836 787 599.927836 590.243127 1000.32463 0"></polyline> </g> </g> </g> </svg> 