<?xml version="1.0" encoding="UTF-8"?> <svg xmlns="http://www.w3.org/2000/svg" xmlns:xlink="http://www.w3.org/1999/xlink" width="1024px" height="1024px" viewBox="0 0 1024 1024"> <title>linux</title> <g id="Page-1" stroke="none" stroke-width="1" fill="none" fill-rule="evenodd"> <g id="linux"> <rect id="Rectangle" x="0" y="0" width="1024" height="1024"></rect> <polyline id="Fill-2" fill="#FFFFFE" points="375.531676 257.831148 373.847192 143.086254 442.147466 103.105577 543.566204 34.831957 585.246974 33.1481307 628.618056 79.7475855 651.990995 234.601338 620.306382 291.193049 488.765114 287.81957 375.531676 257.831148"></polyline> <polyline id="Fill-3" fill="#FFFFFE" points="240.615611 585.839339 275.546789 487.583124 343.847063 406.066123 378.778241 336.102851 393.845335 312.867214 643.551091 274.576189 693.543534 352.847891 833.396477 687.346679 785.088517 747.183688 658.484126 958.763158 628.618056 965.381935 397.0919 972.000713 235.556331 792.227497 208.930998 642.436876 240.615611 585.839339"></polyline> <path d="M560.311953,331.173726 C560.311953,331.173726 552.00028,329.484074 575.250817,324.420942 C598.617927,319.491817 598.751986,314.556866 605.245117,307.804082 C611.866478,301.185305 615.241274,286.129917 615.241274,269.513057 C615.241274,252.902024 623.552948,204.612916 621.862635,191.375362 C620.306382,178.0038 591.868335,128.159047 580.310096,121.412089 C568.623627,114.793312 438.77267,103.105577 438.77267,103.105577 L398.776384,134.777824 L368.782084,162.948413 L375.531676,252.902024 C375.531676,252.902024 367.091771,281.194966 368.782084,292.748694 C370.472396,304.430603 387.218145,317.802165 393.845335,324.420942 C400.466696,331.173726 425.395888,357.911023 433.707562,366.091272 C442.147466,374.393876 443.837778,382.702306 463.701862,376.083528 C483.700005,369.464751 495.386475,369.464751 510.453569,357.782842 C525.386604,346.095107 560.311953,331.173726 560.311953,331.173726" id="Fill-4" fill="#FBD020"></path> <path d="M483.700005,189.685709 C488.765114,176.319974 495.386475,151.394684 506.944714,143.086254 C518.631183,134.777824 543.694435,127.902686 558.627469,129.720519 C573.688735,131.404346 601.864492,146.331553 608.619913,158.013462 C615.241274,169.69537 615.241274,216.294825 615.241274,216.294825 L611.866478,254.58585 L588.62177,252.902024 L538.629326,232.911685 L530.317653,232.911685 C530.317653,232.911685 522.005979,236.156983 496.948557,222.919429 C472.013536,209.547867 478.634897,203.057271 483.700005,189.685709" id="Fill-5" fill="#FFFFFE"></path> <path d="M430.460997,226.292908 C431.242037,225.512172 432.798291,224.475075 434.879123,223.303971 C445.003511,217.72229 467.082487,209.547867 467.082487,209.547867 C467.082487,209.547867 488.636883,154.768163 470.329052,133.093998 C452.149452,111.414007 412.153166,114.793312 412.153166,114.793312 C412.153166,114.793312 368.910314,139.712775 370.472396,149.705032 C372.15688,159.703114 373.847192,194.62066 375.531676,199.549785 C377.093757,204.612916 383.843349,257.831148 383.843349,257.831148 L398.776384,251.212371 L420.464839,234.601338 C420.464839,234.601338 425.529948,231.356039 430.460997,226.292908" id="Fill-6" fill="#FFFFFE"></path> <path d="M748.472855,729.011182 C748.472855,729.011182 758.987763,729.791918 772.621006,730.834842 C776.129862,731.091203 779.638717,731.219384 783.141743,731.35339 C801.059054,732.00012 816.773129,734.726869 833.524707,736.801064 C844.564195,738.100348 862.872026,745.109494 864.171818,758.999604 C865.990361,779.508491 860.015981,802.091573 877.41454,810.528183 C895.20362,822.60046 934.937616,850.508861 934.937616,850.508861 L946.624086,872.054845 L911.698737,903.727093 L740.161182,1006.91826 L661.987152,980.309143 L661.987152,917.098654 L665.233718,832.208175 L656.922044,755.626125 L670.170595,725.637703 L703.539691,715.645447 L748.472855,729.011182" id="Fill-7" fill="#FBD020"></path> <path d="M252.43614,691.6349 C250.745827,690.073428 220.361007,699.028587 218.414233,699.418955 C204.256411,701.498976 186.3391,711.229045 186.3391,726.680627 C186.3391,734.598689 185.692119,742.773112 182.055033,749.910438 C179.198988,755.492118 172.705857,763.928728 172.834088,765.746562 C170.625024,771.84679 166.603247,780.417408 161.019388,784.053074 C154.526257,784.699803 125.697689,787.292546 125.697689,787.292546 L100.634438,787.292546 L85.7014031,805.465052 L97.3878726,853.88234 L94.0130767,892.045184 L82.4548378,935.39934 L110.636424,950.326548 L323.854749,1006.91826 L372.15688,991.991051 L397.0919,930.336209 L392.026792,907.100572 L368.782084,860.501117 C368.782084,860.501117 267.497405,713.437246 252.43614,691.6349" id="Fill-8" fill="#FBD020"></path> <path d="M360.989161,169.176822 C357.486135,53.0044625 402.80399,1.7322442 496.948557,0.0484179338 C590.959064,-1.76941526 649.910162,47.8131504 661.987152,112.847298 C673.935912,177.747439 667.05226,263.284648 691.07801,307.675902 C714.9697,352.201162 730.293255,386.337972 771.455274,437.61019 C812.489062,488.882409 838.071064,541.063544 850.013995,604.402213 C862.090985,667.618527 868.846405,697.472942 838.071064,730.054106 C807.295723,762.501263 752.622863,815.463134 711.594904,755.626125 C690.94395,725.637703 688.740716,688.389602 723.537834,680.47154 C745.745041,675.274402 761.715578,676.964054 778.204866,685.528845 C794.828213,694.099463 798.72176,690.073428 778.857676,675.274402 C758.859533,660.481201 754.831927,674.109124 761.715578,650.220931 C768.599229,626.338565 777.557884,583.374777 758.859533,536.128593 C750.157339,514.320421 720.68179,454.611592 693.024783,439.946572 C690.559259,438.519107 683.285087,435.53017 688.216136,441.630398 C695.618538,450.847745 735.486594,509.519477 746.782543,544.437023 C758.859533,581.947311 760.544016,617.773774 754.313176,640.490863 C748.082335,663.336132 737.171077,672.419471 724.056585,672.419471 C710.942094,672.419471 698.993334,678.647881 698.993334,648.537105 C698.993334,618.292323 702.111669,572.729965 685.884671,534.182579 C669.651844,495.757547 649.910162,469.282438 645.626095,453.055946 C641.470258,436.829454 631.992852,393.218937 612.385229,368.421828 C592.649376,343.630545 584.075413,327.409879 594.33386,299.111111 C604.592307,270.940522 596.933443,263.284648 576.416549,257.3126 C555.899655,251.340552 528.49911,242.775761 521.749518,229.019658 C514.865867,215.385909 519.149934,188.001883 534.47349,181.249099 C549.925275,174.368134 575.507278,183.719487 576.416549,203.447639 C577.325821,223.047609 567.848414,233.302053 570.44217,237.584449 C573.041753,241.866844 586.674996,248.747809 593.558647,241.091934 C600.308239,233.302053 602.126782,209.419687 595.243131,187.221147 C588.35948,165.022607 584.984684,149.576851 560.183723,144.519546 C535.382761,139.322407 524.215043,141.01206 512.266283,156.457816 C500.323353,171.775391 495.130014,196.566674 498.63304,214.610999 C502.007836,232.521317 495.130014,222.266873 483.181254,221.357957 C471.238324,220.577221 474.61312,219.674131 462.66436,220.577221 C450.72143,221.357957 455.005497,213.702082 454.096225,200.849069 C453.315185,188.001883 451.624872,161.520947 433.579331,151.266504 C415.656192,141.01206 384.880851,152.95033 385.661892,195.785938 C386.571164,238.493365 401.113678,259.002253 409.687641,243.556497 C418.255776,228.238922 413.971709,235.894796 405.397745,229.019658 C396.829611,222.266873 390.855231,193.968105 400.204407,185.531494 C409.687641,176.966703 420.721301,176.966703 426.823911,182.029835 C432.798291,187.221147 442.147466,204.356555 440.457154,215.385909 C438.77267,226.549269 437.863399,227.330005 426.823911,235.119886 C415.656192,242.775761 411.372125,249.656725 398.519923,258.093336 C385.661892,266.658127 380.596784,286.392105 390.855231,291.44941 C401.113678,296.640722 402.022949,295.737632 410.462854,308.584818 C419.036817,321.437831 433.579331,327.409879 469.548011,321.437831 C505.388461,315.465783 520.187436,306.895166 547.33152,297.421458 C567.067374,290.6745 560.183723,291.44941 567.067374,283.793535 C573.816966,276.137661 584.984684,287.167014 574.726237,294.047979 C564.46779,300.928944 541.357141,307.675902 524.215043,313.64795 C507.207004,319.748179 487.465322,336.755406 451.624872,335.065754 C415.656192,333.376101 440.457154,334.156837 429.295264,333.376101 C418.255776,332.467184 413.062437,334.156837 425.011197,342.721628 C437.082358,351.292246 436.173086,353.884988 446.431534,357.258467 C456.689981,360.765953 470.329052,360.765953 486.69011,354.793905 C502.917108,348.693676 543.950896,330.783358 556.808927,322.212741 C569.532898,313.64795 579.791345,324.81131 567.067374,333.376101 C554.209343,341.946719 550.706316,339.348149 538.757557,347.004024 C526.814626,354.793905 504.60742,367.512911 490.064905,381.274841 C475.522391,394.902763 472.141766,395.81168 454.096225,396.592416 C436.173086,397.501332 425.011197,378.676271 417.346505,370.11148 C409.687641,361.546689 410.462854,356.483558 401.113678,346.229114 C391.764502,335.97467 390.855231,338.439233 389.170747,349.602593 C387.480435,360.765953 374.628233,388.930715 363.460514,407.755776 C352.421026,426.575011 351.511755,449.682467 353.202067,465.908959 C354.886551,482.129625 350.602484,483.819277 337.878512,502.638512 C325.020481,521.457747 303.594316,577.018187 300.21952,594.928505 C296.844724,612.844649 292.560656,649.708209 294.24514,670.992006 C295.935452,692.40981 289.961073,696.692206 274.509287,682.155366 C259.185732,667.618527 253.992393,651.392035 254.901664,629.974231 C255.682705,611.673545 258.14823,598.826359 260.485523,592.073575 C262.822817,585.32079 260.613754,580.653853 255.682705,588.956457 C245.161968,607.128962 244.643217,638.544849 247.236972,649.708209 C249.708325,660.737562 250.617597,680.47154 278.793354,706.946649 C307.103171,733.427585 348.136959,770.162964 382.287096,794.954247 C416.565464,819.74553 428.514223,850.508861 378.003029,872.707401 C409.687641,915.537182 426.823911,937.735722 413.062437,965.900484 C441.366425,949.679818 430.460997,911.382967 416.827754,901.128524 C403.060451,890.879906 411.372125,882.956018 423.320884,890.745899 C435.263815,898.4076 439.553711,913.725175 486.69011,912.944439 C533.692449,912.035523 584.337702,907.362759 612.64169,866.216804 C640.823276,825.199029 646.278905,859.726207 639.395254,883.736754 C632.645662,907.61912 615.760025,961.618088 642.251299,956.560783 C645.626095,924.888536 653.419017,897.498684 653.419017,863.361874 C653.419017,829.091057 656.793813,812.608204 654.200058,763.025638 C651.600475,715.255079 672.245599,712.009781 693.543534,712.009781 C714.9697,712.009781 708.086049,725.765884 694.452806,724.862794 C680.685503,723.953877 666.27122,729.145189 665.367777,764.190916 C664.458505,799.236642 665.367777,795.863163 671.336328,827.40723 C677.310707,859.073652 678.219979,868.419179 673.02664,903.470732 C667.961532,938.516458 663.677464,957.335693 686.793942,978.753497 C709.776361,1000.1713 744.835769,994.071072 762.88131,980.443149 C780.804449,966.8094 814.954586,935.142979 845.729928,924.888536 C876.633499,914.628266 909.099153,906.972391 926.241251,889.836983 C943.24929,872.707401 938.965223,860.763304 921.042084,851.417777 C903.124773,841.94407 885.982675,846.226465 872.349432,830.90889 C858.587958,815.463134 851.832538,781.326324 856.897646,763.281999 C862.090985,745.371681 868.065365,753.027556 868.065365,765.880568 C868.065365,778.727755 868.846405,790.671851 881.698608,806.898343 C894.556638,823.119009 906.499569,830.90889 927.016463,843.627896 C947.533357,856.480909 960.391388,876.989796 934.681155,895.034121 C909.099153,912.944439 894.556638,923.198883 873.130473,931.763674 C851.832538,940.328465 816.773129,960.843179 795.346964,982.126976 C773.920798,1003.54478 761.977868,1022.36401 720.034808,1022.36401 C678.219979,1022.36401 659.002877,1012.24358 646.535366,987.318288 C637.967232,970.188706 633.683164,972.781449 614.075542,971.872532 C594.33386,971.097622 528.49911,970.188706 477.206875,971.097622 C425.914639,971.872532 408.77837,980.443149 385.661892,999.262384 C362.679473,1018.08162 354.111339,1032.61846 310.477967,1018.08162 C266.850424,1003.54478 243.733946,987.318288 178.808467,974.471101 C113.74893,961.618088 148.814167,967.590137 109.464863,959.025346 C70.1213867,950.588735 72.7151418,931.763674 77.9143092,916.317918 C82.9735888,901.000343 95.8316196,876.989796 84.6639011,845.445729 C73.6244132,813.773481 77.9143092,781.326324 107.77455,781.326324 C137.774679,781.326324 165.950437,787.292546 177.899196,747.964424 C189.842127,708.636302 193.350982,739.399633 189.842127,749.654077 C186.467331,759.90852 184.782847,788.073282 158.291573,792.355678 C131.8003,796.638073 125.82592,790.671851 109.464863,790.671851 C93.2320359,790.671851 86.482444,801.835212 94.9223482,820.654446 C103.490483,839.473681 112.973718,859.073652 111.283405,875.300144 C109.464863,891.526635 107.77455,897.498684 95.8316196,912.944439 C83.8828602,928.262015 85.5731725,936.046069 106.999338,941.109201 C128.297273,946.300513 166.859708,956.560783 202.700157,965.125574 C238.668837,973.562185 241.268421,973.562185 303.594316,989.916857 C366.054269,1006.14335 383.196368,977.063844 388.261476,942.018118 C393.454815,906.972391 369.429065,873.616317 347.227688,840.254417 C325.020481,806.898343 301.128791,768.473311 272.043762,733.427585 C242.952905,698.381858 225.810807,695.783289 211.268292,703.44499 C196.725778,711.229045 194.132023,709.545219 193.350982,689.811241 C192.44171,670.217096 190.751398,657.364084 206.984225,628.290405 C223.217052,599.2109 237.759566,567.538653 254.901664,518.865004 C272.043762,470.191355 287.361489,460.711821 316.452346,418.785129 C345.537375,376.992445 332.685173,393.218937 353.202067,365.048349 C373.713133,336.755406 367.744582,341.946719 366.054269,297.421458 C364.369786,253.030204 362.679473,227.330005 360.989161,169.176822 Z M279.312105,516.790809 C283.730232,522.110302 289.961073,509.519477 296.454203,504.718533 C302.294524,499.393214 304.765877,491.737339 303.466085,484.337826 C302.819103,480.311791 296.325973,481.611076 295.026181,483.038541 C290.998575,487.064576 291.907846,493.555172 289.051801,499.136852 C285.805236,505.88381 274.899807,511.33731 279.312105,516.790809 Z M646.925887,338.182872 C656.146832,345.966927 661.858922,352.719711 666.92403,341.165982 C672.117369,329.612254 672.117369,324.939491 659.649858,320.266727 C647.316407,315.465783 641.732548,310.402651 636.148689,304.040235 C630.564829,297.555465 628.618056,308.584818 633.164413,319.35781 C638.742444,332.601191 641.989009,334.156837 646.925887,338.182872 Z M454.224456,232.130949 C447.859556,230.831664 440.200693,231.356039 435.916625,236.413345 C434.226313,238.102997 435.007354,242.903941 437.991629,244.203226 C441.891005,245.892879 444.48476,241.995025 445.265801,239.011914 C445.656321,237.712629 446.175072,236.028803 447.474864,235.638435 C449.159348,234.729518 451.624872,235.504428 453.443415,234.729518 C455.524248,233.948782 454.743207,232.130949 454.224456,232.130949 Z M484.481046,233.302053 C487.074801,237.194081 491.749389,237.194081 495.648765,238.883733 C497.723769,239.79265 502.007836,241.091934 503.307628,238.102997 C506.297732,228.62929 493.439701,231.6124 487.465322,231.6124 C486.171359,231.6124 483.181254,231.222032 484.481046,233.302053 Z M546.812769,191.89391 C552.65309,192.150271 560.574243,202.538722 561.355284,214.610999 C561.483514,216.428832 566.414563,216.294825 567.457894,214.476992 C570.17988,209.676048 568.238935,204.356555 566.939143,198.640868 C565.895812,193.968105 560.311953,189.167161 555.637365,187.092966 C552.524859,185.531494 549.278294,185.012946 545.122457,185.531494 C544.084955,186.050043 540.447869,191.503542 546.812769,191.89391 Z M419.421509,188.904973 C414.099939,189.295341 416.046713,193.449556 416.309003,196.823035 C423.711405,200.97725 424.358386,210.322777 425.914639,217.72229 C426.048699,220.577221 430.332766,219.283762 430.723286,218.374846 C433.969852,212.402798 429.942246,205.650014 428.514223,198.640868 C427.214431,195.011028 424.748907,190.856813 421.374111,188.386425 C420.85536,187.867876 419.94026,188.904973 419.421509,188.904973 Z M582.781449,57.9394136 C577.454051,53.6570181 569.142378,51.9673654 566.676853,58.9765107 C564.083098,64.9485589 565.1206,71.0487876 563.692578,77.5393843 C563.692578,79.6135786 561.092994,80.1321272 559.664972,82.0781409 C557.589967,84.5485296 558.108718,87.6656474 559.14622,88.5687376 C564.083098,93.6318692 573.169984,83.639613 579.791345,80.1321272 C584.728223,77.0208357 591.868335,81.0410438 597.323964,77.5393843 C598.880217,76.5022872 599.398968,74.0318985 597.842715,72.0858847 C594.33386,65.985656 588.231249,62.4839966 582.781449,57.9394136 L582.781449,57.9394136 Z" id="Fill-9" fill="#1A1919"></path> <path d="M736.786386,737.5818 C737.561598,734.074314 739.380141,727.199176 742.754937,726.156252 C743.926498,725.765884 744.964,726.290259 745.35452,727.455537 C746.135561,729.663738 743.798267,742.254563 744.707539,745.109494 C745.745041,748.092605 749.248067,747.708063 751.719421,746.927327 C757.559741,744.981313 760.934537,738.100348 760.678076,737.453619 C760.678076,737.191432 760.544016,737.191432 760.287555,737.191432 C759.378284,737.453619 758.597243,740.698918 756.003488,741.473827 C754.313176,741.992376 753.013384,741.736015 752.494633,740.046362 C751.975882,738.228529 754.184945,725.247335 753.147443,722.264225 C752.238172,719.281114 749.248067,718.500378 746.392022,719.409294 C740.032951,721.483488 737.305137,731.219384 735.614824,736.929244 L735.486594,736.929244 L736.395865,723.563509 L728.474712,726.156252 L728.084192,753.808292 L735.486594,751.337903 C735.614824,746.536959 735.877114,741.083459 736.786386,737.5818" id="Fill-10" fill="#1A1919"></path> <path d="M771.064753,740.564911 C777.429653,738.490716 780.285698,730.963022 780.023409,730.054106 C779.895178,729.791918 779.766947,729.663738 779.504658,729.663738 C778.985907,729.920099 777.814345,734.208321 774.183088,735.373599 C772.621006,735.892147 771.192984,735.501779 770.802464,734.464682 C770.283713,732.909036 770.674233,730.182286 770.674233,727.845905 L770.936523,715.38326 L779.638717,712.528329 L779.504658,709.545219 L770.802464,712.400149 L771.192984,700.584233 L763.40589,705.000636 L763.01537,731.35339 C763.01537,734.208321 762.75308,736.672883 763.271831,737.972168 C764.315161,741.345647 767.818188,741.736015 771.064753,740.564911" id="Fill-11" fill="#1A1919"></path> </g> </g> </svg> 