<?xml version="1.0" encoding="UTF-8"?> <svg xmlns="http://www.w3.org/2000/svg" xmlns:xlink="http://www.w3.org/1999/xlink" width="1024px" height="1024px" viewBox="0 0 1024 1024"> <title>mui</title> <g id="Page-1" stroke="none" stroke-width="1" fill="none" fill-rule="evenodd"> <g id="mui"> <rect id="Rectangle" x="0" y="0" width="1024" height="1024"></rect> <polygon id="Path" fill="#00B0FF" fill-rule="nonzero" points="0 548.454545 0 105 384 326.727273 384 474.545455 128 326.727273 128 622.363636"></polygon> <polygon id="Path" fill="#0081CB" fill-rule="nonzero" points="384 326.727273 768 105 768 548.454545 512 696.272727 384 622.363636 640 474.545455 640 326.727273 384 474.545455"></polygon> <polygon id="Path" fill="#00B0FF" fill-rule="nonzero" points="384 622.363636 384 770.181818 640 918 640 770.181818"></polygon> <path d="M640,918 L1024,696.272727 L1024,400.636364 L896,474.545455 L896,622.363636 L640,770.181818 L640,918 Z M896,326.727273 L896,178.909091 L1024,105 L1024,252.818182 L896,326.727273 Z" id="Shape" fill="#0081CB" fill-rule="nonzero"></path> </g> </g> </svg> 