<?xml version="1.0" encoding="UTF-8"?> <svg xmlns="http://www.w3.org/2000/svg" xmlns:xlink="http://www.w3.org/1999/xlink" width="1024px" height="1024px" viewBox="0 0 1024 1024"> <title>mysql</title> <g id="Page-1" stroke="none" stroke-width="1" fill="none" fill-rule="evenodd"> <g id="mysql"> <rect id="Rectangle" x="0" y="0" width="1024" height="1024"></rect> <path d="M233.041766,183.42494 C221.394731,183.212586 213.15831,184.699062 204.447799,186.596088 L204.447799,188.188741 L206.039891,188.188741 C211.594522,199.60629 221.394731,206.953728 228.272567,216.785703 L229.857583,215.200129 C239.693171,208.263242 244.20056,197.171301 244.151028,180.246713 C240.209717,176.098738 239.622412,170.888995 236.211797,165.941154 C231.669029,159.344033 222.880683,155.606609 217.156229,150.057099 L233.041766,183.42494 Z" id="Path" fill="#00618A"></path> <path d="M942.994374,788.781566 C887.143797,787.266776 844.47574,792.462363 807.99915,807.850926 C797.632864,812.225412 781.103414,812.338667 779.412259,825.334712 C785.108409,831.308929 785.992904,840.227783 790.521521,847.575221 C799.224955,861.675505 813.935883,880.567904 827.054718,890.477742 C841.39062,901.307779 856.165231,912.881055 871.534223,922.260009 C898.868668,938.929772 929.387297,948.450295 955.70988,965.155451 C971.220391,975.001584 986.631839,987.403038 1001.76732,998.516214 C1009.24662,1004.0091 1014.27763,1012.55279 1024,1016 L1024,1014.40735 C1018.89115,1007.90225 1017.57503,998.955078 1012.88366,992.159761 L992.236002,971.504826 C972.048279,944.698714 946.41914,921.15577 919.176682,901.597996 C897.453475,885.997079 848.827457,864.931594 839.763148,839.633193 L838.171056,838.040541 C853.575428,836.306319 871.612058,830.728496 885.827668,826.927365 C909.709044,820.514284 931.043072,822.170642 955.70988,815.800032 C966.819142,812.621805 977.942556,809.4365 989.06597,806.265352 L989.06597,799.908899 C976.598123,787.11105 967.710713,770.179384 954.110712,758.59903 C918.553998,728.303239 879.735264,698.035762 839.763148,672.801066 C817.594156,658.799881 790.196026,649.704065 766.703829,637.840573 C758.799978,633.855402 744.909862,631.781414 739.694878,625.127666 C727.354398,609.392259 720.632233,589.438091 711.107987,571.104891 C691.174998,532.704267 671.595809,490.757338 653.934205,450.346433 C641.883839,422.797083 634.015368,395.629969 618.993099,370.904923 C546.874882,252.291237 469.244491,180.706813 348.988498,110.332805 C323.401815,95.3689489 292.593072,89.4513598 260.036565,81.7358429 L207.624906,78.5505377 C196.96143,74.0911105 185.86632,61.0455163 175.853832,54.7173768 C136.01616,29.5463876 33.8392521,-25.2196256 4.33248586,46.7753493 C-14.298525,92.2190361 32.1764008,136.565562 48.7978381,159.591779 C60.4661013,175.744816 75.4034595,193.851506 83.738944,212.021902 C89.2228155,223.963257 90.1709945,235.932926 94.8623581,248.56797 C106.41033,279.69194 116.444046,313.548195 131.38848,342.307961 C138.938532,356.861266 147.259865,372.193202 156.805339,385.203404 C162.657161,393.19498 172.683801,396.712973 174.268816,409.043643 C164.461531,422.775848 163.90253,444.082 158.390355,461.473766 C133.567876,539.775645 142.929376,637.090256 179.038015,695.041575 C190.118974,712.829734 216.215126,750.982612 252.097335,736.351443 C283.486307,723.560673 276.474028,683.928399 285.453425,648.967905 C287.484226,641.040035 286.231781,635.207387 290.215548,629.898545 L290.215548,631.491198 L318.802439,688.685121 C339.959569,722.767886 377.518781,758.393755 409.339387,782.432191 C425.840533,794.897352 438.832002,816.45125 460.16603,823.74206 L460.16603,822.149407 L458.573939,822.149407 C454.441576,815.708012 447.974146,813.032356 442.695477,807.850926 C430.26301,795.661825 416.443654,780.506851 406.16228,766.541058 C377.221591,727.234392 351.641984,684.218616 328.340837,639.433225 C317.210347,618.056289 307.537506,594.456717 298.154779,572.697543 C294.538961,564.309573 294.581417,551.62498 287.045517,547.27173 C276.771218,563.219491 261.635733,576.116437 253.689426,594.94513 C240.980997,625.042724 239.339373,661.744518 234.633858,699.805376 C231.845928,700.803438 233.077146,700.116828 231.449674,701.39095 C209.330214,696.053794 201.55373,673.275323 193.338537,653.731706 C172.535205,604.309927 168.678805,524.726848 186.97017,467.837298 C191.711065,453.114109 213.108778,406.750223 204.447799,393.159588 C200.315437,379.590188 186.67298,371.740181 179.038015,361.377321 C169.591605,348.558238 160.159346,331.683199 153.621156,316.882147 C136.603465,278.347034 128.657158,235.09059 110.740819,196.137847 C102.178904,177.514429 87.6944074,158.67158 75.7997134,142.115072 C62.631346,123.781871 47.8850389,110.26202 37.6815001,88.0852178 C34.051531,80.2068964 29.1195847,67.593088 34.4973167,59.488256 C36.2167757,54.0236881 38.6296791,51.7373468 44.035715,49.953576 C53.2486189,42.8538847 78.9060612,52.3177802 88.5010672,56.3100293 C113.974534,66.8923209 135.230728,76.9720421 156.805339,91.2634445 C167.164549,98.1366252 177.636975,111.422887 190.154353,115.103684 L204.447799,115.103684 C226.807842,120.242643 251.856752,116.696337 272.744995,123.045711 C309.667371,134.272142 342.754574,151.727615 372.799114,170.712033 C464.355001,228.53594 539.204538,310.851303 590.406208,409.043643 C598.642629,424.849835 602.208914,439.941103 609.461776,456.709965 C624.101944,490.530827 642.541904,525.328516 657.104236,558.399062 C671.638264,591.384667 685.804342,624.688802 706.345863,652.146132 C717.150859,666.579104 758.863662,674.322934 777.813091,682.328668 C791.108826,687.948962 812.881564,693.802845 825.469703,701.39095 C849.513825,715.901784 872.807896,733.173217 895.35899,749.06435 C906.631,757.006378 941.274915,774.426458 943.00145,788.781566 L942.994374,788.781566 Z" id="Path" fill="#00618A" fill-rule="nonzero"></path> </g> </g> </svg> 