<?xml version="1.0" encoding="UTF-8"?> <svg xmlns="http://www.w3.org/2000/svg" xmlns:xlink="http://www.w3.org/1999/xlink" width="1024px" height="1024px" viewBox="0 0 1024 1024"> <title>pwa</title> <g id="Page-1" stroke="none" stroke-width="1" fill="none" fill-rule="evenodd"> <g id="pwa"> <rect id="Rectangle" x="0" y="1.13686838e-13" width="1024" height="1024"></rect> <polygon id="Path" fill="#3D3D3D" fill-rule="nonzero" points="753.636722 635.865187 783.218361 560.969795 868.632131 560.969795 828.09705 447.357522 878.793443 319.000064 1024 704.99895 916.91541 704.99895 892.102295 635.865187"></polygon> <polygon id="Path" fill="#5A0FC8" fill-rule="nonzero" points="662.279345 705 817.725902 319.000609 714.670165 319.001122 608.335739 568.44258 532.721312 319.001635 453.507673 319.001635 372.317903 568.44258 315.060985 454.77726 263.245641 614.601784 315.853641 705 417.273182 705 490.640788 481.30491 560.592788 705"></polygon> <path d="M97.8234772,572.492002 L161.300461,572.492002 C180.528789,572.492002 197.650887,570.34334 212.666756,566.046016 L229.082756,515.410914 L274.962887,373.893346 C271.467018,368.345744 267.475936,363.100509 262.989641,358.158324 C239.43292,332.052475 204.967346,319 159.591871,319 L0,319 L0,704.99895 L97.8234772,704.99895 L97.8234772,572.492002 Z M181.844985,407.802919 C191.046297,417.074571 195.646428,429.481768 195.646428,445.025559 C195.646428,460.688575 191.600264,473.111003 183.508461,482.292843 C174.637641,492.495179 158.303477,497.596085 134.507018,497.596085 L97.8234772,497.596085 L97.8234772,393.894653 L134.776657,393.894653 C156.954756,393.894653 172.644198,398.530741 181.844985,407.802919 Z" id="Shape" fill="#3D3D3D" fill-rule="nonzero"></path> </g> </g> </svg> 