<?xml version="1.0" encoding="UTF-8"?> <svg xmlns="http://www.w3.org/2000/svg" xmlns:xlink="http://www.w3.org/1999/xlink" width="1024px" height="1024px" viewBox="0 0 1024 1024"> <title>react</title> <g id="Page-1" stroke="none" stroke-width="1" fill="none" fill-rule="evenodd"> <g id="react"> <rect id="Rectangle" x="0" y="0" width="1024" height="1024"></rect> <g transform="translate(0.000000, 56.000000)" fill="#61DAFB" fill-rule="nonzero"> <path d="M1024,456.104372 C1024,388.26276 939.049327,323.969787 808.805544,284.099794 C838.861802,151.338979 825.503465,45.7148089 766.643294,11.8983749 C753.076233,3.96612497 737.213208,0.20874342 719.889115,0.20874342 L719.889115,46.758526 C729.49042,46.758526 737.213208,48.6372168 743.683653,52.1858549 C772.070118,68.4678416 784.384835,130.464637 774.78353,210.204623 C772.487566,229.826505 768.730534,250.492103 764.138606,271.575189 C723.2287,261.555505 678.561761,253.831998 631.598859,248.822156 C603.421117,210.204623 574.199755,175.135729 544.76967,144.450446 C612.813698,81.2011902 676.683245,46.5497826 720.097839,46.5497826 L720.097839,0 C720.097839,0 720.097839,0 720.097839,0 C662.698736,0 587.558092,40.9137102 511.582552,111.886473 C435.607012,41.3311971 360.466368,0.834973678 303.067265,0.834973678 L303.067265,47.3847562 C346.273135,47.3847562 410.351406,81.8274205 478.395434,144.65919 C449.174073,175.344472 419.952711,210.204623 392.192417,248.822156 C345.020791,253.831998 300.353852,261.555505 259.443946,271.783932 C254.643294,250.90959 251.094986,230.661479 248.590298,211.248341 C238.780269,131.508354 250.886262,69.5115587 279.064003,53.0208286 C285.325724,49.263447 293.46596,47.5934997 303.067265,47.5934997 L303.067265,1.0437171 C303.067265,1.0437171 303.067265,1.0437171 303.067265,1.0437171 C285.534448,1.0437171 269.671423,4.80109865 255.895638,12.7333486 C197.244191,46.5497826 184.094578,151.965209 214.35956,284.308537 C84.5332246,324.387274 0,388.471504 0,456.104372 C0,523.945983 84.9506726,588.238956 215.194456,628.108949 C185.138198,760.869764 198.496535,866.493935 257.356706,900.310369 C270.923767,908.242618 286.786792,912 304.319609,912 C361.718712,912 436.859356,871.08629 512.834896,800.113527 C588.810436,870.668803 663.95108,911.165026 721.350183,911.165026 C738.883,911.165026 754.746025,907.407645 768.52181,899.475395 C827.173257,865.658961 840.32287,760.243534 810.057888,627.900206 C939.466775,588.030213 1024,523.73724 1024,456.104372 Z M752.241337,316.872511 C744.518549,343.800412 734.917244,371.563287 724.063596,399.326162 C715.505911,382.626688 706.530779,365.927214 696.72075,349.227741 C687.119446,332.528267 676.891969,316.246281 666.664492,300.381781 C696.303302,304.765393 724.898492,310.192721 752.241337,316.872511 Z M656.64574,539.184253 C640.365267,567.364614 623.667346,594.083772 606.343253,618.924239 C575.243375,621.637903 543.72605,623.099107 512,623.099107 C480.482674,623.099107 448.965349,621.637903 418.074195,619.132982 C400.750102,594.292515 383.843457,567.782101 367.562984,539.810483 C351.699959,512.465095 337.298002,484.70222 324.14839,456.730602 C337.089278,428.758984 351.699959,400.787366 367.35426,373.441978 C383.634733,345.261616 400.332654,318.542458 417.656747,293.701991 C448.756625,290.988327 480.27395,289.527123 512,289.527123 C543.517326,289.527123 575.034651,290.988327 605.925805,293.493248 C623.249898,318.333715 640.156543,344.844129 656.437016,372.815747 C672.300041,400.161135 686.701998,427.92401 699.85161,455.895628 C686.701998,483.867247 672.300041,511.838865 656.64574,539.184253 Z M724.063596,512.047608 C735.334692,540.019226 744.935997,567.990845 752.867509,595.127489 C725.524664,601.807279 696.72075,607.443351 666.873216,611.826963 C677.100693,595.753719 687.32817,579.262989 696.929474,562.354772 C706.530779,545.655299 715.505911,528.747082 724.063596,512.047608 Z M512.417448,734.776837 C493.006115,714.737469 473.594782,692.401923 454.392173,667.978943 C473.177334,668.813916 492.379943,669.440146 511.791276,669.440146 C531.411333,669.440146 550.822666,669.02266 569.816551,667.978943 C551.03139,692.401923 531.620057,714.737469 512.417448,734.776837 Z M357.126784,611.826963 C327.487974,607.443351 298.892784,602.016022 271.549939,595.336233 C279.272727,568.408331 288.874032,540.645457 299.72768,512.882582 C308.285365,529.582055 317.260497,546.281529 327.070526,562.981003 C336.880554,579.680476 346.899307,595.962463 357.126784,611.826963 Z M511.373828,177.431907 C530.785161,197.471275 550.196494,219.806821 569.399103,244.229801 C550.613942,243.394827 531.411333,242.768597 512,242.768597 C492.379943,242.768597 472.96861,243.186084 453.974725,244.229801 C472.759886,219.806821 492.171219,197.471275 511.373828,177.431907 Z M356.91806,300.381781 C346.690583,316.455024 336.463106,332.945754 326.861802,349.853971 C317.260497,366.553445 308.285365,383.252918 299.72768,399.952392 C288.456584,371.980774 278.855279,344.009155 270.923767,316.872511 C298.266612,310.401465 327.070526,304.765393 356.91806,300.381781 Z M168.022829,561.728542 C94.1345291,530.208286 46.3367305,488.877089 46.3367305,456.104372 C46.3367305,423.331655 94.1345291,381.791714 168.022829,350.480201 C185.973094,342.756695 205.593151,335.868162 225.83938,329.397116 C237.736649,370.310826 253.39095,412.894484 272.802283,456.521859 C253.599674,499.94049 238.154097,542.315404 226.465552,583.020371 C205.801875,576.549325 186.181818,569.452049 168.022829,561.728542 Z M280.316347,860.022889 C251.929882,843.740902 239.615165,781.744106 249.21647,702.00412 C251.512434,682.382238 255.269466,661.71664 259.861394,640.633555 C300.7713,650.653239 345.438239,658.376745 392.401141,663.386587 C420.578883,702.00412 449.800245,737.073014 479.23033,767.758297 C411.186302,831.007553 347.316755,865.658961 303.902161,865.658961 C294.50958,865.450217 286.578068,863.571527 280.316347,860.022889 Z M775.409702,700.960403 C785.219731,780.700389 773.113738,842.697185 744.935997,859.187915 C738.674276,862.945296 730.53404,864.615244 720.932735,864.615244 C677.726865,864.615244 613.648594,830.17258 545.604566,767.34081 C574.825927,736.655528 604.047289,701.795377 631.807583,663.177844 C678.979209,658.168002 723.646148,650.444495 764.556054,640.216068 C769.356706,661.299153 773.113738,681.547265 775.409702,700.960403 Z M855.768447,561.728542 C837.818182,569.452049 818.198125,576.340581 797.951896,582.811627 C786.054627,541.897917 770.400326,499.31426 750.988993,455.686885 C770.191602,412.268254 785.637179,369.893339 797.325724,329.188373 C817.989401,335.659419 837.609458,342.756695 855.977171,350.480201 C929.865471,382.000458 977.663269,423.331655 977.663269,456.104372 C977.454545,488.877089 929.656747,530.417029 855.768447,561.728542 Z" id="Shape"></path> <ellipse id="Oval" cx="511.791276" cy="456.104372" rx="95.3868732" ry="95.3957427"></ellipse> </g> </g> </g> </svg> 