<?xml version="1.0" encoding="UTF-8"?> <svg xmlns="http://www.w3.org/2000/svg" xmlns:xlink="http://www.w3.org/1999/xlink" width="1024px" height="1024px" viewBox="0 0 1024 1024"> <title>rollup</title> <defs> <linearGradient x1="37.0547676%" y1="48.2236445%" x2="59.817305%" y2="55.339338%" id="linearGradient-1"> <stop stop-color="#FF6533" offset="0%"></stop> <stop stop-color="#FF5633" offset="15.7%"></stop> <stop stop-color="#FF4333" offset="43.4%"></stop> <stop stop-color="#FF3733" offset="71.4%"></stop> <stop stop-color="#FF3333" offset="100%"></stop> </linearGradient> <linearGradient x1="33.4944998%" y1="38.1333935%" x2="74.2898445%" y2="80.4322382%" id="linearGradient-2"> <stop stop-color="#BF3338" offset="0%"></stop> <stop stop-color="#FF3333" offset="100%"></stop> </linearGradient> <linearGradient x1="41.8947741%" y1="39.496861%" x2="47.9660118%" y2="48.9139013%" id="linearGradient-3"> <stop stop-color="#FF6533" offset="0%"></stop> <stop stop-color="#FF5633" offset="15.7%"></stop> <stop stop-color="#FF4333" offset="43.4%"></stop> <stop stop-color="#FF3733" offset="71.4%"></stop> <stop stop-color="#FF3333" offset="100%"></stop> </linearGradient> <linearGradient x1="51.1050205%" y1="78.3444231%" x2="48.9527326%" y2="41.6628279%" id="linearGradient-4"> <stop stop-color="#FF6533" offset="0%"></stop> <stop stop-color="#FF5633" offset="15.7%"></stop> <stop stop-color="#FF4333" offset="43.4%"></stop> <stop stop-color="#FF3733" offset="71.4%"></stop> <stop stop-color="#FF3333" offset="100%"></stop> </linearGradient> <linearGradient x1="44.0081479%" y1="47.2148639%" x2="52.4306754%" y2="54.5349876%" id="linearGradient-5"> <stop stop-color="#FBB040" offset="0%"></stop> <stop stop-color="#FB8840" offset="100%"></stop> </linearGradient> <linearGradient x1="53.153374%" y1="5.88782542%" x2="44.5210186%" y2="128.016462%" id="linearGradient-6"> <stop stop-color="#FFFFFF" offset="0%"></stop> <stop stop-color="#FFFFFF" stop-opacity="0" offset="100%"></stop> </linearGradient> </defs> <g id="Page-1" stroke="none" stroke-width="1" fill="none" fill-rule="evenodd"> <g id="rollup"> <rect id="Rectangle" x="0" y="0" width="1024" height="1024"></rect> <path d="M904,337.135466 C904,276.849401 888.201817,220.331215 860.375473,171.348787 C786.590779,95.4529366 626.095605,77.8695009 586.241099,170.989941 C545.309443,266.442878 654.999098,372.661183 702.932221,364.228311 C763.970654,353.462942 692.160732,213.513148 692.160732,213.513148 C785.51363,389.347505 763.970654,335.520661 595.217339,497.001193 C426.464024,658.481725 254.120213,999.205647 228.986741,1013.55947 C227.909592,1014.27716 226.832443,1014.81543 225.575769,1015.3537 L887.483718,1015.3537 C899.15283,1015.3537 906.692872,1002.97353 901.486653,992.567003 L728.424743,650.228275 C724.654722,642.87194 727.347594,633.721376 734.528586,629.594652 C835.780575,571.46166 904,462.37259 904,337.135466 Z" id="XMLID_15_" fill="url(#linearGradient-1)" fill-rule="nonzero"></path> <path d="M904,337.135466 C904,276.849401 888.201817,220.331215 860.375473,171.348787 C786.590779,95.4529366 626.095605,77.8695009 586.241099,170.989941 C545.309443,266.442878 654.999098,372.661183 702.932221,364.228311 C763.970654,353.462942 692.160732,213.513148 692.160732,213.513148 C785.51363,389.347505 763.970654,335.520661 595.217339,497.001193 C426.464024,658.481725 254.120213,999.205647 228.986741,1013.55947 C227.909592,1014.27716 226.832443,1014.81543 225.575769,1015.3537 L887.483718,1015.3537 C899.15283,1015.3537 906.692872,1002.97353 901.486653,992.567003 L728.424743,650.228275 C724.654722,642.87194 727.347594,633.721376 734.528586,629.594652 C835.780575,571.46166 904,462.37259 904,337.135466 Z" id="XMLID_10_" fill="url(#linearGradient-2)" fill-rule="nonzero"></path> <path d="M228.986741,1013.55947 C254.120213,999.205647 426.464024,658.302302 595.217339,496.82177 C763.970654,335.341238 785.51363,389.168082 692.160732,213.333725 C692.160732,213.333725 334.906374,713.923374 205.648516,961.526856" id="XMLID_3_" fill="url(#linearGradient-3)" fill-rule="nonzero"></path> <path d="M279.253685,565.002439 C520.535021,121.648667 552.131386,76.9723869 677.798748,76.9723869 C743.863876,76.9723869 810.467578,106.756574 853.55353,159.686304 C794.84892,65.1304812 690.904059,1.79422813 571.879114,0 L162.023989,0 C153.406798,0 146.405331,6.99748972 146.405331,15.6097848 L146.405331,841.313571 C170.820704,778.336164 212.290934,688.265912 279.253685,565.002439 Z" id="XMLID_12_" fill="url(#linearGradient-4)" fill-rule="nonzero"></path> <path d="M595.217339,496.82177 C426.464024,658.302302 254.120213,999.205647 228.986741,1013.55947 C203.853268,1027.9133 161.664939,1029.70753 139.224339,1004.58833 C115.34754,977.854332 78.185906,934.613434 279.253685,565.002439 C520.535021,121.648667 552.131386,76.9723869 677.798748,76.9723869 C743.863876,76.9723869 810.467578,106.756574 853.55353,159.686304 C855.887353,163.454183 858.221175,167.401485 860.554998,171.348787 C786.770304,95.4529366 626.27513,77.8695009 586.420623,170.989941 C545.488968,266.442878 655.178623,372.661183 703.111745,364.228311 C764.150178,353.462942 692.340257,213.513148 692.340257,213.513148 C785.51363,389.168082 763.970654,335.341238 595.217339,496.82177 Z" id="XMLID_6_" fill="url(#linearGradient-5)" fill-rule="nonzero"></path> <path d="M299.001414,584.738948 C540.282749,141.385177 571.879114,96.7088963 697.546476,96.7088963 C751.942492,96.7088963 806.697557,116.983674 848.347311,153.585928 C805.261358,104.424077 741.350528,76.9723869 677.798748,76.9723869 C552.131386,76.9723869 520.535021,121.648667 279.253685,565.002439 C78.185906,934.613434 115.34754,977.854332 139.224339,1004.58833 C142.63531,1008.35621 146.584856,1011.58582 150.713926,1014.27716 C129.709524,983.775285 120.374235,912.903274 299.001414,584.738948 Z" id="XMLID_13_" fill="url(#linearGradient-6)" fill-rule="nonzero" opacity="0.3"></path> </g> </g> </svg> 