<?xml version="1.0" encoding="UTF-8"?> <svg xmlns="http://www.w3.org/2000/svg" xmlns:xlink="http://www.w3.org/1999/xlink" width="1024px" height="1024px" viewBox="0 0 1024 1024"> <title>scss</title> <g id="Page-1" stroke="none" stroke-width="1" fill="none" fill-rule="evenodd"> <g id="scss"> <rect id="Rectangle" x="0" y="0" width="1024" height="1024"></rect> <path d="M881.744199,569.493195 C846.020021,569.680247 814.971782,578.284661 788.973559,591.00423 C779.434642,572.111929 769.895725,555.277206 768.212387,542.931742 C766.342011,528.528701 764.09756,519.737234 766.342011,502.528406 C768.586462,485.319578 778.686492,460.815703 778.499454,458.945178 C778.312416,457.074653 776.255003,448.283186 755.680869,448.096134 C735.106735,447.909081 717.338165,452.024236 715.280752,457.448758 C713.223338,462.87328 709.295549,475.218744 706.677023,487.938312 C703.123309,506.643561 665.528755,573.421297 644.019433,608.400111 C637.099042,594.74528 631.11384,582.773921 629.804577,573.234244 C627.934201,558.831203 625.68975,550.039736 627.934201,532.830908 C630.178652,515.62208 640.278681,491.118205 640.091644,489.24768 C639.904606,487.377155 637.847193,478.585688 617.273059,478.398636 C596.698925,478.211583 578.930355,482.326738 576.872941,487.75126 C574.815528,493.175782 572.571077,505.895351 568.269212,518.240814 C563.967348,530.586278 514.028314,642.069558 500.935683,670.87564 C494.20233,685.652786 488.404165,697.437092 484.289338,705.480349 C484.289338,705.480349 484.289338,705.480349 484.289338,705.480349 C484.289338,705.480349 484.102301,706.041506 483.541188,706.976769 C479.987474,713.897711 477.930061,717.63876 477.930061,717.63876 C477.930061,717.63876 477.930061,717.63876 477.930061,717.825813 C475.124497,722.87623 472.131896,727.552542 470.635595,727.552542 C469.513369,727.552542 467.455956,714.084763 471.00967,695.75362 C478.491173,657.033756 496.259744,596.802857 496.072706,594.74528 C496.072706,593.622965 499.439382,583.148026 484.476376,577.723504 C469.887445,572.298982 464.650392,581.277501 463.341129,581.277501 C462.031866,581.277501 461.096678,584.457393 461.096678,584.457393 C461.096678,584.457393 477.368948,516.744395 430.04844,516.744395 C400.496502,516.744395 359.722309,549.104474 339.52225,578.284661 C326.803695,585.205603 299.683245,599.982749 270.69242,615.88221 C259.657203,622.054942 248.247911,628.227674 237.586768,634.026301 C236.838618,633.278091 236.090468,632.342828 235.342317,631.594619 C178.108817,570.428457 72.2455464,527.219334 76.7344483,445.103294 C78.4177865,415.174897 88.7048535,336.612854 280.044299,241.216089 C437.529943,163.589309 562.845123,185.100344 584.541482,232.798727 C615.589721,300.88583 517.39499,427.333308 354.672294,445.664451 C292.575817,452.585393 260.031278,428.642676 251.801625,419.664156 C243.197896,410.311532 241.888633,409.750375 238.708994,411.6209 C233.471942,414.426687 236.838618,422.844049 238.708994,427.707413 C243.571971,440.426982 263.584992,462.87328 297.438794,473.909376 C327.364808,483.636105 400.122427,489.060627 488.217128,455.017076 C586.785933,416.858369 663.845417,310.799612 641.213869,221.949683 C618.582322,131.790387 468.952257,102.049042 327.364808,152.36616 C243.197896,182.294557 151.923556,229.431782 86.273365,290.784996 C8.27869349,363.735464 -4.06578689,427.146256 0.984227811,453.707708 C19.1268732,547.982159 149.117992,609.335373 201.11444,654.789126 C198.495914,656.285546 196.064425,657.594914 194.007012,658.717228 C168.008788,671.62385 68.8788699,723.437387 44.1899091,778.243764 C16.1342719,840.345188 48.6788111,884.863679 70.188133,890.849358 C136.96055,909.367554 205.603342,876.072212 242.449746,821.078783 C279.296149,766.085353 274.807247,694.631305 257.786827,661.897121 C257.59979,661.523016 257.412752,661.148911 257.038677,660.774806 C263.77203,656.846704 270.69242,652.731549 277.425773,648.803447 C290.705442,640.947243 303.798072,633.652196 315.020327,627.666516 C308.661049,645.062397 303.98511,665.825223 301.740659,695.75362 C298.935095,730.919486 313.336989,776.560292 332.227785,794.51733 C340.644476,802.373535 350.557468,802.560587 356.916745,802.560587 C378.98718,802.560587 388.900172,784.229444 399.935389,762.531356 C413.402095,735.969903 425.559538,705.106244 425.559538,705.106244 C425.559538,705.106244 410.409494,788.531651 451.557762,788.531651 C466.520768,788.531651 481.670812,769.078193 488.404165,759.164411 C488.404165,759.351464 488.404165,759.351464 488.404165,759.351464 C488.404165,759.351464 488.77824,758.790306 489.526391,757.480939 C491.022691,755.049257 491.957879,753.552837 491.957879,753.552837 C491.957879,753.552837 491.957879,753.365784 491.957879,753.178732 C497.943082,742.703793 511.409788,718.948128 531.422809,679.480054 C557.233995,628.601779 582.109994,565.003935 582.109994,565.003935 C582.109994,565.003935 584.354444,580.529291 592.022985,606.342533 C596.511887,621.493784 605.863766,638.141455 613.34527,654.227969 C607.360067,662.645331 603.619315,667.321643 603.619315,667.321643 C603.619315,667.321643 603.619315,667.321643 603.806353,667.508695 C598.943376,673.868479 593.706324,680.789421 587.908159,687.523311 C567.521062,711.840133 543.206177,739.710953 539.8395,747.75421 C535.911711,757.293886 536.846899,764.214828 544.328402,769.826403 C549.752492,773.941557 559.478446,774.502715 569.391438,773.941557 C587.721121,772.63219 600.626714,768.14293 606.985992,765.337143 C616.898984,761.783146 628.495314,756.358624 639.343493,748.315367 C659.356515,733.538221 671.513957,712.401291 670.391732,684.530471 C669.830619,669.192167 664.780605,653.853864 658.608364,639.450823 C660.47874,636.832088 662.162078,634.213353 664.032454,631.594619 C695.641805,585.392655 720.143729,534.701433 720.143729,534.701433 C720.143729,534.701433 722.38818,550.226789 730.05672,576.040031 C733.797472,589.133705 741.466013,603.349694 748.199366,617.191577 C718.46039,641.321348 700.130707,669.37922 693.584392,687.710363 C681.801024,721.753915 690.965866,737.092218 708.360361,740.646215 C716.215939,742.329688 727.438194,738.588638 735.667848,735.034641 C746.141952,731.667696 758.486433,725.869069 770.2698,717.264655 C790.282822,702.487509 809.547693,681.911736 808.425467,654.040916 C807.864354,641.321348 804.497678,628.788831 799.821738,616.63042 C825.071812,606.155481 857.616351,600.356854 899.138694,605.220219 C988.168583,615.695158 1005.75012,671.249745 1002.38344,694.631305 C999.016763,718.012865 980.313005,730.732434 974.140764,734.660536 C967.968524,738.588638 965.911111,739.898006 966.472223,742.703793 C967.220374,746.818947 970.212975,746.631895 975.450027,745.883685 C982.744493,744.574318 1022.20942,726.991384 1023.89276,683.969313 C1026.69832,628.975884 974.327802,568.932037 881.744199,569.493195 Z M194.9422,801.064167 C165.390262,833.237194 124.241994,845.395605 106.473424,835.107719 C87.3955905,824.071622 94.8770937,776.560292 131.162385,742.51674 C153.232819,721.753915 181.662532,702.487509 200.553327,690.703203 C204.855192,688.084468 211.214469,684.343418 218.88301,679.667106 C220.192273,678.918896 220.940424,678.544791 220.940424,678.544791 L220.940424,678.544791 C222.436724,677.609529 223.933025,676.674267 225.429326,675.739004 C238.708994,724.37265 225.990438,767.207668 194.9422,801.064167 Z M410.035419,654.789126 C399.748352,679.854159 378.23903,744.01316 365.146399,740.459163 C353.924144,737.466323 347.003754,688.832678 362.901948,640.76019 C370.944564,616.63042 387.964984,587.824338 397.877976,576.601189 C413.963208,558.644151 431.731778,552.658471 436.033642,559.953518 C441.457732,569.493195 416.394696,639.076718 410.035419,654.789126 Z M587.534083,739.710953 C583.232219,741.955583 579.117392,743.452003 577.247016,742.329688 C575.937753,741.581478 579.117392,738.588638 579.117392,738.588638 C579.117392,738.588638 601.374864,714.645921 610.165631,703.796877 C615.215645,697.437092 621.200848,689.954993 627.560126,681.537631 C627.560126,682.285841 627.560126,683.221104 627.560126,683.969313 C627.560126,712.588343 599.878564,731.854749 587.534083,739.710953 Z M724.445593,708.473189 C721.265954,706.228559 721.827067,698.74646 732.488209,675.364899 C736.603036,666.199328 746.32899,650.861024 762.975335,636.083878 C764.845711,642.069558 766.154974,647.868184 765.967936,653.292706 C765.780899,689.393835 739.969712,702.861614 724.445593,708.473189 Z" id="Shape" fill="#CD6799" fill-rule="nonzero"></path> </g> </g> </svg> 