<?xml version="1.0" encoding="UTF-8"?> <svg xmlns="http://www.w3.org/2000/svg" xmlns:xlink="http://www.w3.org/1999/xlink" width="1024px" height="1024px" viewBox="0 0 1024 1024"> <title>typescript</title> <g id="Page-1" stroke="none" stroke-width="1" fill="none" fill-rule="evenodd"> <g id="typescript"> <rect id="Rectangle" x="0" y="0" width="1024" height="1024"></rect> <g id="typescriptt"> <rect id="Rectangle" fill="#3178C6" fill-rule="nonzero" x="0" y="0" width="1024" height="1024" rx="100"></rect> <path d="M634,814 L634,914 C650.2,922.4 670,928.6 692,932.8 C714,937 738,939 762,939 C786,939 808,936.8 830,932.2 C852,927.6 870,920 886,910.2 C902.2,899.6 916,886.2 924,868.2 C932,850.2 938.2,830.2 938.2,804.2 C938.2,786 935.4,770.2 930,756.2 C924.6,742.2 916.8,730.2 906,720.2 C895.8,709.6 884,700.2 870,692.2 C856,684.2 840,675.8 822,668.2 C808.8,662.8 798,657.6 786,652.4 C775.6,647.2 766.6,642 760,636.8 C752.6,631.4 747,625.8 743,620 C739,614 737,607.4 737,600 C737,593.2 738.78,587 742.4,581.4 C746.02,575.8 751,571.2 757.4,567.2 C763.8,563.2 771.8,560.2 781.4,558 C790.8,555.8 801.2,554.8 813.4,554.8 C821.8,554.8 830.6,555.42 839.4,556.68 C848.6,557.94 858,559.88 867.4,562.48 C876.8,565.08 886,568.28 895.4,572.28 C904.2,576.28 912.4,580.88 919.4,586.08 L919.4,492.08 C904.2,486.28 887.4,481.88 869.4,479.08 C851.4,476.28 831.4,474.88 807.4,474.88 C783.4,474.88 761.4,477.48 739.4,482.48 C717.4,487.48 699.4,495.48 683.4,506.48 C667.2,517.28 655.4,530.48 645.4,548.48 C636,565.28 631.4,584.48 631.4,608.48 C631.4,638.48 640,664.48 657.4,684.48 C674.6,706.48 701.4,722.48 735.4,738.48 C749.2,744.08 761.4,749.68 773.4,755.08 C785.4,760.48 795.4,766.08 803.4,771.88 C812,777.68 818.8,784.08 823.4,790.88 C828.4,797.68 831,805.68 831,814.88 C831,821.28 829.44,827.28 826.4,832.88 C823.36,838.48 818.6,843.28 812.2,847.28 C805.8,851.28 798,854.48 788.2,856.88 C778.8,859.08 768.2,860.28 754.2,860.28 C732.2,860.28 710.2,856.48 690.2,848.88 C668.2,841.28 648.2,829.88 630.2,814.88 L634,814 Z M466,568 L594,568 L594,486 L236,486 L236,568 L364,568 L364,934 L466,934 L466,568 Z" id="Shape" fill="#FFFFFF"></path> </g> </g> </g> </svg> 