<?xml version="1.0" encoding="UTF-8"?> <svg xmlns="http://www.w3.org/2000/svg" xmlns:xlink="http://www.w3.org/1999/xlink" width="1024px" height="1024px" viewBox="0 0 1024 1024"> <title>webpack</title> <g id="Page-1" stroke="none" stroke-width="1" fill="none" fill-rule="evenodd"> <g id="webpack"> <rect id="Rectangle" x="0" y="0" width="1024" height="1024"></rect> <polygon id="Path" fill="#FFFFFF" fill-rule="nonzero" points="512.5 0 965 255.970766 965 768.029234 512.5 1024 60 768.029234 60 255.970766"></polygon> <path d="M884.20478,750.372045 L527.466408,952.201896 L527.466408,795.041224 L749.740956,672.72719 L884.20478,750.372045 L884.20478,750.372045 Z M908.642119,728.271326 L908.642119,306.252826 L778.153747,381.675916 L778.153747,652.965171 L908.642119,728.271326 L908.642119,728.271326 Z M139.392119,750.372045 L496.130491,952.201896 L496.130491,795.041224 L273.739018,672.72719 L139.392119,750.372045 L139.392119,750.372045 Z M114.95478,728.271326 L114.95478,306.252826 L245.443152,381.675916 L245.443152,652.965171 L114.95478,728.271326 Z M130.271964,278.890031 L496.130491,71.9150394 L496.130491,223.813635 L261.695736,352.792966 L259.824935,353.845381 L130.271964,278.890031 Z M893.324935,278.890031 L527.466408,71.9150394 L527.466408,223.813635 L761.901163,352.676031 L763.771964,353.728446 L893.324935,278.890031 Z" id="Shape" fill="#8ED6FB" fill-rule="nonzero"></path> <path d="M496.130491,759.259107 L276.77907,638.582163 L276.77907,399.68391 L496.130491,526.32454 L496.130491,759.259107 Z M527.466408,759.259107 L746.817829,638.699098 L746.817829,399.68391 L527.466408,526.32454 L527.466408,759.259107 Z M291.628553,372.087244 L511.79845,251.059495 L731.968346,372.087244 L511.79845,499.195615 L291.628553,372.087244 L291.628553,372.087244 Z" id="Shape" fill="#1C78C0" fill-rule="nonzero"></path> </g> </g> </svg> 