<?xml version="1.0" encoding="iso-8859-1"?>
<!-- Generator: Adobe Illustrator 21.0.0, SVG Export Plug-In . SVG Version: 6.00 Build 0)  -->
<svg version="1.1" id="Layer_1" xmlns="http://www.w3.org/2000/svg" xmlns:xlink="http://www.w3.org/1999/xlink" x="0px" y="0px"
	 viewBox="0 0 100.353 100.352" style="enable-background:new 0 0 100.353 100.352;" xml:space="preserve">
<g>
	<path d="M77.315,42.821c0-15-12.204-27.203-27.205-27.203c-14.999,0-27.201,12.203-27.201,27.203S35.112,70.024,50.11,70.024
		C65.11,70.024,77.315,57.821,77.315,42.821z M25.909,42.821c0-13.345,10.856-24.203,24.201-24.203
		c13.347,0,24.205,10.857,24.205,24.203S63.457,67.024,50.11,67.024C36.765,67.024,25.909,56.167,25.909,42.821z"/>
	<path d="M91.712,43.384H88.21C87.543,22.939,70.714,6.51,50.11,6.51c-20.603,0-37.43,16.429-38.097,36.874H8.289
		c-0.829,0-1.5,0.671-1.5,1.5v15.48c0,0.829,0.671,1.5,1.5,1.5H18.61c0.829,0,1.5-0.671,1.5-1.5v-15.48c0-0.829-0.671-1.5-1.5-1.5
		h-3.597C15.678,24.594,31.161,9.51,50.11,9.51c18.95,0,34.435,15.084,35.1,33.874h-3.819c-0.829,0-1.5,0.671-1.5,1.5v15.48
		c0,0.829,0.671,1.5,1.5,1.5h3.953c-0.698,12.835-11.084,23.131-23.955,23.69v-3.886c0-0.829-0.671-1.5-1.5-1.5H44.41
		c-0.829,0-1.5,0.671-1.5,1.5v10.321c0,0.829,0.671,1.5,1.5,1.5h15.479c0.829,0,1.5-0.671,1.5-1.5v-3.435
		c14.526-0.564,26.257-12.2,26.96-26.69h3.364c0.829,0,1.5-0.671,1.5-1.5v-15.48C93.212,44.055,92.541,43.384,91.712,43.384z
		 M17.11,58.864H9.789v-12.48h7.321V58.864z M58.388,90.489H45.909v-7.321h12.479V90.489z M90.212,58.864h-7.321v-12.48h7.321
		V58.864z"/>
</g>
</svg>
