<?xml version="1.0" encoding="UTF-8"?> <svg xmlns="http://www.w3.org/2000/svg" xmlns:xlink="http://www.w3.org/1999/xlink" width="206px" height="48px" viewBox="0 0 206 48"> <title>Senseteq</title> <g id="BrandBook" stroke="none" stroke-width="1" fill="none" fill-rule="evenodd"> <g id="Slide-2" transform="translate(-208.000000, -712.000000)" fill-rule="nonzero"> <g id="Group" transform="translate(128.000000, 514.000000)"> <g id="4" transform="translate(0.000000, 152.000000)"> <g id="Senseteq" transform="translate(80.000000, 46.000000)"> <path d="M9.072,35.56 C12.6186667,35.56 15.344,34.8506667 17.248,33.432 C19.152,32.0133333 20.104,30.016 20.104,27.44 C20.104,23.7813333 17.0426667,20.8506667 10.92,18.648 C9.128,18.0506667 7.756,17.4346667 6.804,16.8 C5.852,16.1653333 5.35733333,15.4746667 5.32,14.728 C5.32,13.7573333 5.77733333,12.9453333 6.692,12.292 C7.60666667,11.6386667 8.77333333,11.312 10.192,11.312 C11.4986667,11.312 12.6933333,11.4706667 13.776,11.788 C14.8586667,12.1053333 16.0533333,12.5626667 17.36,13.16 L17.36,13.16 L19.04,9.52 C17.9573333,8.77333333 16.548,8.15733333 14.812,7.672 C13.076,7.18666667 11.5733333,6.944 10.304,6.944 C7.13066667,6.944 4.62,7.644 2.772,9.044 C0.924,10.444 -2.84217094e-14,12.376 -2.84217094e-14,14.84 C-2.84217094e-14,18.3493333 2.968,21.0746667 8.904,23.016 C12.936,24.2853333 14.952,25.8533333 14.952,27.72 C14.952,28.7653333 14.42,29.6053333 13.356,30.24 C12.292,30.8746667 10.864,31.192 9.072,31.192 C6.75733333,31.192 4.33066667,30.576 1.792,29.344 L1.792,29.344 L0.112,33.096 C1.15733333,33.8426667 2.58533333,34.44 4.396,34.888 C6.20666667,35.336 7.76533333,35.56 9.072,35.56 Z M38.192,35.504 C41.4773333,35.504 44.7626667,34.5146667 48.048,32.536 L48.048,32.536 L46.368,28.616 C44.464,29.512 42.98,30.1373333 41.916,30.492 C40.852,30.8466667 39.6106667,31.024 38.192,31.024 C35.28,31.024 33.0866667,30.2586667 31.612,28.728 C30.1373333,27.1973333 29.288,25.1066667 29.064,22.456 L29.064,22.456 L48.328,22.456 L48.328,21 C48.328,16.8933333 47.3293333,13.524 45.332,10.892 C43.3346667,8.26 40.376,6.944 36.456,6.944 C33.8053333,6.944 31.5,7.54133333 29.54,8.736 C27.58,9.93066667 26.0773333,11.6106667 25.032,13.776 C23.9866667,15.9413333 23.464,18.424 23.464,21.224 C23.464,25.592 24.7333333,29.064 27.272,31.64 C29.8106667,34.216 33.4506667,35.504 38.192,35.504 Z M43.12,18.816 L29.176,18.816 C29.4373333,16.5386667 30.1746667,14.756 31.388,13.468 C32.6013333,12.18 34.2346667,11.536 36.288,11.536 C40.1333333,11.536 42.4106667,13.9626667 43.12,18.816 L43.12,18.816 Z M58.744,34.832 L58.744,15.68 C60.2,14.4106667 61.6746667,13.3746667 63.168,12.572 C64.6613333,11.7693333 66.0426667,11.368 67.312,11.368 C68.992,11.368 70.1586667,11.8813333 70.812,12.908 C71.4653333,13.9346667 71.792,15.4373333 71.792,17.416 L71.792,17.416 L71.792,34.832 L77.168,34.832 L77.168,16.912 C77.168,13.8133333 76.4493333,11.3493333 75.012,9.52 C73.5746667,7.69066667 71.3813333,6.776 68.432,6.776 C66.64,6.776 64.8293333,7.196 63,8.036 C61.1706667,8.876 59.528,9.94933333 58.072,11.256 L58.072,11.256 L57.12,7.672 L53.368,7.672 L53.368,34.832 L58.744,34.832 Z M91.168,35.56 C94.7146667,35.56 97.44,34.8506667 99.344,33.432 C101.248,32.0133333 102.2,30.016 102.2,27.44 C102.2,23.7813333 99.1386667,20.8506667 93.016,18.648 C91.224,18.0506667 89.852,17.4346667 88.9,16.8 C87.948,16.1653333 87.4533333,15.4746667 87.416,14.728 C87.416,13.7573333 87.8733333,12.9453333 88.788,12.292 C89.7026667,11.6386667 90.8693333,11.312 92.288,11.312 C93.5946667,11.312 94.7893333,11.4706667 95.872,11.788 C96.9546667,12.1053333 98.1493333,12.5626667 99.456,13.16 L99.456,13.16 L101.136,9.52 C100.053333,8.77333333 98.644,8.15733333 96.908,7.672 C95.172,7.18666667 93.6693333,6.944 92.4,6.944 C89.2266667,6.944 86.716,7.644 84.868,9.044 C83.02,10.444 82.096,12.376 82.096,14.84 C82.096,18.3493333 85.064,21.0746667 91,23.016 C95.032,24.2853333 97.048,25.8533333 97.048,27.72 C97.048,28.7653333 96.516,29.6053333 95.452,30.24 C94.388,30.8746667 92.96,31.192 91.168,31.192 C88.8533333,31.192 86.4266667,30.576 83.888,29.344 L83.888,29.344 L82.208,33.096 C83.2533333,33.8426667 84.6813333,34.44 86.492,34.888 C88.3026667,35.336 89.8613333,35.56 91.168,35.56 Z M120.288,35.504 C123.573333,35.504 126.858667,34.5146667 130.144,32.536 L130.144,32.536 L128.464,28.616 C126.56,29.512 125.076,30.1373333 124.012,30.492 C122.948,30.8466667 121.706667,31.024 120.288,31.024 C117.376,31.024 115.182667,30.2586667 113.708,28.728 C112.233333,27.1973333 111.384,25.1066667 111.16,22.456 L111.16,22.456 L130.424,22.456 L130.424,21 C130.424,16.8933333 129.425333,13.524 127.428,10.892 C125.430667,8.26 122.472,6.944 118.552,6.944 C115.901333,6.944 113.596,7.54133333 111.636,8.736 C109.676,9.93066667 108.173333,11.6106667 107.128,13.776 C106.082667,15.9413333 105.56,18.424 105.56,21.224 C105.56,25.592 106.829333,29.064 109.368,31.64 C111.906667,34.216 115.546667,35.504 120.288,35.504 Z M125.216,18.816 L111.272,18.816 C111.533333,16.5386667 112.270667,14.756 113.484,13.468 C114.697333,12.18 116.330667,11.536 118.384,11.536 C122.229333,11.536 124.506667,13.9626667 125.216,18.816 L125.216,18.816 Z" id="sense" fill="#253037"></path> <path d="M145.488,35.784 C146.234667,35.784 147.046667,35.6626667 147.924,35.42 C148.801333,35.1773333 149.52,34.9066667 150.08,34.608 L150.08,34.608 L148.68,30.52 C147.597333,30.9306667 146.72,31.136 146.048,31.136 C144.741333,31.136 143.770667,30.716 143.136,29.876 C142.501333,29.036 142.184,27.888 142.184,26.432 L142.184,26.432 L142.184,12.096 L148.792,12.096 L147.112,8.008 L142.184,8.008 L142.184,-2.27373675e-13 L136.808,1.232 L136.808,8.008 L132.944,8.008 L133,12.096 L136.808,12.096 L136.808,27.272 C136.808,29.9973333 137.582667,32.0973333 139.132,33.572 C140.681333,35.0466667 142.8,35.784 145.488,35.784 Z M167.608,35.504 C170.893333,35.504 174.178667,34.5146667 177.464,32.536 L177.464,32.536 L175.784,28.616 C173.88,29.512 172.396,30.1373333 171.332,30.492 C170.268,30.8466667 169.026667,31.024 167.608,31.024 C164.696,31.024 162.502667,30.2586667 161.028,28.728 C159.553333,27.1973333 158.704,25.1066667 158.48,22.456 L158.48,22.456 L177.744,22.456 L177.744,21 C177.744,16.8933333 176.745333,13.524 174.748,10.892 C172.750667,8.26 169.792,6.944 165.872,6.944 C163.221333,6.944 160.916,7.54133333 158.956,8.736 C156.996,9.93066667 155.493333,11.6106667 154.448,13.776 C153.402667,15.9413333 152.88,18.424 152.88,21.224 C152.88,25.592 154.149333,29.064 156.688,31.64 C159.226667,34.216 162.866667,35.504 167.608,35.504 Z M172.536,18.816 L158.592,18.816 C158.853333,16.5386667 159.590667,14.756 160.804,13.468 C162.017333,12.18 163.650667,11.536 165.704,11.536 C169.549333,11.536 171.826667,13.9626667 172.536,18.816 L172.536,18.816 Z M205.968,47.712 L205.968,7.672 L202.888,7.672 L201.712,9.464 C200.592,8.64266667 199.378667,8.01733333 198.072,7.588 C196.765333,7.15866667 195.626667,6.944 194.656,6.944 C191.968,6.944 189.597333,7.532 187.544,8.708 C185.490667,9.884 183.904,11.536 182.784,13.664 C181.664,15.792 181.104,18.256 181.104,21.056 C181.104,23.968 181.645333,26.516 182.728,28.7 C183.810667,30.884 185.369333,32.5733333 187.404,33.768 C189.438667,34.9626667 191.837333,35.56 194.6,35.56 C195.384,35.56 196.317333,35.392 197.4,35.056 C198.482667,34.72 199.528,34.2533333 200.536,33.656 L200.536,33.656 L200.536,47.712 L205.968,47.712 Z M194.6,30.968 C192.061333,30.968 190.092,30.0533333 188.692,28.224 C187.292,26.3946667 186.592,23.9866667 186.592,21 C186.592,18.2373333 187.301333,15.9693333 188.72,14.196 C190.138667,12.4226667 192.098667,11.536 194.6,11.536 C195.794667,11.536 196.868,11.704 197.82,12.04 C198.772,12.376 199.677333,12.9173333 200.536,13.664 L200.536,13.664 L200.536,28.672 C199.677333,29.456 198.781333,30.0346667 197.848,30.408 C196.914667,30.7813333 195.832,30.968 194.6,30.968 Z" id="teq" fill="#2DB867"></path> </g> </g> </g> </g> </g> </svg> 