<svg width="24" height="24" viewBox="0 0 24 24" fill="none" xmlns="http://www.w3.org/2000/svg">
<g opacity="0.8">
<path fill-rule="evenodd" clip-rule="evenodd" d="M15.2465 16.3072C13.9536 17.3652 12.301 18 10.5 18C6.35786 18 3 14.6421 3 10.5C3 6.35786 6.35786 3 10.5 3C14.6421 3 18 6.35786 18 10.5C18 12.301 17.3652 13.9536 16.3072 15.2465L20.5303 19.4697C20.8232 19.7626 20.8232 20.2374 20.5303 20.5303C20.2374 20.8232 19.7626 20.8232 19.4697 20.5303L15.2465 16.3072ZM7.61655 5.32222C8.35475 4.94608 9.1715 4.75 10 4.75C10.4142 4.75 10.75 5.08579 10.75 5.5C10.75 5.91421 10.4142 6.25 10 6.25C9.40821 6.25 8.82482 6.39006 8.29754 6.65873C7.77025 6.92739 7.31403 7.31704 6.96619 7.7958C6.61834 8.27457 6.38875 8.82887 6.29617 9.41337C6.20359 9.99787 6.25067 10.596 6.43354 11.1588C6.56154 11.5528 6.34595 11.9759 5.95201 12.1039C5.55807 12.2319 5.13495 12.0163 5.00695 11.6223C4.75093 10.8344 4.68503 9.99702 4.81464 9.17872C4.94424 8.36041 5.26568 7.5844 5.75266 6.91413C6.23964 6.24385 6.87835 5.69835 7.61655 5.32222Z" fill="#808080"/>
</g>
</svg>
