<svg width="24" height="24" viewBox="0 0 24 24" fill="none" xmlns="http://www.w3.org/2000/svg">
<path fill-rule="evenodd" clip-rule="evenodd" d="M2.70413 14.7041L9.29588 21.2959C10.237 22.237 11.763 22.237 12.7041 21.2959L21.4142 12.5858C21.7893 12.2107 22 11.702 22 11.1716V5.41421C22 5.149 21.8946 4.89464 21.7071 4.70711L19.2929 2.29289C19.1054 2.10536 18.851 2 18.5858 2H12.8284C12.298 2 11.7893 2.21071 11.4142 2.58579L2.70413 11.2959C1.76297 12.237 1.76297 13.763 2.70413 14.7041ZM17 9C18.1046 9 19 8.10457 19 7C19 5.89543 18.1046 5 17 5C15.8954 5 15 5.89543 15 7C15 8.10457 15.8954 9 17 9Z" fill="#808080"/>
</svg>
