<?xml version="1.0" encoding="UTF-8"?> <svg xmlns="http://www.w3.org/2000/svg" xmlns:xlink="http://www.w3.org/1999/xlink" width="1024px" height="1024px" viewBox="0 0 1024 1024"> <title>d3</title> <defs> <path d="M0,1.13686838e-13 L82.6652832,1.13686838e-13 C350.702996,1.13686838e-13 567.990494,217.365754 567.990494,485.5 C567.990494,753.634246 350.702996,971 82.6652832,971 L0,971 L0,757.593407 L82.6652832,757.593407 C232.884221,757.593407 354.660731,635.773039 354.660731,485.5 C354.660731,335.226961 232.884221,213.406593 82.6652832,213.406593 L0,213.406593 L0,1.13686838e-13 Z M386.670862,0 L727.998483,0 C842.812384,0 947.26993,66.4180012 996.006225,170.412189 C1044.74252,274.406378 1028.96486,397.213649 955.525342,485.5 C1028.96486,573.786351 1044.74252,696.593622 996.006225,800.587811 C947.26993,904.581999 842.812384,971 727.998483,971 L386.670862,971 C470.659837,918.371102 539.558263,844.838861 586.629116,757.593407 L727.987816,757.593407 C757.521278,757.593407 784.811323,741.831819 799.578054,716.24588 C814.344785,690.65994 814.344785,659.136763 799.578054,633.550823 C784.811323,607.964884 757.521278,592.203296 727.987816,592.203297 L645.322533,592.203297 C658.6841,521.695652 658.6841,449.304348 645.322533,378.796703 L727.987816,378.796703 C757.521278,378.796704 784.811322,363.035116 799.578053,337.449176 C814.344784,311.863237 814.344784,280.34006 799.578053,254.75412 C784.811322,229.168181 757.521278,213.406593 727.987816,213.406593 L586.629116,213.406593 C539.558263,126.161139 470.659837,52.628898 386.670862,0 L386.670862,0 Z" id="path-1"></path> <linearGradient x1="45.0035995%" y1="55.3333333%" x2="59.3266142%" y2="69.6666667%" id="linearGradient-3"> <stop stop-color="#F9A03C" offset="0%"></stop> <stop stop-color="#F7974E" offset="100%"></stop> </linearGradient> <linearGradient x1="39.007919%" y1="30.6666667%" x2="59.9928009%" y2="51.6666667%" id="linearGradient-4"> <stop stop-color="#B84E51" offset="0%"></stop> <stop stop-color="#F68E48" offset="100%"></stop> </linearGradient> <linearGradient x1="34.0115185%" y1="33.3333333%" x2="62.3244545%" y2="62%" id="linearGradient-5"> <stop stop-color="#F26D58" offset="0%"></stop> <stop stop-color="#F9A03C" offset="100%"></stop> </linearGradient> </defs> <g id="Page-1" stroke="none" stroke-width="1" fill="none" fill-rule="evenodd"> <g id="d3"> <rect id="Rectangle" x="0" y="0" width="1024" height="1024"></rect> <g transform="translate(0.000000, 27.000000)"> <mask id="mask-2" fill="white"> <use xlink:href="#path-1"></use> </mask> <g id="Shape"></g> <g id="Group" mask="url(#mask-2)"> <g transform="translate(-1365.310484, -1088.373626)" id="Path"> <polygon stroke="none" fill="url(#linearGradient-3)" fill-rule="nonzero" points="0 0 0 3201.0989 3199.94645 3201.0989"></polygon> <polygon stroke="none" fill="url(#linearGradient-4)" fill-rule="nonzero" points="597.323337 0 3797.26978 0 3797.26978 3201.0989"></polygon> <line x1="298.661668" y1="0" x2="3498.60811" y2="3201.0989" stroke="url(#linearGradient-5)" stroke-width="426.659526" fill="none"></line> </g> </g> </g> </g> </g> </svg> 