<?xml version="1.0" encoding="UTF-8"?> <svg xmlns="http://www.w3.org/2000/svg" xmlns:xlink="http://www.w3.org/1999/xlink" width="1024px" height="1024px" viewBox="0 0 1024 1024"> <title>elasticsearch</title> <g id="Page-1" stroke="none" stroke-width="1" fill="none" fill-rule="evenodd"> <g id="elasticsearch"> <rect id="Rectangle" x="0" y="0" width="1024" height="1024"></rect> <g id="elastic-search-logo-color-64px"> <rect id="bounding-box" x="0" y="0" width="1024" height="1024"></rect> <g id="group" transform="translate(60.000000, 0.000000)" fill-rule="nonzero"> <path d="M904.943115,184.089035 L905,183.97526 C811.08233,71.5648969 669.892955,0 511.960333,0 C310.984483,0 137.142932,115.899483 53.3508494,284.439177 L720.653626,284.439177 C768.532107,284.439177 815.14015,267.941705 851.774298,237.108498 C870.81192,221.085091 888.617027,203.639488 904.943115,184.089035" id="Fill-1" fill="#FEC514"></path> <path d="M0,512 C0,557.927446 6.14361502,602.39477 17.4827563,644.738283 L644.700341,644.738283 C718.006562,644.738283 777.432764,585.309457 777.432764,512 C777.432764,438.690543 718.006562,379.261717 644.700341,379.261717 L17.4827563,379.261717 C6.14361502,421.60523 0,466.072554 0,512" id="Fill-4" fill="#343741"></path> <path d="M904.943115,839.910965 L905,840.02474 C811.08233,952.435103 669.892955,1024 511.960333,1024 C310.984483,1024 137.142932,908.100517 53.3508494,739.560823 L720.653626,739.560823 C768.532107,739.560823 815.14015,756.058295 851.774298,786.891502 C870.81192,802.914909 888.617027,820.360512 904.943115,839.910965" id="Fill-6" fill="#00BFB3"></path> </g> </g> </g> </g> </svg> 