<?xml version="1.0" encoding="UTF-8"?> <svg xmlns="http://www.w3.org/2000/svg" xmlns:xlink="http://www.w3.org/1999/xlink" width="1024px" height="1025px" viewBox="0 0 1024 1025"> <title>git</title> <g id="Page-1" stroke="none" stroke-width="1" fill="none" fill-rule="evenodd"> <g id="git"> <rect id="Rectangle" x="0" y="1" width="1024" height="1024"></rect> <path d="M1004.69347,466.390984 L557.57831,19.312699 C531.852448,-6.43756633 490.093537,-6.43756633 464.335317,19.312699 L371.496791,112.163942 L489.259437,229.931317 C516.636421,220.68754 548.015825,226.885293 569.82825,248.702908 C591.753925,270.656429 597.907208,302.304951 588.431907,329.774717 L701.934174,443.281541 C729.393849,433.818445 761.076153,439.932245 783.002727,461.89853 C813.657686,492.545732 813.657686,542.206316 783.002727,572.861608 C752.343273,603.526787 702.684684,603.526787 672.008153,572.861608 C648.958061,549.792613 643.256882,515.923931 654.93158,487.522956 L549.078223,381.665349 L549.069235,660.228066 C556.542876,663.927914 563.595872,668.866018 569.823756,675.067186 C600.469727,705.710793 600.469727,755.362389 569.823756,786.05723 C539.168796,816.699938 489.487736,816.699938 458.865134,786.05723 C428.214668,755.365085 428.214668,705.71349 458.865134,675.067186 C466.439891,667.505608 475.204678,661.782178 484.556841,657.945885 L484.556841,376.794478 C475.200184,372.974364 466.445733,367.29363 458.859741,359.671379 C435.643368,336.472051 430.051845,302.396634 441.958437,273.885999 L325.867586,157.772508 L19.3179904,464.325426 C-6.43933015,490.095466 -6.43933015,531.856054 19.3179904,557.608117 L466.406185,1004.6873 C492.146429,1030.43757 533.890959,1030.43757 559.667154,1004.6873 L1004.68808,559.720415 C1030.43731,533.957566 1030.43731,492.184394 1004.68808,466.428736" id="Path" fill="#F05133" fill-rule="nonzero"></path> </g> </g> </svg> 