<?xml version="1.0" encoding="UTF-8"?> <svg xmlns="http://www.w3.org/2000/svg" xmlns:xlink="http://www.w3.org/1999/xlink" width="1024px" height="1024px" viewBox="0 0 1024 1024"> <title>google cloud</title> <g id="Page-1" stroke="none" stroke-width="1" fill="none" fill-rule="evenodd"> <g id="google-cloud"> <rect id="Rectangle" x="0" y="0" width="1024" height="1024"></rect> <g id="google" transform="translate(0.000000, 100.000000)" fill-rule="nonzero"> <path d="M649.766308,226.908168 L680.997192,226.908168 L770.005211,137.907827 L774.377535,100.121718 C670.713472,8.63202985 527.151888,-22.8486409 394.711646,16.8672949 C262.271405,56.5832306 159.729001,161.865112 123.525915,295.297903 C133.441807,291.233914 144.426074,290.574914 154.756799,293.424212 L332.772837,264.069713 C332.772837,264.069713 341.829793,249.080182 346.514426,250.017028 C425.70042,163.057971 558.963568,152.923724 650.390926,226.908168 L649.766308,226.908168 Z" id="Path" fill="#EA4335"></path> <path d="M896.802599,295.297903 C876.343667,219.964049 834.337986,152.239802 775.939079,100.434 L651.015543,225.346758 C703.766526,268.445562 733.814213,333.370596 732.52815,401.473748 L732.52815,423.645762 C793.932244,423.645762 843.710097,473.419321 843.710097,534.818117 C843.710097,596.216914 793.932244,645.990473 732.52815,645.990473 L510.164257,645.990473 L487.99033,668.474769 L487.99033,801.819139 L510.164257,823.991153 L732.52815,823.991153 C860.023232,824.98368 973.126129,742.371982 1010.95517,620.624756 C1048.78421,498.877529 1002.41304,366.722936 896.802599,295.297903 Z" id="Path" fill="#4285F4"></path> <path d="M287.488055,822.742026 L509.851948,822.742026 L509.851948,644.741345 L287.488055,644.741345 C271.645635,644.737844 255.988993,641.32989 241.578656,634.748324 L210.347772,644.429063 L120.715136,733.429404 L112.907415,764.657593 C163.171394,802.609431 224.504062,823.01532 287.488055,822.742026 L287.488055,822.742026 Z" id="Path" fill="#34A853"></path> <path d="M287.488055,245.330959 C163.972502,246.070566 54.559446,325.165894 15.1402471,442.214598 C-24.2789518,559.263301 14.9980472,688.425238 112.907415,763.720747 L241.890965,634.748324 C196.825804,614.389778 170.624413,566.716251 177.595923,517.763261 C184.567434,468.810271 223.036059,430.344965 271.993272,423.374056 C320.950485,416.403147 368.628125,442.602277 388.988428,487.663551 L517.971978,358.691128 C463.09267,286.952868 377.814689,245.010813 287.488055,245.330959 Z" id="Path" fill="#FBBC05"></path> </g> </g> </g> </svg> 