<?xml version="1.0" encoding="UTF-8"?> <svg xmlns="http://www.w3.org/2000/svg" xmlns:xlink="http://www.w3.org/1999/xlink" width="1024px" height="1024px" viewBox="0 0 1024 1024"> <title>heroku</title> <g id="Page-1" stroke="none" stroke-width="1" fill="none" fill-rule="evenodd"> <g id="heroku"> <rect id="Rectangle" x="0" y="0" width="1024" height="1024"></rect> <path d="M879.844011,0 L145.155989,0 C93.9582173,0 53,40.96 53,92.16 L53,931.84 C53,983.04 93.9582173,1024 145.155989,1024 L879.844011,1024 C931.041783,1024 972,983.04 972,931.84 L972,92.16 C972,40.96 931.041783,0 879.844011,0 Z M920.802228,931.84 C920.802228,954.88 902.883008,972.8 879.844011,972.8 L145.155989,972.8 C122.116992,972.8 104.197772,954.88 104.197772,931.84 L104.197772,92.16 C104.197772,69.12 122.116992,51.2 145.155989,51.2 L879.844011,51.2 C902.883008,51.2 920.802228,69.12 920.802228,92.16 L920.802228,931.84 L920.802228,931.84 Z M283.389972,870.4 L398.584958,768 L283.389972,665.6 L283.389972,870.4 Z M698.091922,455.68 C677.612813,435.2 639.214485,409.6 575.21727,409.6 C506.100279,409.6 434.423398,427.52 383.225627,445.44 L383.225627,153.6 L280.830084,153.6 L280.830084,596.48 L352.506964,563.2 C352.506964,563.2 470.261838,509.44 572.657382,509.44 C623.855153,509.44 636.654596,537.6 636.654596,563.2 L636.654596,870.4 L739.050139,870.4 L739.050139,563.2 C741.610028,555.52 741.610028,499.2 698.091922,455.68 Z M562.417827,320 L664.81337,320 C710.891365,266.24 733.930362,212.48 741.610028,153.6 L639.214485,153.6 C628.97493,212.48 603.376045,266.24 562.417827,320 Z" id="logo" fill="#430098" fill-rule="nonzero"></path> </g> </g> </svg> 