<?xml version="1.0" encoding="UTF-8"?> <svg xmlns="http://www.w3.org/2000/svg" xmlns:xlink="http://www.w3.org/1999/xlink" width="1024px" height="1024px" viewBox="0 0 1024 1024"> <title>less</title> <g id="Page-1" stroke="none" stroke-width="1" fill="none" fill-rule="evenodd"> <g id="less"> <rect id="Rectangle" x="0" y="0" width="1024" height="1024"></rect> <path d="M43.6540714,571.273506 C43.6540714,553.803429 32.428745,535.085492 0,533.837608 L0,490.162416 C32.428745,488.914555 43.6540714,470.196605 43.6540714,452.726528 C43.6540714,421.529923 38.665031,401.564124 38.665031,365.376075 C38.665031,310.470088 58.6211925,293 103.522544,293 L223.259432,293 L223.259432,332.931632 L125.973208,332.931632 C104.769778,332.931632 98.5335038,340.41881 98.5335038,367.871786 C98.5335038,395.324796 101.028007,420.282074 101.028007,450.230772 C101.028007,488.914543 88.5554116,503.888909 63.6102213,510.128203 L63.6102213,512.623948 C88.5554116,518.863264 101.028007,533.837608 101.028007,572.521367 C101.028007,603.717938 98.5335038,627.427343 98.5335038,654.88033 C98.5335038,682.333318 104.769778,691.068391 125.973208,691.068391 L135.951289,691.068391 L135.951289,729.752127 L103.522544,729.752127 C58.6211925,729.752127 38.665031,712.282062 38.665031,657.376087 C38.665031,621.188061 43.6540714,602.470111 43.6540714,571.273506 Z M149.671118,296.743594 L224.506712,296.743594 L224.506712,577.512823 C224.506712,593.73505 231.990244,598.726494 238.226542,598.726494 C240.721056,598.726494 243.215593,598.726494 246.957365,597.478644 L255.688154,652.384608 C246.957365,656.128191 234.484758,658.623913 218.27038,658.623913 C167.132742,658.623913 149.671118,624.931621 149.671118,573.769228 L149.671118,296.743594 Z M360.457967,394.076924 C431.551743,394.076924 467.722294,446.487201 467.722294,515.119658 C467.722294,528.846152 466.475037,540.076924 465.227757,546.316263 L311.814844,546.316263 C318.051153,584.999988 344.2436,601.222239 377.919602,601.222239 C396.628507,601.222239 414.090142,596.230783 432.799012,584.999988 L457.744214,629.923076 C431.551743,647.393141 397.875752,658.623936 367.941533,658.623936 C295.600477,658.623936 240.721056,609.957254 240.721056,526.350453 C239.47381,445.239328 299.342272,394.076924 360.457967,394.076924 L360.457967,394.076924 Z M404.112038,500.145315 C404.112038,471.444455 391.639466,450.230772 361.705224,450.230772 C338.007279,450.230772 318.051153,466.453011 313.062124,500.145315 L404.112038,500.145315 Z M510.129085,577.512823 C532.579773,594.982899 553.783168,603.717938 574.986587,603.717938 C597.437263,603.717938 607.41532,594.982899 607.41532,582.504278 C607.41532,566.282051 582.47013,557.547024 556.277706,547.564113 C526.343475,536.333353 490.172982,515.119658 490.172982,473.940188 C490.172982,427.76924 528.83799,395.324796 586.211913,395.324796 C624.876944,395.324796 653.563929,411.547035 674.767336,427.76924 L641.091323,472.692316 C622.382441,458.965833 606.168075,451.478644 587.459182,451.478644 C568.750289,451.478644 558.772209,458.965833 558.772209,471.444478 C558.772209,487.666671 582.47013,493.905998 608.662589,503.888909 C641.091323,515.119658 677.261851,533.837608 677.261851,580.008568 C677.261851,626.179505 641.091323,661.119658 573.73933,661.119658 C541.310585,661.119658 502.645542,647.393164 477.700352,626.179505 L510.129085,577.512823 Z M713.432391,577.512823 C735.883032,594.982899 757.086462,603.717938 778.289881,603.717938 C800.740545,603.717938 810.718614,594.982899 810.718614,582.504278 C810.718614,566.282051 785.773412,557.547024 759.580965,547.564113 C729.646746,536.333353 693.476206,515.119658 693.476206,473.940188 C693.476206,427.76924 732.141272,395.324796 789.515172,395.324796 C828.18025,395.324796 856.867188,411.547035 878.070595,427.76924 L844.394616,472.692316 C825.685712,458.965833 809.471357,451.478644 790.762441,451.478644 C772.05356,451.478644 762.075479,458.965833 762.075479,471.444478 C762.075479,487.666671 785.773412,493.905998 810.718614,503.888909 C843.147371,515.119658 879.317864,533.837608 879.317864,580.008568 C879.317864,626.179505 843.147371,661.119658 775.795343,661.119658 C743.36661,661.119658 704.701567,647.393164 679.756388,626.179505 L713.432391,577.512823 Z M898.026734,689.820518 C919.230152,689.820518 925.466427,682.333329 925.466427,653.632492 C925.466427,626.179505 922.971959,601.222239 922.971959,571.273506 C922.971959,532.589758 935.444531,517.61538 960.389802,511.376075 L960.389802,508.880365 C935.444531,502.641025 922.971959,487.666671 922.971959,448.982946 C922.971959,419.034213 925.466427,392.829098 925.466427,366.623936 C925.466427,339.170925 920.477467,331.68376 898.026734,331.68376 L888.048699,331.68376 L888.048699,293 L920.477467,293 C965.378727,293 985.335107,310.470088 985.335107,365.376064 C985.335107,400.316252 980.34594,420.282062 980.34594,452.726517 C980.34594,470.196594 991.57122,488.914531 1024,490.162404 L1024,533.837608 C991.57122,535.085457 980.34594,553.803406 980.34594,571.273495 C980.34594,603.717938 985.335107,622.435887 985.335107,658.623948 C985.335107,713.529923 965.378738,731 920.477467,731 L888.048699,731 L888.048699,691.068403 L898.026734,689.820518 Z" id="path2" fill="#214674" fill-rule="nonzero"></path> </g> </g> </svg> 