<?xml version="1.0" encoding="UTF-8"?> <svg xmlns="http://www.w3.org/2000/svg" xmlns:xlink="http://www.w3.org/1999/xlink" width="1024px" height="1025px" viewBox="0 0 1024 1025"> <title>mongo</title> <g id="Page-1" stroke="none" stroke-width="1" fill="none" fill-rule="evenodd"> <g id="mongo" transform="translate(0.000000, 0.000000)"> <rect id="Rectangle" x="0" y="-2.27373675e-13" width="1024" height="1024"></rect> <path d="M733.80605,408.506968 C679.816185,170.521489 567.287341,107.166753 538.582083,62.3815079 C526.745337,42.6525124 516.259554,22.145076 507.196727,1 C505.680356,22.1417363 502.894465,35.4610302 484.909598,51.4935136 C448.798806,83.6641891 295.433735,208.541378 282.526948,478.944186 C270.501773,731.059392 468.017929,886.521627 494.113618,902.589347 C514.179087,912.45549 538.617348,902.800764 550.53673,893.745054 C645.750731,828.452324 775.841269,654.385362 733.911844,408.506968" id="Path" fill="#10AA50" fill-rule="nonzero"></path> <path d="M515.378078,768.339321 C510.405792,830.742679 506.844083,867.000757 494.219411,902.659819 C494.219411,902.659819 502.506556,962.068098 508.325189,1025 L528.919625,1025 C533.832083,980.68411 541.332691,936.693007 551.383077,893.251746 C524.723156,880.14387 516.400747,823.096418 515.378078,768.339321 Z" id="Path" fill="#B8C4C2" fill-rule="nonzero"></path> <path d="M551.347812,893.286983 L551.347812,893.286983 C524.405776,880.848594 516.612334,822.603111 515.413343,768.339321 C522.07621,678.827277 524.018442,589.026816 521.231976,499.310726 C519.821398,452.235126 521.902001,63.2976498 509.629974,6.35590654 C518.024714,25.6414959 527.696864,44.3464261 538.582083,62.3462716 C567.287341,107.166753 679.85145,170.521489 733.80605,408.506968 C775.841269,653.962527 646.45602,827.571419 551.347812,893.286983 Z" id="Path" fill="#12924F" fill-rule="nonzero"></path> </g> </g> </svg> 