<?xml version="1.0" encoding="UTF-8"?> <svg xmlns="http://www.w3.org/2000/svg" xmlns:xlink="http://www.w3.org/1999/xlink" width="39px" height="34px" viewBox="0 0 39 34"> <title>logo_symbol</title> <g id="Page-1" stroke="none" stroke-width="1" fill="none" fill-rule="evenodd"> <g id="logo_symbol" transform="translate(0.000000, 0.000000)" fill-rule="nonzero"> <path d="M28.89,33.3201382 L19.82,17.5501382 C19.7426842,17.4320028 19.611186,17.360618 19.47,17.3601382 C19.3273526,17.3546426 19.193101,17.427522 19.12,17.5501382 L10.05,33.3301382 C9.99665747,33.402453 9.96854972,33.4902897 9.96984739,33.5801382 C9.96407372,33.7991924 10.1314473,33.9841842 10.35,34.0001382 L28.59,34.0001382 C28.6961338,33.9949645 28.7958475,33.9477735 28.8671387,33.868978 C28.9384298,33.7901825 28.975439,33.6862588 28.97,33.5801382 C28.9707946,33.4872938 28.9428508,33.3964764 28.89,33.3201382 L28.89,33.3201382 Z" id="Path" fill="#00338D"></path> <path d="M28.59,0 L10.35,0 C10.1314473,0.0160922914 9.96407372,0.201084101 9.96984739,0.420138226 C9.97060979,0.509670071 9.99851866,0.596885276 10.05,0.670138226 L19.1,16.4301382 C19.1776385,16.5605215 19.3182519,16.6403291 19.47,16.640159 C19.6169082,16.6416497 19.7522004,16.5604744 19.82,16.4301382 L19.82,16.4301382 L28.89,0.680138226 C28.9536068,0.607514625 28.992172,0.516360545 29,0.420138226 C29.0056089,0.308871289 28.9645597,0.200306355 28.8867369,0.12058551 C28.8089142,0.0408646642 28.7013698,-0.0027882579 28.59,0 Z" id="Path" fill="#00BEE2"></path> <path d="M27.16,5.78013823 L27.09,5.78013823 C27.0157394,5.78013823 26.9445203,5.80963814 26.8920101,5.86214833 C26.8394999,5.91465851 26.81,5.98587761 26.81,6.06013823 C26.8106334,6.17563441 26.8821185,6.27889071 26.99,6.32013823 C31.11,7.74013823 33.85,10.2301382 33.85,13.0701382 C33.85,16.6001382 29.6,19.6001382 23.71,20.6601382 C23.6282808,20.6755699 23.5588746,20.7291624 23.5232735,20.8043204 C23.4876723,20.8794784 23.4901726,20.9671318 23.53,21.0401382 C24.02,22.0401382 24.62,23.1201382 25.21,24.1501382 C25.95,25.4401382 26.69,26.6601382 27.41,27.8001382 C27.4881965,27.9236705 27.6238028,27.9990073 27.77,28.0001382 L27.88,28.0001382 C34.38,26.0001382 38.88,21.8501382 38.88,17.0001382 C38.86,12.0001382 34,7.68013823 27.16,5.78013823 Z" id="Path" fill="#FF7D00"></path> <path d="M11.7,28.1101382 L11.77,28.1101382 C11.920721,28.1047519 12.0400962,27.9809554 12.04,27.8301382 C12.0423383,27.7137257 11.9697852,27.6089268 11.86,27.5701382 C7.74,26.1501382 5,23.6701382 5,20.8301382 C5,17.2901382 9.25,14.2901382 15.13,13.2401382 C15.2553521,13.2116099 15.3432053,13.0986557 15.34,12.9701382 C15.3502815,12.9341923 15.3502815,12.8960841 15.34,12.8601382 C14.85,11.8601382 14.25,10.7701382 13.66,9.75013823 C12.92,8.45013823 12.18,7.24013823 11.45,6.10013823 C11.3779093,5.97526021 11.2441871,5.89884749 11.1,5.90012213 L11,5.90012213 C4.51,7.90013823 0,12.0601382 0,16.9001382 C0,21.9101382 4.81,26.2001382 11.7,28.1101382 Z" id="Path" fill="#FF7D00"></path> </g> </g> </svg> 