<?xml version="1.0" encoding="UTF-8"?> <svg xmlns="http://www.w3.org/2000/svg" xmlns:xlink="http://www.w3.org/1999/xlink" width="1024px" height="1024px" viewBox="0 0 1024 1024"> <title>openapi</title> <g id="Page-1" stroke="none" stroke-width="1" fill="none" fill-rule="evenodd"> <g id="openapi"> <rect id="Rectangle" x="0" y="0" width="1024" height="1024"></rect> <path d="M270.577349,588.677411 L0.41595288,588.677411 L0.575934757,592.629071 L1.0398822,600.244416 L1.23186045,603.492137 L1.96777709,612.291381 L2.14375715,614.259212 L3.19963754,623.986376 L3.29562667,624.930295 L4.67147081,635.393396 C7.79111741,657.055534 12.44659,678.3977 18.6538869,699.355899 L18.749876,699.627876 L21.9815099,710.042981 L22.15749,710.618931 L25.1331529,719.466171 L25.9170641,721.68998 L28.7007487,729.337323 L30.0126001,732.793026 L32.476321,739.192476 L34.4280999,743.944067 L36.4918662,748.887642 L39.2275563,754.903126 L40.827375,758.566811 L44.1869944,765.766192 L45.3068676,768.069994 L49.3544091,776.245291 L49.9943366,777.493184 L54.9377766,786.868378 L55.993657,788.692222 L287.487433,648.992227 C278.456845,629.993636 272.74822,609.588127 270.609345,588.661412 L270.577349,588.677411 Z M13.1825067,712.650757 L13.2624976,712.890736 L21.9815099,710.154971 L13.1825067,712.650757 Z" id="Shape" fill="#93D500"></path> <path d="M336.969828,712.778746 L145.935468,903.818328 L148.895133,906.538094 L157.054209,913.785472 L163.453484,919.288999 L165.213284,920.744873 L172.636444,926.728359 L173.596335,927.480295 L181.771409,933.751756 C181.883396,933.81575 181.979385,933.895743 182.075374,933.975736 L217.68734,958.037669 L218.967195,958.821601 L225.974401,962.965245 L230.277914,965.413035 L234.357452,967.700838 L241.796609,971.716493 L242.836491,972.260446 L263.890106,982.483568 L366.69446,732.74503 C356.104414,727.09458 346.094841,720.417776 336.809846,712.810743 L336.969828,712.778746 Z" id="Path" fill="#4D5A31"></path> <polygon id="Path" fill="#6BA43A" points="317.164071 693.820375 311.228744 686.828976 306.301302 680.461523 301.0219 672.990165 296.07846 665.278828 65.032633 804.450868 76.9352847 823.137262 77.8951759 824.545141 77.9431705 824.641132 90.3577642 842.143628 90.9017025 842.879565 96.5170664 850.190937 103.252303 858.558218 104.69214 860.382061 110.211515 866.893501 112.64324 869.661263 117.426698 875.148792 120.14639 878.092539 121.37825 879.420425 125.041835 883.260095 126.49767 884.763966 132.896945 891.307403 323.483355 700.715782 317.244062 694.044356"></polygon> <path d="M569.791453,712.682754 L563.424175,717.626329 L563.90412,718.42626 L702.864379,949.094437 L721.870226,936.007562 C735.452687,925.976424 748.475212,915.225348 760.873807,903.770332 L570.543368,713.450688 L569.791453,712.682754 Z" id="Path" fill="#4D5A31"></path> <polygon id="Shape" fill="#93D500" points="685.602334 959.797517 687.426128 958.885596 687.394131 958.821601 685.602334 959.893509"></polygon> <polygon id="Path" fill="#93D500" points="685.10639 960.165486 685.154385 960.149487 685.138387 960.149487"></polygon> <path d="M685.602334,959.909508 L687.410129,958.885596 L685.602334,959.909508 Z" id="Shape" fill="#93D500"></path> <path d="M685.026399,960.22948 L684.978405,960.261478 L685.026399,960.22948 Z" id="Path" fill="#93D500"></path> <path d="M682.658668,950.998274 L548.241894,727.961441 L540.258799,732.409059 L532.067727,736.520705 C507.414519,748.247697 480.457573,754.343174 453.164665,754.375171 C435.390678,754.375171 417.712681,751.799392 400.674611,746.711829 L392.03559,743.672091 L383.412567,740.616353 L280.800191,989.842935 L281.552105,990.114912 L282.336017,990.418886 L282.352015,990.418886 L282.559991,990.514878 L302.25376,998.05023 C332.234364,1008.62532 363.238852,1016.04868 394.755282,1020.19233 L398.450863,1020.68828 L409.617598,1021.90418 L411.425393,1022.06417 L420.384378,1022.8161 L423.424034,1023.00809 L431.263146,1023.45605 L436.062602,1023.64803 L442.301895,1023.87201 L453.436634,1024 C478.652263,1024 503.82416,1021.90155 528.692109,1017.72854 L529.955966,1017.55255 L537.859071,1016.11268 L542.434552,1015.24875 L547.058029,1014.27284 L554.753157,1012.57698 L556.144999,1012.25701 C593.977602,1003.43005 630.525987,989.800642 664.900679,971.700494 L664.900679,971.684496 L671.571923,968.036809 L685.122388,960.389467 L684.898414,959.749522 L685.234376,960.325472 L685.666327,960.069494 L687.442126,958.997586 L682.658668,950.998274 Z M337.081815,428.275195 L343.449094,423.347619 L342.969148,422.547687 L204.024888,191.959503 L184.971046,205.094375 C171.532569,214.981525 158.526042,225.716602 146.015459,237.283608 L336.345898,427.52326 L337.081815,428.275195 Z" id="Shape" fill="#93D500"></path> <path d="M132.832953,249.858528 L120.178386,263.073392 C106.115979,278.288085 93.2694343,294.158721 81.6707482,310.781292 L80.0069367,313.165087 L76.1353753,318.876597 L72.1998211,324.876081 L70.7759824,327.067893 C27.822941,394.556797 3.53859485,472.23129 0.399954693,552.168548 L0.159981877,561.303763 L0,570.438978 L269.537466,570.438978 L269.969418,561.303763 L270.48136,552.168548 C274.017288,516.143686 288.165088,481.978683 311.132754,454.000984 C312.956548,451.665185 315.212292,449.473373 317.276059,447.201569 L323.403364,440.418152 L132.832953,249.858528 Z M688.977952,182.952278 L687.858079,182.280335 L680.706889,178.024701 L676.531362,175.640906 L672.323838,173.305107 L665.012667,169.353446 L663.860797,168.745498 C648.086584,160.522205 631.848423,153.194835 615.258303,146.811383 L613.978448,146.315426 L603.003691,142.363766 C573.567026,132.07665 543.122474,124.86127 512.181979,120.813618 L508.390409,120.301662 L504.598838,119.885697 L497.287667,119.085766 L495.239899,118.909781 L486.520886,118.173844 L475.54613,117.501902 L471.578579,117.341916 L471.578579,387.542696 C485.449008,388.982572 499.191451,391.926319 512.517941,396.45393 L711.439407,197.70301 C704.080422,192.561494 696.568547,187.642361 688.913959,182.952278 L688.977952,182.952278 Z" id="Shape" fill="#4D5A31"></path> <path d="M224.230599,189.943677 L219.511134,182.10435 L224.230599,189.943677 Z M444.301669,117.229926 L435.166704,117.421909 C416.096864,118.189843 397.075019,120.141675 378.197157,123.293404 L376.949299,123.501387 L369.046194,124.941263 L364.470712,125.805189 L359.831238,126.781105 L352.152108,128.46096 L350.760265,128.764934 C312.924552,137.596175 276.384691,151.227004 242.004585,169.337448 L219.431143,182.088352 L219.463139,182.136348 L358.583379,413.124497 L366.566475,408.676879 L374.741549,404.549234 C393.731398,395.494012 414.145085,389.766504 435.086713,387.638687 L444.221678,386.902751 L453.356643,386.598777 L453.356643,117.037942 C450.300989,117.037942 447.261334,117.165931 444.221678,117.213927 L444.301669,117.229926 Z" id="Shape" fill="#6BA43A"></path> <path d="M906.313332,548.18489 L905.881381,540.921515 L905.641408,537.289827 L904.761507,526.538751 L903.849611,517.00357 L903.753622,516.235636 L903.705627,515.867668 L902.329783,505.59655 C902.313785,505.500559 902.313785,505.37257 902.281788,505.276578 C899.17814,483.72643 894.522667,462.43226 888.347367,441.538055 L888.219381,441.13809 L885.22772,431.426924 L884.811767,430.147034 L881.884099,421.427784 L880.972202,419.075986 L878.236512,411.556632 L876.860668,407.892947 L874.444942,401.701479 L872.445168,396.821898 L870.429397,392.022311 L867.741701,385.894837 L866.189877,382.439134 L862.782263,375.15976 L861.726383,372.951949 L857.630847,364.664662 L852.287452,354.377546 C852.223459,354.281554 852.175464,354.153565 852.111472,354.057573 C844.27236,339.658811 835.665335,325.676012 826.322393,312.20517 L627.352933,511.260064 C631.848423,524.522924 634.824086,538.249744 636.247925,552.184547 L906.457315,552.184547 L906.313332,548.18489 L906.313332,548.18489 Z" id="Path" fill="#4D5A31"></path> <path d="M637.319804,570.470975 L636.887853,579.60619 L636.375911,588.741405 C632.904304,623.842389 619.353839,658.207435 595.740514,686.908969 C593.91672,689.244768 591.660976,691.43658 589.59721,693.708384 L583.469904,700.491801 L774.056314,891.083423 L780.455589,884.47599 L786.854864,877.868558 C800.965266,862.60587 813.843807,846.607245 825.458491,830.000672 L826.818337,828.04884 L831.009862,821.889369 L834.625453,816.353845 L836.449246,813.650077 C880.156295,745.095968 903.545645,667.214661 906.697288,588.725406 L906.937261,579.590191 L907.097243,570.454977 L637.319804,570.454977 L637.319804,570.470975 Z" id="Path" fill="#6BA43A"></path> <path d="M986.912201,36.980822 C937.605787,-12.3269407 857.646845,-12.3269407 808.34043,36.980822 C769.000887,76.3214411 761.129778,135.116388 784.567123,182.34433 L509.510282,457.408691 C462.283632,433.986704 403.474294,441.842029 364.150749,481.182648 C314.893039,530.523634 314.893039,610.434315 364.150749,659.775301 C413.494798,709.029937 493.403294,709.022779 542.738518,659.759302 C582.078061,620.418683 589.917173,561.623735 566.511825,514.395794 L841.648657,239.251439 C888.875307,262.673427 947.684645,254.818102 987.00819,215.477482 C1036.3306,166.185718 1036.3306,86.2245901 987.00819,36.9168275 L986.912201,36.980822 Z" id="Path" fill="#424143"></path> </g> </g> </svg> 