<?xml version="1.0" encoding="UTF-8"?> <svg xmlns="http://www.w3.org/2000/svg" xmlns:xlink="http://www.w3.org/1999/xlink" width="1024px" height="1024px" viewBox="0 0 1024 1024"> <title>postgres</title> <g id="Page-1" stroke="none" stroke-width="1" fill="none" fill-rule="evenodd"> <g id="postgres"> <rect id="Rectangle" x="0" y="0" width="1024" height="1024"></rect> <path d="M732.228861,0.00338478757 L735.424892,0.0289660156 C778.346335,0.541456217 819.836549,7.8921093 858.609432,23.5859854 C904.916345,42.3293676 945.459438,72.2861033 978.369588,114.335287 C1011.20683,156.289306 1009.95445,237.627492 983.906024,338.474589 C962.950912,419.60279 927.142266,506.15387 881.226136,584.35801 L878.929437,588.240438 L879.438405,588.227347 C886.505315,588.009195 894.448028,587.331917 903.290595,586.146346 L906.648785,585.677835 C910.615994,585.103217 914.756015,584.430133 919.070864,583.654466 L922.812167,582.964389 C924.704273,582.606694 926.628596,582.22994 928.585294,581.833805 L930.320198,581.479236 C939.597055,579.564231 947.978099,578.652364 955.805912,578.920295 C967.736838,579.328669 978.802691,582.328814 988.76402,589.898036 C1002.72574,600.506999 1009.3618,616.976302 1007.76756,633.625488 C1006.7836,643.901416 1003.04739,652.751417 997.531445,661.070916 C984.305568,681.019008 956.993009,701.365055 925.919668,715.782304 C896.283217,729.549859 850.046688,737.326793 812.067961,735.908784 L809.331811,735.791807 L801.451403,735.099596 L799.87416,748.477808 L799.850287,749.465511 C799.639802,757.296495 799.354949,764.910162 798.994177,772.312674 L798.70934,777.825064 L798.395888,783.258848 C798.231985,785.956185 798.057297,788.624261 797.871742,791.263402 L797.486121,796.5032 C797.419427,797.370102 797.351521,798.233812 797.282398,799.094344 L796.853039,804.219483 L796.39434,809.268906 L795.906156,814.243189 C795.822327,815.066006 795.737263,815.885717 795.650962,816.702333 L795.118279,821.56499 C788.456025,880.277834 775.166371,922.627275 754.073326,953.294991 L753.18422,954.574194 C738.409925,975.609031 720.068977,990.877989 697.93907,1001.65036 C689.613382,1005.70314 681.322622,1008.95095 672.047094,1011.84261 L669.233873,1012.69987 C666.863203,1013.4061 664.424612,1014.09288 661.902168,1014.76721 L658.833964,1015.57089 C658.315549,1015.70399 657.793524,1015.8367 657.267763,1015.96909 L654.067339,1016.7599 C653.526122,1016.89119 652.980913,1017.02227 652.431586,1017.15318 L649.085174,1017.93718 L645.63379,1018.72001 C645.049471,1018.85053 644.460524,1018.98112 643.866821,1019.11182 L640.246506,1019.89794 C572.413473,1034.4348 526.305423,1009.40177 502.558882,959.588608 C499.54311,953.262417 497.075158,947.030754 494.586288,939.838248 L493.714138,937.271871 L490.293127,926.966783 L489.734992,925.347267 L489.679011,925.193548 C489.459572,924.601286 489.243106,924.004977 489.029564,923.404444 L488.397656,921.589997 C488.293782,921.285418 488.190628,920.979738 488.088185,920.672936 L487.482025,918.818473 L486.892656,916.935999 L486.319779,915.024447 L485.763094,913.08275 L485.222304,911.109841 C485.13348,910.778362 485.045306,910.445539 484.957775,910.111348 L484.440263,908.08962 L483.937897,906.034012 L483.450378,903.943457 L482.977405,901.816888 C482.899772,901.459399 482.822732,901.100365 482.74628,900.739764 L482.294567,898.557173 L481.856653,896.3359 L481.432239,894.074879 C481.362611,893.69467 481.293534,893.312761 481.225,892.929128 L480.820274,890.606482 L480.4283,888.24142 L480.048779,885.832874 L479.68141,883.379777 L479.325896,880.881062 L478.981936,878.335662 L478.649232,875.74251 L478.327485,873.10054 L478.016394,870.408682 L477.715662,867.665872 L477.283329,863.453784 L476.872619,859.12105 L476.610326,856.163755 L476.233408,851.621938 L475.87542,846.949871 L475.646779,843.761018 L475.318095,838.863862 L475.005647,833.826851 L474.612561,826.88706 L474.33407,821.509715 L473.982594,814.103073 L473.545239,803.785245 L473.188865,793.592672 L472.428342,767.307613 L472.288169,762.987156 L471.196716,763.462521 C460.000981,768.258679 448.274302,771.726518 436.12391,773.912656 L434.663836,774.168843 C405.850019,779.096461 378.606711,776.658122 351.608093,769.906738 C331.472294,764.87164 312.146892,755.383033 299.628944,740.67716 L298.73627,739.603448 L298.543764,739.765072 C257.83309,773.288647 210.097906,770.144171 170.434961,732.591169 L169.038469,731.251485 C157.85717,720.384234 147.205088,706.789277 136.983745,690.626859 L135.130044,687.659981 C129.583047,678.674688 124.162429,668.928411 118.852207,658.447156 L117.0862,654.926218 C116.205219,653.152174 115.327256,651.357795 114.452235,649.5432 L112.706096,645.887091 L110.967675,642.17729 C110.100372,640.309001 109.235913,638.420657 108.374225,636.512379 L106.654521,632.669279 C105.796494,630.734475 104.941189,628.779817 104.08853,626.805425 L102.386722,622.830365 C102.103668,622.163481 101.820903,621.494414 101.538424,620.823168 L99.8469579,616.769573 L98.1622226,612.663891 C97.881987,611.975282 97.6020263,611.284511 97.3223379,610.591583 L95.647452,606.408169 L93.9789679,602.173202 L92.3167542,597.886895 L90.6606792,593.549462 L89.0106114,589.161119 L87.3664193,584.722078 C77.5778358,558.097207 68.0469458,528.01622 59.2938736,497.200393 L57.3617614,490.341441 L55.4565249,483.464933 L53.5794322,476.577506 C52.6481333,473.132168 51.7278641,469.685224 50.8193379,466.240407 L49.0181545,459.354713 L47.2495545,452.481327 L45.5148062,445.626884 L43.8151782,438.798021 C43.534904,437.662377 43.256146,436.528076 42.9789306,435.395255 L41.3343611,428.617204 L39.7280828,421.881323 L38.1613641,415.194249 L36.6354734,408.562617 C36.3846311,407.462334 36.1355428,406.364638 35.8882349,405.269666 L34.4259645,398.733641 L33.0076931,392.26965 C32.7750515,391.198689 32.5442962,390.131007 32.3154534,389.06674 L30.9655587,382.723242 C30.7444719,381.673193 30.5253504,380.626837 30.3082209,379.584312 L29.0295569,373.376238 L27.7999655,367.266742 C27.5991935,366.257076 27.400519,365.251794 27.2039684,364.251035 L26.0503643,358.301849 C25.8624153,357.319731 25.6766432,356.342412 25.4930743,355.37003 L24.4183112,349.596087 C19.5281048,322.93781 16.4066753,300.366893 15.6341056,284.918313 C10.9429141,191.133563 32.3275078,120.966016 78.2480639,74.5784465 C117.716337,34.7087801 171.263478,16.0450859 233.775742,13.9743407 C278.664122,12.4873941 325.610254,19.546818 372.08674,32.1488719 C384.000469,35.3792679 395.197302,38.8001902 405.524327,42.2686138 L406.650953,42.6489411 L408.091241,41.805073 C443.611191,21.1105849 485.481144,10.4591754 533.248417,10.9331477 L535.270261,10.9597986 C560.640471,11.3699547 584.424912,13.4947163 606.716933,17.2950894 L609.023172,17.6972764 L609.334704,17.6016145 C617.839993,14.9980996 628.293026,12.2868323 639.083655,9.94906831 L640.241012,9.70004475 C669.25144,3.50105375 700.297628,-0.12672503 732.228861,0.00338478757 Z M734.398303,85.9967606 C708.176014,85.6836615 682.283975,88.6312517 658.208478,93.7757394 C655.357096,94.3850269 652.598974,95.0115696 649.948066,95.6479561 L646.819333,96.4158706 C644.76901,96.9303311 642.790876,97.4491942 640.892076,97.9686651 L638.10427,98.7478532 L635.440824,99.5251069 L633.729985,100.043368 L632.173086,100.530429 L630.57346,101.049585 L627.324048,102.811614 L611.240541,105.781221 L602.988556,104.069143 C582.23625,99.763567 559.267089,97.3329106 533.869019,96.9223026 C494.679049,96.2783847 463.973783,105.779138 439.533053,123.899127 L438.391974,124.754808 L418.787497,139.623795 L395.589444,130.070894 L393.333293,129.191998 L390.543208,128.138825 L387.44368,127.003275 L384.043651,125.792657 C373.734362,122.172317 362.138143,118.53002 349.584946,115.126233 C310.697014,104.581808 271.816911,98.7352958 236.622427,99.901128 C194.275453,101.303889 161.441045,112.748223 139.352797,135.061108 C112.422829,162.264956 98.2182266,208.261781 101.403744,278.488439 L101.535856,281.191304 L101.610471,282.38356 L101.757276,284.313034 L101.945318,286.407441 L102.173898,288.661858 L102.442317,291.071362 L102.643051,292.761427 L103.095877,296.335939 L103.479619,299.181166 L103.900405,302.161788 L104.357534,305.272882 L105.022367,309.615455 L105.939997,315.339767 L106.535512,318.92352 L107.380511,323.865673 L108.28225,328.984348 L109.239074,334.267874 L110.510042,341.086329 L112.140841,349.552324 L113.584074,356.817119 L114.791466,362.749869 L116.363994,370.297802 L118.003821,377.971127 L119.361963,384.184752 L120.40648,388.881043 C133.566981,447.614021 150.081642,506.14275 168.064817,555.056845 L168.741407,556.890634 L170.09656,560.524465 L171.454159,564.112955 L172.81398,567.655687 L174.175797,571.152243 C174.40292,571.731131 174.630118,572.308078 174.857385,572.883074 L176.904527,578.005156 L178.270991,581.360678 C178.498833,581.915956 178.726721,582.46924 178.95465,583.020523 L180.322681,586.304119 L181.691477,589.539243 L183.060813,592.725476 L184.430466,595.862403 L185.800211,598.949604 C186.028498,599.45997 186.256778,599.968248 186.485049,600.474427 L187.854512,603.486258 L189.223508,606.44732 L190.591812,609.357196 L191.959201,612.215467 C192.18701,612.687523 192.414772,613.15741 192.642481,613.625121 L194.008075,616.405205 L195.372193,619.13264 L196.73461,621.807011 L198.095104,624.427898 L199.453448,626.994886 C199.679648,627.418202 199.905748,627.839255 200.131745,628.258037 L201.486447,630.743391 L202.83844,633.173801 L204.187501,635.54885 L205.533404,637.86812 C205.757446,638.249994 205.981347,638.629526 206.205102,639.006708 L207.545851,641.241526 C207.769005,641.609272 207.992005,641.974651 208.214845,642.337653 L209.549934,644.487081 L210.88097,646.579059 L212.207728,648.613172 L213.529985,650.588999 L214.847517,652.506126 L216.160099,654.364133 L217.467508,656.162604 C219.642087,659.110209 221.794175,661.808005 223.919105,664.247293 L225.190767,665.679776 C226.459095,667.081099 227.717309,668.388733 228.964402,669.600799 C232.598028,673.132367 235.688632,675.387715 238.019013,676.507129 C238.224548,676.605859 238.407418,676.687853 238.568388,676.755193 L238.844724,676.864484 L238.8778,676.852241 C239.176626,676.726037 239.547851,676.542203 239.995632,676.286524 L240.345888,676.081073 C243.286386,674.312555 246.997079,671.028353 251.269874,666.000127 L251.914983,665.232785 C270.191361,643.252847 289.377983,621.226211 308.482212,600.023869 L314.798076,593.040836 L319.322676,588.071191 L325.10515,581.761596 L331.899481,574.411311 L340.074754,565.674624 L365.755694,538.649643 L395.8324,558.630216 C405.722738,565.20057 416.57653,569.177569 427.791806,570.339399 L429.228978,570.471027 L500.620189,509.590418 L490.263147,615.587411 C490.012187,618.155805 490.097624,620.829676 490.657914,624.709685 L491.088628,627.515227 L601.590674,472.869425 L549.039659,683.57773 L549.054207,683.614626 C549.305952,684.359867 549.550291,685.113535 549.787965,685.87572 L550.13957,687.025395 C552.360555,694.429414 553.91903,702.758664 555.103244,712.454694 L555.337246,714.426231 L555.668526,717.431437 L555.977421,720.506434 L556.265377,723.665066 L556.533838,726.921181 L556.784249,730.288624 L557.018053,733.781242 L557.236696,737.412882 L557.441622,741.19739 L557.634275,745.148612 L557.816101,749.280394 L558.099004,756.60555 L558.311054,762.897566 L559.270918,795.347652 L559.481504,801.006072 L559.764658,807.727049 L559.988143,812.603852 L560.382492,820.423352 L560.718285,826.404664 L561.07274,832.145409 L561.351162,836.294897 L561.640629,840.312013 L561.941376,844.198019 L562.360325,849.177597 L562.688307,852.762595 L563.144422,857.345412 L563.500917,860.636277 L563.870024,863.80319 L564.251979,866.847415 L564.513868,868.809361 L564.781642,870.717715 L565.055369,872.57285 L565.335119,874.375141 L565.620962,876.124962 L565.912967,877.822687 L566.211205,879.468691 L566.515744,881.063347 L566.984521,883.359874 L567.305119,884.827799 L567.632263,886.245687 L567.966021,887.613911 L568.306465,888.932847 L568.653663,890.202867 L569.007685,891.424347 L569.368601,892.597661 L569.73648,893.723183 L570.111392,894.801286 L570.638998,896.256738 L571.859874,899.796184 L575.386684,910.406013 L575.749705,911.467655 L576.515657,913.645833 L577.259733,915.671288 C578.240661,918.277822 579.18373,920.523544 580.17086,922.594249 C583.444196,929.460731 586.673981,933.312455 590.325515,935.29495 C596.041929,938.398511 605.81069,939.351458 622.229753,935.832795 L624.864088,935.260922 L627.418183,934.691086 L629.893884,934.122272 L632.293038,933.553469 L634.617492,932.983663 L636.869092,932.41184 L639.049685,931.836986 L641.161118,931.25809 L643.205236,930.674137 L645.183888,930.084114 C645.50831,929.985215 645.830081,929.88602 646.14924,929.78651 L648.033153,929.185482 C649.268607,928.782042 650.463493,928.372866 651.620274,927.956604 L653.327174,927.326728 C655.84558,926.373434 658.177312,925.380845 660.350415,924.333572 L661.775957,923.62712 L663.156345,922.903452 C666.55241,921.071916 669.542462,919.069481 672.256342,916.824899 L673.327473,915.913983 L674.370991,914.976224 L675.388745,914.01061 C676.729394,912.704104 678.006259,911.320614 679.239039,909.849332 L680.155666,908.72924 L681.057607,907.575213 L681.946709,906.386238 L682.824819,905.161301 C689.807626,895.21956 695.76705,881.527394 700.561917,863.4713 L701.290381,860.658927 C702.968606,854.016002 704.495829,846.806677 705.865521,839.00257 L706.442868,835.621455 L707.000811,832.167013 C707.274913,830.421377 707.541695,828.648058 707.801094,826.846776 L708.310028,823.206846 L708.799158,819.491851 C709.038753,817.615505 709.270879,815.710823 709.495472,813.777527 L709.934593,809.872699 L710.353511,805.89107 C710.489771,804.551005 710.622644,803.198057 710.752112,801.832142 L711.13028,797.69542 L711.487902,793.480407 C711.545788,792.771353 711.602812,792.059016 711.658973,791.343386 L711.985562,787.010005 L712.291319,782.597092 C712.340536,781.854951 712.388881,781.109476 712.43635,780.360656 L712.710645,775.827513 L712.963823,771.213598 C713.004253,770.437853 713.043799,769.658722 713.082457,768.876195 L713.303745,764.140188 C713.338846,763.344033 713.373055,762.544461 713.40637,761.741461 L713.59551,756.882247 L713.763077,751.940274 C713.7892,751.109687 713.81442,750.275632 713.838734,749.438097 L713.973724,744.371055 L756.913835,745.413165 L714.267462,740.293737 L716.826775,718.706633 L717.097262,716.538182 L717.452755,713.838234 L717.808303,711.271178 L718.166931,708.826456 L718.531668,706.493512 C718.654602,705.73332 718.779058,704.989999 718.905541,704.261788 L719.291578,702.120729 L719.692806,700.059776 C720.102639,698.035358 720.5398,696.115264 721.017914,694.251989 L721.510183,692.405894 C721.763647,691.490557 722.028485,690.585466 722.306399,689.684682 C726.340792,676.60828 732.968135,665.631794 744.235785,657.300646 C755.756985,648.782027 768.634037,645.67066 782.630923,645.966243 C784.799805,646.012045 786.9829,646.13575 789.231079,646.338369 L789.71175,646.383587 L789.435401,646.103334 C780.735216,637.194639 775.588405,627.239932 773.473019,617.698115 L773.289048,616.831856 L769.705859,599.185292 L779.770107,584.253399 C834.631983,502.857189 877.720272,405.782686 900.659054,316.974658 C911.071884,276.661146 916.678142,240.221417 917.120701,211.47846 C917.324062,198.270744 916.421214,187.171859 914.595883,178.669073 C913.830806,175.10518 912.942294,172.184753 912.009113,169.953923 L911.65988,169.153698 C911.60434,169.032011 911.550213,168.916132 911.497625,168.806011 L911.201535,168.213982 L910.948272,167.757744 L910.743753,167.43489 C910.714057,167.392063 910.686639,167.354693 910.661622,167.32273 C866.870709,111.371234 806.302298,86.855308 734.398303,85.9967606 Z" id="Path" fill="#000000" fill-rule="nonzero"></path> <path d="M939.023153,623.573878 C823.369403,647.428892 815.418811,608.273654 815.418811,608.273654 C937.53098,427.089576 988.577549,197.103417 944.525109,140.815607 C824.346558,-12.7269095 616.311439,59.8888032 612.839665,61.7740299 L611.72226,61.9740479 C588.872931,57.2310934 563.301363,54.4055525 534.561514,53.9365449 C482.229699,53.0789967 442.53422,67.6550175 412.412559,90.496148 C412.412559,90.496148 41.2983419,-62.3796418 58.5583454,282.766278 C62.2301485,356.193558 163.80597,838.349476 284.961676,692.715716 C329.244035,639.46266 372.029623,594.43563 372.029623,594.43563 C393.281017,608.55184 418.721531,615.752486 445.39211,613.166047 L447.463678,611.407269 C446.819906,618.019356 447.114202,624.486603 448.293685,632.142463 C417.08221,667.012259 426.25367,673.134648 363.860608,685.97718 C300.727208,698.987543 337.815408,722.150541 362.030455,728.203958 C391.386486,735.544847 459.302197,745.943481 505.191688,681.707831 L503.361535,689.037224 C515.590915,698.831207 524.178382,752.746391 522.73909,801.619743 C521.299798,850.495394 520.338738,884.05013 529.974634,910.259378 C539.610531,936.468627 549.214239,995.439437 631.235468,977.865446 C699.77196,963.179071 735.287515,925.120482 740.22847,861.636624 C743.734731,816.503837 751.669229,823.1757 752.170452,782.824952 L758.534604,763.722089 C765.873611,702.541885 759.700292,682.804481 801.924878,691.984615 L812.186153,692.885846 C843.264276,694.299766 883.939209,687.887696 907.811677,676.792447 C959.21692,652.937433 989.704151,613.108571 939.018554,623.573878 L939.023153,623.573878 Z" id="Path" fill="#336791" fill-rule="nonzero"></path> <path d="M510.558593,644.320307 C518.469631,644.541572 524.703413,651.133741 524.482135,659.044328 L524.293714,666.109661 L524.12427,673.149346 L523.973653,680.159748 L523.841718,687.137233 C523.821277,688.297202 523.801608,689.455648 523.782708,690.612496 L523.678515,697.533789 C523.662679,698.683939 523.647606,699.832338 523.633293,700.978912 L523.556508,707.835837 L523.497811,714.645307 L523.457052,721.403686 L523.434084,728.107341 L523.428759,734.752636 L523.453527,744.603205 L523.49166,751.086701 L523.546916,757.499116 L523.619148,763.836817 L523.708208,770.096169 L523.813946,776.273537 L523.936216,782.365287 L524.074868,788.367783 L524.229755,794.277392 L524.400727,800.090479 L524.587638,805.80341 L524.790338,811.412549 C524.825429,812.338555 524.861172,813.260084 524.897564,814.177061 L525.123671,819.623699 C525.162644,820.522167 525.20226,821.415931 525.242516,822.304916 L525.491696,827.580875 C525.534497,828.450442 525.577931,829.315078 525.621995,830.174708 L525.893915,835.27181 L526.180809,840.245131 C526.229865,841.0635 526.279538,841.876561 526.329826,842.684237 L526.638904,847.465071 C526.744373,849.03674 526.852275,850.586264 526.962587,852.113038 L527.300725,856.624502 C527.358277,857.364836 527.416426,858.099331 527.475168,858.827911 L527.834712,863.127807 C527.956916,864.537043 528.081467,865.922015 528.208341,867.282116 L528.595907,871.287201 C528.990392,875.216463 529.40556,878.916439 529.840744,882.370773 L530.282576,885.742621 L530.737603,888.947073 C532.12233,898.305701 533.6832,905.355421 535.402202,909.654634 L535.952441,911.021232 L537.046686,913.68499 C544.682519,932.012358 551.889812,943.713506 563.263233,953.293362 C580.064712,967.445282 603.199995,972.495958 636.122421,965.443465 C697.41113,952.30475 719.200219,929.658213 729.289518,871.143182 L729.721376,868.598106 L730.643955,862.916625 L731.38319,858.172858 L732.158964,853.048489 L733.243938,845.675444 L734.669477,835.6897 L736.45977,822.760369 L737.998475,811.359066 L739.561921,799.535014 L741.44722,784.982332 L743.622928,767.80381 L745.434443,753.180149 L747.16625,738.901105 L748.789516,725.205024 L750.275408,712.330248 L751.175445,704.321045 L752.183595,695.079409 L752.886187,688.388061 L753.487143,682.397185 L753.97792,677.177401 L754.268558,673.811074 L754.423436,671.844604 C755.015316,663.953086 761.892835,658.035532 769.784803,658.627379 C777.676771,659.219226 783.594661,666.096352 783.002781,673.98787 L782.752362,677.104466 L782.311103,682.022128 L781.904308,686.243404 L781.26763,692.525831 L780.332271,701.33072 L779.257474,711.064486 L777.807153,723.776912 L776.756311,732.766913 L775.075463,746.847934 L773.597245,758.976742 L771.755332,773.798508 L769.549049,791.157727 L767.959327,803.402825 L766.062906,817.708675 L764.81879,826.900247 L763.301349,837.876702 L761.841375,848.154407 L760.725987,855.780779 L759.666602,862.80105 L759.16058,866.061828 L758.43414,870.61647 L757.750014,874.740799 C757.676485,875.174048 757.603805,875.598777 757.531999,876.014801 C745.452761,946.070903 714.853011,977.87482 642.128013,993.465179 C600.828528,1002.31217 568.628104,995.282476 544.799416,975.211524 C529.07104,961.963479 519.837605,946.948691 510.568886,924.655847 L509.38495,921.76999 C509.187428,921.282283 508.989764,920.791175 508.791895,920.296613 C505.521747,912.117997 502.797357,897.612663 500.64497,878.266066 L500.192509,874.046807 L499.757616,869.682594 C499.615585,868.204058 499.476493,866.701904 499.340347,865.176675 L498.940761,860.532298 C498.87564,859.746878 498.811259,858.955824 498.747617,858.159203 L498.374662,853.313231 C498.253312,851.676003 498.134933,850.017052 498.019534,848.33692 L497.682288,843.23352 L497.362983,838.006279 L497.061676,832.658444 L496.778425,827.193264 L496.513287,821.613987 L496.266318,815.923861 L496.037578,810.126134 L495.827122,804.224054 L495.635009,798.220869 L495.461295,792.119828 L495.306039,785.924177 L495.169297,779.637166 L495.051127,773.262043 C495.032982,772.19236 495.015615,771.119141 494.999024,770.042454 L494.908819,763.541251 C494.895343,762.450961 494.882647,761.357338 494.870732,760.26045 L494.808622,753.640477 L494.750728,743.570683 L494.735729,736.768999 L494.739675,729.900316 L494.762624,722.967881 L494.804632,715.974942 L494.865757,708.924747 L494.946057,701.820544 L495.102584,691.07008 L495.231071,683.845068 C495.254099,682.637256 495.277934,681.427667 495.302577,680.216369 L495.460148,672.928616 C495.48803,671.710753 495.516723,670.491317 495.546228,669.270374 L495.833733,658.243056 C496.050093,650.50826 502.357699,644.376911 510.033199,644.315066 L510.558593,644.320307 Z" id="Path" fill="#FFFFFF" fill-rule="nonzero"></path> <path d="M233.978958,40.6012239 C275.791352,39.0890957 320.215302,45.653117 364.304683,57.4984554 C377.258978,60.9788403 389.306049,64.6926529 400.204558,68.4279563 L403.854067,69.6945424 L407.646978,71.0467508 L411.129765,72.3250544 L414.349425,73.5434339 L417.021037,74.5917785 L417.26152,74.6894923 C424.587386,77.6835107 428.098904,86.0490919 425.104716,93.3745409 C422.178576,100.533502 414.12197,104.049733 406.91963,101.411378 L403.662291,100.138231 L401.106999,99.173428 L397.877712,97.9883905 L395.55434,97.1561728 L393.097524,96.2926929 C382.227736,92.5078403 370.04742,88.7156953 356.868114,85.1748578 C315.315853,74.0111585 273.587898,67.8454937 235.014803,69.240474 C185.901582,71.0166336 146.121073,84.9958128 118.205251,113.264324 C85.0615081,146.826805 68.4377051,200.635424 71.9372478,278.249924 L72.0834862,281.25003 L72.1662455,282.589091 L72.2684285,284.003389 L72.3898195,285.491471 L72.5302028,287.051879 L72.7759167,289.524924 L72.9628372,291.259785 L73.277346,293.987687 L73.5094558,295.887905 L74.0265547,299.877675 L74.6127212,304.110189 L75.2662301,308.573803 L75.9853558,313.256877 L76.5667233,316.9062 L77.6135563,323.234836 L78.5191803,328.506437 L79.2370246,332.574234 L80.244268,338.140756 L81.5814423,345.312023 L83.0022713,352.698863 L84.5033852,360.278537 L85.1255557,363.359307 L86.405953,369.596672 L87.3969512,374.335314 L88.7578317,380.724987 L90.1623302,387.185687 L91.6087213,393.70577 C105.02641,453.586489 121.873894,513.294651 140.335629,563.510351 L141.796347,567.454642 C142.040112,568.108062 142.28403,568.759496 142.528101,569.408937 L143.994328,573.281597 L145.464088,577.106054 L146.937272,580.881948 L148.413769,584.608922 L149.893468,588.286614 L151.376259,591.914668 C151.623642,592.515187 151.87115,593.113622 152.118779,593.709967 L153.606,597.262888 L155.096036,600.765271 L156.588776,604.216758 C156.837786,604.787744 157.086903,605.356595 157.336126,605.923303 L158.832717,609.297772 L160.331735,612.620447 L161.833071,615.890968 L163.336613,619.108978 L164.842252,622.274116 C165.093361,622.797213 165.344552,623.318092 165.595824,623.836746 L167.1044,626.921903 C167.355984,627.431626 167.607644,627.939107 167.859377,628.444341 L169.370642,631.448711 L170.883561,634.398773 L172.398023,637.294168 C172.650556,637.772158 172.903149,638.247856 173.155799,638.721253 L174.672369,641.533974 C174.925239,641.998141 175.178162,642.459992 175.431136,642.919521 L176.949565,645.648761 C177.455897,646.549177 177.962414,647.440243 178.469095,648.321898 L179.989616,650.938573 C180.243112,651.36996 180.496645,651.79898 180.750213,652.225625 L182.272012,654.756933 C184.301578,658.093851 186.333048,661.277808 188.365243,664.304976 L189.889507,666.545894 C195.986957,675.391494 202.088274,682.817365 208.161611,688.720092 C229.255071,709.221004 247.28044,709.953514 268.32069,687.572112 L269.682369,686.096048 L271.052777,684.555645 L272.432277,682.950706 L273.12555,682.123972 C292.641068,658.647095 312.736735,635.679818 332.300706,614.157276 L336.626303,609.413104 L342.142479,603.406438 L348.606403,596.433779 L352.481453,592.291162 L358.1139,586.33668 C363.590229,580.623573 372.661323,580.431374 378.374755,585.907391 C383.945351,591.246507 384.267336,600.002702 379.204166,605.732421 L374.040932,611.198471 L369.568435,615.976623 L365.810038,620.022034 L361.875079,624.284588 L357.771844,628.757266 L353.508614,633.433048 C334.211999,654.661469 314.388878,677.317253 295.162131,700.446741 C261.240448,741.224598 222.745639,742.858834 188.186348,709.270368 C179.899869,701.216669 171.784845,691.144473 163.836486,679.184834 L162.135815,676.593213 C160.437692,673.972797 158.747206,671.266144 157.06431,668.474541 L155.383943,665.65467 L153.708625,662.778453 C153.151026,661.810355 152.594267,660.832913 152.038346,659.846176 L150.373096,656.858127 C149.81885,655.852847 149.26544,654.838319 148.712864,653.814591 L147.05764,650.715855 L145.407413,647.562207 C144.858169,646.50187 144.309757,645.432429 143.762173,644.353931 L142.121909,641.091316 C141.848946,640.543034 141.57619,639.992501 141.30364,639.43972 L139.670821,636.096132 L138.042953,632.698921 C137.230254,630.986957 136.419408,629.254991 135.610408,627.503185 L133.994868,623.973168 C133.457175,622.78771 132.9203,621.593481 132.384242,620.390531 L130.778519,616.755559 C130.244094,615.535211 129.710485,614.306188 129.177689,613.068539 L127.581741,609.329759 L125.990664,605.539504 L124.404448,601.698061 L122.823083,597.805717 L121.246558,593.862759 L119.674862,589.869472 L118.107986,585.826144 L116.545919,581.733061 C116.285974,581.04675 116.02623,580.358378 115.766685,579.66795 L114.211811,575.500772 C113.953064,574.802147 113.694517,574.10148 113.436168,573.398775 C94.9082898,523.003167 78.0646827,463.640655 64.5392755,403.951229 L63.2619258,398.268723 L61.3996301,389.808152 L59.9602616,383.114819 L58.9113546,378.146257 L58.227085,374.861096 L57.2237451,369.9778 L55.9301914,363.557321 L54.6888373,357.251 L53.5014799,351.070441 L52.3699166,345.027248 L51.5589401,340.591979 L50.529341,334.817096 L49.5604784,329.211488 L49.099385,326.475788 L48.2249972,321.14585 L47.6119151,317.277886 L46.8528587,312.30256 L46.3283393,308.71388 L45.843039,305.253053 L45.397716,301.924974 L44.9931287,298.734537 L44.7464091,296.686465 L44.4113994,293.736312 L44.1191472,290.936855 L43.8704108,288.292991 L43.6659483,285.809614 L43.5546111,284.245606 L43.4635129,282.756552 L43.4256236,282.040586 C39.1074261,195.713183 58.1156046,133.326648 97.8124634,93.128259 C131.497863,59.0172777 178.159833,42.6198998 233.978958,40.6012239 Z" id="Path" fill="#FFFFFF" fill-rule="nonzero"></path> <path d="M726.355991,27.2464342 C767.008199,26.86883 806.232171,32.9764147 842.67693,46.9863089 C886.234311,63.7303987 924.193948,91.1854798 955.001122,130.548307 C1007.38359,197.486006 944.996659,439.013312 826.492798,614.851332 C822.07002,621.413924 813.164316,623.14879 806.60135,618.726265 C800.038384,614.303739 798.303419,605.398541 802.726196,598.835949 C859.436842,514.68774 903.855062,414.610854 927.598174,322.690812 C930.432017,311.719757 932.914972,301.041219 935.050827,290.714014 L936.011974,285.972773 C949.279459,219.164668 947.732822,167.76342 932.430965,148.209721 C881.131993,82.6641906 809.514064,55.1332187 726.622204,55.9031722 C697.82589,56.1706511 669.901835,59.9238583 644.497515,65.8617578 C640.722548,66.7441027 637.141014,67.6448234 633.802434,68.5403927 L631.001448,69.3062131 C629.631859,69.6879437 628.309494,70.0674935 627.038251,70.4430105 L624.565081,71.1881184 L622.235165,71.9191796 L619.92741,72.6781016 L618.939569,73.017184 L618.693959,73.1429952 C618.222409,73.3712789 617.733928,73.5757937 617.229537,73.7545864 L616.71988,73.9247327 C616.393798,74.0269665 616.097933,74.1151242 615.792314,74.1970029 L615.024605,74.3933686 L614.749276,74.4504382 L614.086416,74.5392437 L612.406493,74.7145304 L611.680735,74.7268345 L611.375617,74.7172287 L611.03546,74.6915698 L609.253147,74.4766657 L608.511268,74.3169419 L608.129377,74.2224784 C608.069003,74.2061605 608.009419,74.1892805 607.949354,74.1714259 L607.57301,74.0493021 L607.124079,73.8839833 L605.764337,73.344545 L604.812214,72.833707 L604.303365,72.5458017 C604.146581,72.4535638 604.001047,72.3637404 603.862017,72.2723838 L603.459699,71.989766 L603.067937,71.674261 L602.65826,71.3021815 L602.202195,70.8498401 L601.368838,69.969021 L600.27095,68.7743716 L599.436181,67.2493069 L599.000144,66.422915 C598.150242,64.7645928 597.891972,63.8803834 597.74036,62.1099381 L597.676193,61.2238356 L597.585164,59.5793497 L597.834668,58.0722764 L598.034158,56.9654903 L598.157109,56.3886276 L598.284448,55.89759 C598.328808,55.7441224 598.375674,55.5988203 598.42682,55.455545 L598.594873,55.0256605 C598.625614,54.9529802 598.657868,54.879272 598.691857,54.8037684 L599.050607,54.0550442 L599.35958,53.4406479 L600.748208,51.4530239 L601.183031,50.8747886 C601.225883,50.8208212 601.267376,50.7697128 601.30797,50.7208957 L601.544443,50.4509446 L601.907131,50.0894966 L602.521788,49.5456227 L604.031009,48.4629332 L604.652864,48.0285298 L605.003008,47.8008199 L605.262114,47.6552301 L605.50386,47.5430755 C605.546798,47.5244646 605.592082,47.5052182 605.641248,47.4843222 L606.337533,47.1614035 L607.164652,46.8188175 L607.976212,46.5082868 L609.520784,45.9521426 L611.376158,45.3188684 L613.488689,44.6283866 L614.771683,44.2214902 L617.447887,43.3982612 L620.265264,42.5652125 C621.227147,42.2862612 622.211402,42.0062256 623.216874,41.7256581 L626.295777,40.882912 C628.912642,40.1802142 631.654877,39.4776438 634.504411,38.7838308 L637.974199,37.9560111 C665.317214,31.5649691 695.301202,27.5348913 726.355991,27.2464342 Z" id="Path" fill="#FFFFFF" fill-rule="nonzero"></path> <path d="M395.622059,83.5010541 C431.751922,53.1472093 477.767149,37.2462739 533.975612,38.1679744 C636.871712,39.8548728 717.51364,85.8970472 775.484499,160.004808 C796.241268,186.539478 812.672194,215.174737 823.788437,241.885722 L824.972686,244.776114 C825.550711,246.209661 826.107398,247.625033 826.641886,249.019061 L827.681013,251.777724 C830.203564,258.598547 832.156866,264.833031 833.433602,270.085376 C834.381098,273.983262 834.958122,277.3369 835.109651,280.151615 C835.224853,282.291522 835.124794,284.256508 834.629326,286.316255 C833.397468,291.437299 830.149371,296.070374 823.673508,297.660793 L823.015117,297.809598 L817.845795,297.926618 C759.5651,288.595115 727.773859,297.090121 715.993517,318.06527 C707.60641,332.998693 707.896201,356.125244 716.121769,385.753392 L716.891389,388.464724 L717.704608,391.211595 C717.843771,391.672352 717.984746,392.134579 718.127529,392.598269 L719.005916,395.397919 C719.155925,395.867438 719.307737,396.338408 719.461351,396.810824 L720.404627,399.662617 C720.726243,400.618965 721.055043,401.581049 721.391007,402.54882 L722.420368,405.46915 C728.29835,421.899696 735.958422,439.35406 745.283326,458.100511 L746.939142,461.406506 L748.611268,464.671307 L751.053,469.345384 L754.992292,476.762933 L758.711039,483.68861 L778.689584,520.582848 L781.929538,526.671231 L783.383414,529.480739 L783.966534,530.653356 L784.274923,531.307738 L784.415821,531.631146 C788.181146,540.759427 792.637153,548.963581 797.94275,556.924356 C800.312992,560.480782 802.798738,563.916406 805.680735,567.666908 L807.78304,570.36557 L815.252441,579.758688 L816.744744,581.674928 L818.134328,583.501662 L819.424913,585.248527 C823.980106,591.51905 826.613832,596.373203 828.151239,601.948636 L828.41398,602.963598 L828.493835,603.101178 C829.108592,604.132318 830.237398,605.371934 832.126055,606.738313 C837.574621,610.680163 846.644728,613.734175 860.307375,614.964955 C874.81284,616.27166 893.084051,615.33927 915.432281,611.76755 L918.902678,611.197178 C919.486452,611.098627 920.072918,610.998328 920.66208,610.896273 L924.229446,610.262824 C924.829414,610.15372 925.432088,610.042848 926.037475,609.930199 L929.702378,609.232945 C930.318633,609.113166 930.937611,608.991598 931.559316,608.868235 L935.322322,608.106446 C951.218634,604.823512 962.651841,605.215523 970.625891,611.282693 C976.412285,615.685354 979.108637,622.393261 978.427559,629.464745 C977.955486,634.366173 975.969047,639.068306 972.831148,643.800547 C962.988841,658.643649 939.739368,675.971234 913.037168,688.371348 C890.489395,698.835278 854.652361,705.606429 822.781077,705.956671 C806.312213,706.137652 791.854454,704.585132 780.79246,701.147248 C765.478414,696.387897 755.202251,687.58146 754.411093,673.731086 C752.373208,637.955231 763.783604,617.071701 785.783811,607.183475 C788.244773,606.07737 790.730628,605.147895 793.475879,604.267512 L795.179798,603.737518 L797.011672,603.198102 L796.612098,602.627418 L795.768534,601.461124 L794.831044,600.203018 L793.795912,598.848061 L791.958485,596.510103 L786.398568,589.52573 L784.162935,586.689489 C780.403351,581.858764 777.189956,577.46249 774.093904,572.817023 C768.205254,563.981407 763.152698,554.81267 758.835741,544.733575 L757.826678,542.345799 L757.245581,541.182973 L755.148277,537.225688 L737.346108,504.469819 L733.084683,496.57986 L728.676614,488.347386 L726.336641,483.931276 L724.177322,479.812072 L722.239082,476.059644 L720.954801,473.528049 C710.563823,452.842097 702.017769,433.521316 695.43541,415.121842 L694.339079,412.013978 L693.28356,408.932948 L692.269206,405.878843 C690.944335,401.824692 689.730185,397.842581 688.630531,393.933474 L687.827318,391.015346 C678.317525,355.678366 678.420033,326.440087 691.004915,304.032438 C707.90426,273.942794 744.357444,261.414502 800.774706,266.833733 L802.67687,267.023102 L802.36065,266.088594 C801.097715,262.408327 799.585753,258.393777 797.854448,254.169636 L797.328506,252.896231 C787.174451,228.497267 772.027687,202.100001 752.910508,177.66132 C699.949897,109.958474 627.084442,68.3562442 533.505744,66.8220971 C484.118104,66.0122438 444.833163,79.587474 414.058002,105.442663 C387.876372,127.438682 368.233635,158.013681 354.41644,195.144049 C344.245784,222.475228 337.750892,251.897607 334.256801,281.584599 C332.981258,292.422045 332.186345,302.665918 331.780926,312.089852 L331.689323,314.378621 L331.615845,316.546341 L331.559407,318.590378 L331.504321,321.418759 L331.485724,323.142052 L331.482302,325.476962 L331.505037,327.457585 C331.713319,335.368525 325.468715,341.950445 317.557324,342.158715 C309.821742,342.362357 303.356841,336.397073 302.878629,328.736672 L302.848726,327.919234 L302.821302,325.765935 L302.821302,324.156971 L302.840959,321.518339 L302.871067,319.612246 L302.915869,317.591046 L303.012671,314.348099 L303.1478,310.858192 C303.582672,300.749617 304.432142,289.802683 305.79364,278.234931 C309.537366,246.426961 316.513683,214.823683 327.556138,185.149757 C342.981871,143.696832 365.274681,108.99685 395.622059,83.5010541 Z M813.15427,628.294607 L812.488197,628.521714 C811.927435,628.706729 811.34326,628.890651 810.7323,629.076069 L809.510377,629.437582 L803.778566,631.078679 L803.249376,631.236911 C801.000608,631.924292 799.179207,632.582655 797.533531,633.322322 C787.358451,637.895619 782.124248,646.833376 782.875057,668.846115 L782.959035,670.919123 L783.19596,671.09385 C784.312568,671.877299 786.153766,672.753496 788.65855,673.576125 L789.298535,673.780582 C797.083705,676.200083 808.735727,677.451314 822.466131,677.300427 C850.557433,676.991725 882.473216,670.961466 900.96887,662.378036 C917.310499,654.789221 931.977272,645.087809 941.197348,636.611568 L941.821423,636.028635 L937.35035,636.936011 C936.727151,637.059993 936.106275,637.182339 935.487718,637.303051 L931.804156,638.007769 C930.585539,638.236167 929.376158,638.458071 928.175963,638.673514 L924.602896,639.300502 L921.084689,639.888947 L917.621083,640.439064 L914.211818,640.951068 C911.95703,641.279748 909.738297,641.583162 907.555271,641.861597 L904.307469,642.260552 C903.770618,642.323934 903.235987,642.385764 902.703572,642.446046 L899.535626,642.789201 C899.012051,642.84331 898.490681,642.89588 897.97151,642.946916 L894.882834,643.234755 C894.372439,643.279671 893.864232,643.323062 893.358208,643.364932 L890.348217,643.597938 C889.850903,643.633743 889.355762,643.668035 888.862787,643.70082 L885.930898,643.879477 C885.446569,643.90625 884.964395,643.931525 884.484373,643.955305 L881.63,644.080096 C874.086925,644.365253 867.091614,644.270229 860.621898,643.813358 L858.220349,643.625105 C839.99669,642.052347 826.09449,637.507644 815.986893,630.426701 L815.326527,629.956571 C814.762006,629.54816 814.215339,629.136041 813.68619,628.720748 L813.15427,628.294607 Z" id="Path" fill="#FFFFFF" fill-rule="nonzero"></path> <path d="M467.538719,603.714244 C456.92316,604.641314 446.977723,610.093518 437.616455,620.254005 L436.800908,621.152754 L435.167425,623.006947 L432.894127,625.657543 L429.42385,629.798532 L424.793766,635.429924 L413.562591,649.294252 L413.492079,649.375465 C408.144232,655.398494 403.258125,658.74933 393.303361,662.155322 L391.492897,662.757507 L389.570447,663.364168 C389.240331,663.465837 388.905268,663.56783 388.565117,663.670218 L386.659929,664.232168 L384.85936,664.741981 L381.997397,665.515103 L379.977095,666.037301 L377.862995,666.565875 L375.651722,667.101635 L373.339901,667.645395 L369.67626,668.477808 L365.767406,669.332787 L360.154473,670.512596 C343.095997,674.028582 331.174142,678.553642 323.663088,684.678549 C313.737663,692.77226 311.04263,704.46443 316.762415,715.070191 C323.172602,726.956115 340.250714,736.299735 357.736767,740.670584 C381.203231,746.542379 404.702508,748.646394 429.008948,744.488285 C463.186137,738.641584 493.048655,720.772741 516.034438,688.589411 C534.8783,662.210127 519.308303,620.198549 490.581961,608.29099 C481.492889,604.526247 475.687627,603.002589 467.538719,603.714244 Z M492.712629,671.93304 C474.249798,697.783601 451.102165,711.634456 424.176078,716.240709 C404.38047,719.627149 384.633452,717.859094 364.690506,712.868956 C359.565646,711.587935 353.889578,709.397726 349.285517,706.878795 L348.72999,706.570149 C347.637528,705.953776 346.65739,705.344361 345.803588,704.767876 L345.593719,704.620998 L345.687005,704.579298 C347.284074,703.833748 349.232214,703.071573 351.530594,702.309695 L353.114726,701.802006 C355.568727,701.041095 358.372784,700.284241 361.526066,699.548367 L363.679982,699.061078 C364.047587,698.980443 364.419502,698.900114 364.795725,698.820113 L368.980927,697.947937 L373.329176,697.018037 L376.088898,696.40986 L378.741866,695.809892 L381.291965,695.217109 L383.743082,694.630488 L386.099103,694.049002 L388.363914,693.471629 L390.541401,692.897343 C390.897255,692.801829 391.249632,692.706401 391.598613,692.611038 L393.652401,692.039463 L395.628581,691.468415 L396.852087,691.103499 L399.227684,690.367479 C415.530821,685.182536 425.088091,679.254075 434.268413,669.132486 L435.038026,668.271469 L436.217273,666.855037 L448.173191,652.124225 L451.85416,647.654797 L453.855185,645.258442 L456.161385,642.543826 L457.791542,640.674562 L458.162972,640.257559 C463.187975,634.634195 466.917499,632.535559 470.03225,632.263544 C471.198606,632.161684 472.373212,632.274851 473.951008,632.705056 L474.775335,632.947052 C474.918932,632.991945 475.065786,633.039158 475.216125,633.08875 L476.161819,633.415318 L477.202138,633.80181 L478.348053,634.251061 L479.610533,634.765903 C492.213098,639.989881 500.17831,661.481928 492.712629,671.93304 Z" id="Path" fill="#FFFFFF" fill-rule="nonzero"></path> <path d="M390.202408,274.436336 C414.579139,268.813688 436.922806,268.824213 455.577103,276.027018 C478.394928,284.837446 493.890296,303.775357 500.027159,332.14715 C510.682472,381.420993 513.554854,421.826938 509.886694,456.421762 C507.067936,483.005781 501.025414,503.896546 490.624183,528.238291 L489.037888,531.895014 L481.81542,548.072884 L480.877458,550.20558 L479.600807,553.163402 L478.826535,555.000197 L478.105701,556.749503 L477.431426,558.428963 L476.796828,560.056218 L476.195031,561.648911 L473.460457,569.052032 L471.000202,575.794969 L469.151962,580.943577 L467.801193,584.774019 L466.560674,588.363103 L465.427293,591.724714 L464.397938,594.872732 L463.921298,596.370982 L463.042147,599.224642 L462.446116,601.246733 L461.902911,603.174057 L461.411218,605.012471 L461.111393,606.191578 L460.833491,607.335507 L460.577121,608.445994 L460.232091,610.052816 L460.027852,611.087289 L459.843786,612.094394 L459.604657,613.55753 L459.469318,614.503805 L459.352789,615.428784 L459.212414,616.78012 L459.141209,617.659454 L459.087454,618.523565 L459.050757,619.37419 L459.030732,620.213064 L459.026989,621.041922 L459.039139,621.862499 L459.066792,622.676532 L459.136492,623.889103 L459.238887,625.096709 L459.324666,625.901913 L459.424005,626.709248 L459.536513,627.52045 C459.556341,627.656069 459.5767,627.791921 459.597585,627.928043 C460.797689,635.750208 455.429087,643.064147 447.606477,644.264183 C439.783866,645.464219 432.469511,640.095923 431.269406,632.273758 C431.026705,630.691851 430.842374,629.095995 430.715185,627.481999 L430.649876,626.551922 L430.575007,626.55333 C352.044078,624.593836 289.693202,549.170162 300.169681,463.231114 L300.532964,460.455318 C305.48627,425.037939 306.097449,392.237302 304.204792,354.975502 L303.658991,345.146514 L303.217206,337.596195 L303.053049,334.54894 L302.962112,332.614397 L302.86972,329.928336 L302.847149,328.146668 C302.847116,328.00854 302.84754,327.872637 302.848415,327.738686 C302.905117,319.27639 308.998031,312.144605 320.118269,304.582754 L321.702456,303.524643 C322.510761,302.994015 323.343309,302.460896 324.199756,301.924686 L325.944415,300.84797 C326.240468,300.667772 326.539152,300.487186 326.840453,300.30619 L328.679568,299.215122 L330.580891,298.113157 L332.543815,296.999232 C332.876068,296.812522 333.210863,296.62527 333.548186,296.437453 C350.525247,286.984852 370.716499,278.930885 390.202408,274.436336 Z M463.430577,518.926286 C473.316532,496.143493 478.829957,477.514359 481.38683,453.400207 C484.150112,427.339387 482.785624,397.139629 476.491458,361.050712 L475.696051,356.602109 C474.602512,350.631075 473.376698,344.501158 472.015118,338.204742 C464.378465,302.899162 438.175324,292.781594 396.644149,302.361024 C379.90525,306.221958 362.208502,313.280907 347.490678,321.475595 C341.280269,324.933468 336.069195,328.355132 332.602974,331.174106 L331.8394,331.809874 L331.621554,331.994451 L331.791187,335.265311 L332.643159,350.018509 C334.839522,390.380715 334.320635,425.782547 328.916373,464.424364 C318.976078,535.502475 370.222134,597.499156 433.170391,597.925698 L433.739984,597.921766 L433.955281,597.044208 C434.199935,596.063595 434.457108,595.072421 434.726645,594.07016 L435.613604,590.861892 L436.477681,587.830198 L437.149392,585.579583 L438.05062,582.735438 L438.999641,579.911915 L440.676491,575.157417 L443.460185,567.523001 L449.327944,551.672874 L450.022272,549.83413 L450.745951,547.975727 L451.506562,546.077807 C451.636829,545.757091 451.768951,545.433901 451.903086,545.107823 L452.733311,543.113393 L454.085807,539.948362 C454.244018,539.583065 454.405032,539.21281 454.569006,538.837186 L463.430577,518.926286 Z" id="Path" fill="#FFFFFF" fill-rule="nonzero"></path> <path d="M407.503951,321.00036 L406.341132,321.000744 L405.760821,325.109035 C404.518365,333.904949 417.545852,347.584183 430.471902,349.376421 C443.301744,351.165733 457.597552,341.478748 458.846034,332.524472 C459.866477,325.198544 451.568043,319.453084 440.022228,316.704759 L438.592637,316.383305 C437.147642,316.077023 435.657673,315.816546 434.133875,315.604476 C422.463551,313.975581 411.906319,315.629257 407.656016,320.808683 L407.503951,321.00036 Z" id="Path" fill="#FFFFFF" fill-rule="nonzero"></path> <path d="M753.710094,308.412694 C752.23805,308.617796 750.802041,308.871355 749.413462,309.169123 L748.041116,309.481471 C737.647474,311.986706 730.264947,317.007267 731.02874,322.629237 C732.100067,330.23282 745.144759,339.067765 756.728318,337.453501 C768.446131,335.829099 780.426051,323.244999 779.401615,315.890405 L779.313,315.408825 C777.89217,309.162877 766.615077,306.614621 753.710094,308.412694 Z" id="Path" fill="#FFFFFF" fill-rule="nonzero"></path> <path d="M819.339373,269.46969 C827.24201,269.043305 833.994034,275.10364 834.420443,283.005827 C835.238055,298.157788 834.353165,311.420689 831.849384,329.111292 L830.951303,335.22361 L829.280118,346.143874 L828.624172,350.555787 L828.036699,354.667612 L827.514266,358.521978 L827.200417,360.969574 L826.912934,363.334322 C826.86716,363.722244 826.822443,364.107241 826.778761,364.489575 L826.412996,367.865795 L826.198509,370.057781 L826.006321,372.217443 L825.835415,374.35741 L825.684775,376.490315 L825.553384,378.628786 L825.440226,380.785456 L825.344283,382.972956 L825.26454,385.203916 C825.220613,386.555963 825.19073,387.879688 825.176069,389.196553 L825.166524,390.511927 L825.171576,392.460439 L825.199179,394.371407 L825.249947,396.311658 L825.355021,398.968824 L825.462874,401.032782 L825.596494,403.173493 L825.816081,406.17178 L826.084711,409.365587 L826.404232,412.788671 L826.878018,417.441371 L827.560424,423.659942 L828.08726,428.24345 L829.773862,442.501576 L830.306609,447.190142 L830.792153,451.647417 L831.230567,455.891094 L831.621921,459.938863 L831.966284,463.808417 L832.169789,466.297848 L832.435993,469.90969 L832.587457,472.243695 L832.718141,474.524702 L832.828066,476.757955 L832.917254,478.948694 L832.985724,481.102162 L833.033499,483.223601 C833.039737,483.574796 833.045115,483.924876 833.049631,484.273948 L833.066401,486.357172 L833.062527,488.421472 L833.038029,490.472089 L832.99293,492.514267 C832.983698,492.854218 832.973609,493.194035 832.962662,493.533829 L832.886699,495.573175 L832.790187,497.617185 C832.77239,497.958534 832.753738,498.300295 832.734231,498.642578 L832.606934,500.703414 L832.459139,502.78202 L832.290868,504.883638 C829.99536,532.080533 821.923294,556.626811 806.315907,579.934651 C801.912675,586.510372 793.012172,588.271726 786.436076,583.868745 C779.85998,579.465764 778.098526,570.565768 782.501758,563.990047 C795.292217,544.888964 801.831054,525.005071 803.732792,502.473516 L803.879529,500.636175 C803.902466,500.331325 803.924642,500.027096 803.946057,499.723386 L804.06539,497.906559 L804.166373,496.097391 L804.248939,494.291068 L804.313022,492.482775 L804.358558,490.6677 L804.38548,488.841029 L804.393723,486.997947 L804.383222,485.133641 L804.353909,483.243298 L804.305721,481.322102 L804.238591,479.365242 L804.152453,477.367902 L804.047242,475.325269 L803.85352,472.165864 L803.70034,469.988939 L803.527856,467.749872 L803.232794,464.264226 L802.89393,460.611685 L802.643579,458.075915 L802.231222,454.109112 L801.774473,449.93209 L801.096038,444.007638 L799.578712,431.206052 L799.020402,426.339145 L798.408316,420.767965 L797.985071,416.675621 L797.705189,413.79462 L797.380622,410.174439 L797.238659,408.448661 L797.050475,405.952298 L796.891322,403.552743 L796.76043,401.234292 L796.657032,398.981243 L796.58036,396.777893 L796.529645,394.608539 L796.509878,393.173436 L796.501008,391.711354 C796.495624,389.27482 796.536895,386.832751 796.619771,384.281895 L796.710802,381.738915 C796.727486,381.320065 796.744942,380.903504 796.763193,380.48893 L796.88241,378.022906 C796.90393,377.61507 796.926289,377.208616 796.949511,376.803242 L797.09938,374.381547 L797.271051,371.971279 L797.465619,369.557936 L797.68418,367.127017 L797.927828,364.664022 L798.197657,362.154448 C798.244871,361.731499 798.293222,361.306005 798.342732,360.877663 L798.653888,358.271034 L799.175186,354.201251 L799.560692,351.360356 L800.198649,346.871201 L800.911527,342.065169 L802.861653,329.288537 L803.203659,326.968445 L803.708444,323.405168 C805.788894,308.278299 806.479527,297.097187 805.802465,284.5499 C805.376057,276.647714 811.436737,269.896074 819.339373,269.46969 Z" id="Path" fill="#FFFFFF" fill-rule="nonzero"></path> </g> </g> </svg> 