<?xml version="1.0" encoding="UTF-8"?> <svg xmlns="http://www.w3.org/2000/svg" xmlns:xlink="http://www.w3.org/1999/xlink" width="1024px" height="1024px" viewBox="0 0 1024 1024"> <title>rabbitmq</title> <g id="Page-1" stroke="none" stroke-width="1" fill="none" fill-rule="evenodd"> <g id="rabbitmq"> <rect id="Rectangle" x="0" y="0" width="1024" height="1024"></rect> <path d="M947.928563,415.574104 C974.936001,415.573777 996.867177,437.386294 997,464.38004 L997,975.153861 C997,1002.04939 975.239633,1024 948.169897,1024 L76.870325,1024 C49.8799898,1024 28,1002.13084 28,975.153861 L28,48.8461387 C28,21.9908131 49.7603669,0.0402025833 76.9105475,0.0402025833 L182.816363,0.0402025833 C209.684986,0.0402025833 231.646465,21.7495976 231.646465,48.8461387 L231.646465,369.622551 C233.129511,393.207082 251.087967,412.453194 274.52364,415.574104 L353.761944,415.574104 C377.774771,413.362962 397.765348,393.824506 399.09269,369.622551 L399.09269,48.8059362 C399.09269,21.9506105 420.812835,0 447.922793,0 L553.828608,0 C580.697231,0 602.698933,21.709395 602.698933,48.8059362 L602.698933,366.245534 C602.698933,391.331946 621.120834,412.639315 645.334772,415.533901 L947.968785,415.533901 L947.928563,415.574104 Z M808.477191,765.859212 L808.477191,665.91559 C808.477191,639.060265 786.757046,617.069452 759.647088,617.069452 L653.70105,617.069452 C626.832427,617.069452 604.830725,638.819049 604.830725,665.91559 L604.830725,765.81901 C604.830725,792.674336 626.591092,814.624946 653.70105,814.624946 L759.606866,814.624946 C786.475489,814.624946 808.436968,792.915551 808.436968,765.81901 L808.477191,765.859212 Z" id="Shape" fill="#FF6600" fill-rule="nonzero"></path> </g> </g> </svg> 