<?xml version="1.0" encoding="UTF-8"?> <svg xmlns="http://www.w3.org/2000/svg" xmlns:xlink="http://www.w3.org/1999/xlink" width="1024px" height="1024px" viewBox="0 0 1024 1024"> <title>react native</title> <g id="Page-1" stroke="none" stroke-width="1" fill="none" fill-rule="evenodd"> <g id="react-native"> <rect id="Rectangle" x="0" y="0" width="1024" height="1024"></rect> <g id="react" transform="translate(0.000000, 56.000000)" fill="#61DAFB" fill-rule="nonzero"> <path d="M720.097839,0 L720.097,0.209 L720.783882,0.212096375 C737.461708,0.337313327 752.764074,3.97196001 765.939506,11.4918071 L766.643294,11.8983749 C825.503465,45.7148089 838.861802,151.338979 808.805544,284.099794 C939.049327,323.969787 1024,388.26276 1024,456.104372 C1024,496.37172 994.034751,535.455147 942.473987,568.905062 C953.05059,576.100103 960,588.238491 960,602 L960,722 C960,744.09139 942.09139,762 920,762 L825.704994,762.002074 C824.264456,828.707793 805.376008,878.226515 768.52181,899.475395 C754.746025,907.407645 738.883,911.165026 721.350183,911.165026 C663.95108,911.165026 588.810436,870.668803 512.834896,800.113527 C436.859356,871.08629 361.718712,912 304.319609,912 C286.786792,912 270.923767,908.242618 257.356706,900.310369 C220.262879,878.999168 201.240342,829.169152 199.766683,762.000969 L104,762 C81.90861,762 64,744.09139 64,722 L64,602 C64,588.208661 70.9795701,576.047488 81.5991537,568.856037 C29.9680898,535.440868 0,496.398547 0,456.104372 C0,388.471504 84.5332246,324.387274 214.35956,284.308537 C184.094578,151.965209 197.244191,46.5497826 255.895638,12.7333486 C269.433909,4.93786158 284.988067,1.17452302 302.161886,1.04707005 L303.067265,1.0437171 L303.067265,0.834973678 C360.466368,0.834973678 435.607012,41.3311971 511.582552,111.886473 C587.558092,40.9137102 662.698736,0 720.097839,0 Z M473.759558,762.001138 L246.11317,762.001046 C247.410444,811.811299 259.571806,848.124178 280.316347,860.022889 C286.578068,863.571527 294.50958,865.450217 303.902161,865.658961 C347.316755,865.658961 411.186302,831.007553 479.23033,767.758297 C477.405871,765.856024 475.582214,763.936905 473.759558,762.001138 Z M550.649803,762.001117 C548.968243,763.794791 547.286405,765.574715 545.604566,767.34081 C613.648594,830.17258 677.726865,864.615244 720.932735,864.615244 C730.53404,864.615244 738.674276,862.945296 744.935997,859.187915 C765.384295,847.220761 777.368798,811.288949 778.656021,762.002526 L550.649803,762.001117 Z M252.46,621.6 L236.02,621.6 L236.02,702 L255.82,702 L255.82,655.44 L296.5,702 L312.82,702 L312.82,621.6 L293.14,621.6 L293.14,669.6 L252.46,621.6 Z M397.3,621.6 L377.02,621.6 L343.42,702 L364.66,702 L370.3,687.36 L404.14,687.36 L409.78,702 L430.9,702 L397.3,621.6 Z M520.66,621.6 L448.9,621.6 L448.9,638.88 L474.94,638.88 L474.94,702 L494.62,702 L494.62,638.88 L520.66,638.88 L520.66,621.6 Z M573.82,621.6 L554.02,621.6 L554.02,702 L573.82,702 L573.82,621.6 Z M627.46,621.6 L605.62,621.6 L639.82,702 L658.9,702 L693.1,621.6 L671.26,621.6 L649.3,674.88 L627.46,621.6 Z M787.18,621.6 L724.9,621.6 L724.9,702 L787.54,702 L787.54,684.96 L744.7,684.96 L744.7,669.84 L783.7,669.84 L783.7,653.76 L744.7,653.76 L744.7,638.64 L787.18,638.64 L787.18,621.6 Z M387.22,643.92 L397.54,670.32 L377.02,670.32 L387.22,643.92 Z M225.83938,329.397116 C205.593151,335.868162 185.973094,342.756695 168.022829,350.480201 C94.1345291,381.791714 46.3367305,423.331655 46.3367305,456.104372 C46.3367305,488.877089 94.1345291,530.208286 168.022829,561.728542 L168.664564,562.000971 L168.664564,562.000971 L232.789576,562.001015 C243.544874,527.796551 256.882443,492.517887 272.802283,456.521859 C253.39095,412.894484 237.736649,370.310826 225.83938,329.397116 Z M512,289.527123 C480.27395,289.527123 448.756625,290.988327 417.656747,293.701991 C400.332654,318.542458 383.634733,345.261616 367.35426,373.441978 C351.699959,400.787366 337.089278,428.758984 324.14839,456.730602 C337.298002,484.70222 351.699959,512.465095 367.562984,539.810483 C371.930263,547.313941 376.3426,554.712252 380.795968,562.001386 L643.170726,562.001138 C647.696569,554.510834 652.186811,546.902347 656.64574,539.184253 C672.300041,511.838865 686.701998,483.867247 699.85161,455.895628 C686.701998,427.92401 672.300041,400.161135 656.437016,372.815747 C640.156543,344.844129 623.249898,318.333715 605.925805,293.493248 C575.034651,290.988327 543.517326,289.527123 512,289.527123 Z M299.72768,512.882582 C293.304377,529.312942 287.319695,545.743302 281.903423,562.000593 L326.495206,562.000014 C316.909169,545.627537 308.117795,529.255059 299.72768,512.882582 Z M797.325724,329.188373 C785.637179,369.893339 770.191602,412.268254 750.988993,455.686885 C767.13109,491.966583 780.675098,527.524523 791.621016,562.000584 L855.131,562 L855.768447,561.728542 C928.917864,530.730144 976.49598,489.706865 977.642753,457.090164 L977.663269,456.104372 C977.663269,423.331655 929.865471,382.000458 855.977171,350.480201 C837.609458,342.756695 817.989401,335.659419 797.325724,329.188373 Z M724.063596,512.047608 C716.040766,527.703365 707.65104,543.542587 698.722432,559.221277 L697.132,562 L742.476052,562.00085 C737.233732,546.36115 731.458093,530.562132 725.149134,514.754511 L724.063596,512.047608 Z M356.91806,300.381781 C327.070526,304.765393 298.266612,310.401465 270.923767,316.872511 C278.855279,344.009155 288.456584,371.980774 299.72768,399.952392 C308.285365,383.252918 317.260497,366.553445 326.861802,349.853971 C336.463106,332.945754 346.690583,316.455024 356.91806,300.381781 Z M666.664492,300.381781 C676.891969,316.246281 687.119446,332.528267 696.72075,349.227741 C706.530779,365.927214 715.505911,382.626688 724.063596,399.326162 C734.917244,371.563287 744.518549,343.800412 752.241337,316.872511 C724.898492,310.192721 696.303302,304.765393 666.664492,300.381781 Z M303.067265,47.3847562 L303.067265,47.5934997 C293.46596,47.5934997 285.325724,49.263447 279.064003,53.0208286 C250.886262,69.5115587 238.780269,131.508354 248.590298,211.248341 C251.094986,230.661479 254.643294,250.90959 259.443946,271.783932 C300.353852,261.555505 345.020791,253.831998 392.192417,248.822156 C419.952711,210.204623 449.174073,175.344472 478.395434,144.65919 C410.351406,81.8274205 346.273135,47.3847562 303.067265,47.3847562 Z M719.889,46.551 L718.789281,46.5601719 C675.405437,47.2456705 612.133257,81.8336828 544.76967,144.450446 C574.199755,175.135729 603.421117,210.204623 631.598859,248.822156 C678.561761,253.831998 723.2287,261.555505 764.138606,271.575189 C768.730534,250.492103 772.487566,229.826505 774.78353,210.204623 C784.384835,130.464637 772.070118,68.4678416 743.683653,52.1858549 C737.374969,48.7259327 729.875777,46.8535042 720.605701,46.7620453 L719.889115,46.758526 L719.889,46.551 Z M511.373828,177.431907 C492.171219,197.471275 472.759886,219.806821 453.974725,244.229801 C472.96861,243.186084 492.379943,242.768597 512,242.768597 C531.411333,242.768597 550.613942,243.394827 569.399103,244.229801 C550.196494,219.806821 530.785161,197.471275 511.373828,177.431907 Z M719.889115,0.20874342 L719.889,46.551 L720.097839,46.5497826 L720.097,0.209 L719.889115,0.20874342 Z" id="Combined-Shape"></path> <ellipse id="Oval-2" cx="511.791276" cy="456.104372" rx="95.3868732" ry="95.3957427"></ellipse> </g> </g> </g> </svg> 