<?xml version="1.0" encoding="UTF-8"?> <svg xmlns="http://www.w3.org/2000/svg" xmlns:xlink="http://www.w3.org/1999/xlink" width="1024px" height="1024px" viewBox="0 0 1024 1024"> <title>redis</title> <g id="Page-1" stroke="none" stroke-width="1" fill="none" fill-rule="evenodd"> <g id="redis"> <rect id="Rectangle" x="0" y="0" width="1024" height="1024"></rect> <path d="M983.86074,766.015796 C929.21657,794.511062 646.135934,910.949029 585.869638,942.376922 C525.603343,973.816859 492.123405,973.509746 444.515922,950.741234 C396.908438,927.972722 95.6612327,806.241573 41.3962854,780.293538 C14.2728409,767.322532 0.0128675073,756.380879 0.0128675073,746.04141 L0.0128675073,642.496165 C0.0128675073,642.496165 392.195242,557.08263 455.513377,534.362292 C518.825492,511.635933 540.790305,510.816965 594.67001,530.562522 C648.555735,550.308079 970.726396,608.460823 1023.98008,627.971529 C1023.98008,627.971529 1023.95601,720.448662 1023.95601,730.047448 C1023.96202,740.284547 1011.67642,751.515247 983.86074,766.015796 L983.86074,766.015796 Z" id="Path" fill="#A41E11" fill-rule="nonzero"></path> <path d="M983.86074,662.440443 C929.21657,690.923665 646.135934,807.373675 585.869638,838.801569 C525.603343,870.241506 492.123405,869.934393 444.515922,847.165881 C396.902418,824.409412 95.6612327,702.654176 41.3962854,676.718185 C-12.8686619,650.77015 -14.0063296,632.909423 39.3015321,612.031764 C92.6033743,591.14206 392.195242,473.553925 455.519396,450.827566 C518.831511,428.11325 540.796324,427.282238 594.67603,447.033817 C648.561754,466.779374 929.950938,578.827432 983.198606,598.338138 C1036.45831,617.86691 1038.50491,633.945177 983.86074,662.440443 L983.86074,662.440443 Z" id="Path" fill="#D82C20" fill-rule="nonzero"></path> <path d="M983.86074,597.163883 C929.21657,625.659149 646.135934,742.097116 585.869638,773.537053 C525.603343,804.964946 492.123405,804.657833 444.515922,781.889321 C396.902418,759.132852 95.6612327,637.38966 41.3962854,611.441625 C14.2728409,598.470618 0.0128675073,587.54101 0.0128675073,577.20154 L0.0128675073,473.644252 C0.0128675073,473.644252 392.195242,388.236739 455.513377,365.510379 C518.825492,342.790042 540.790305,341.965052 594.67001,361.710609 C648.555735,381.456166 970.726396,439.596866 1023.98008,459.113594 C1023.98008,459.113594 1023.95601,551.590727 1023.95601,561.201557 C1023.96202,571.432634 1011.67642,582.663333 983.86074,597.163883 L983.86074,597.163883 Z" id="Path" fill="#A41E11" fill-rule="nonzero"></path> <path d="M983.86074,493.58853 C929.21657,522.083795 646.135934,638.521762 585.869638,669.9617 C525.603343,701.389593 492.123405,701.08248 444.515922,678.313968 C396.902418,655.557499 95.6612327,533.808285 41.3962854,507.866272 C-12.8686619,481.924259 -14.0063296,464.063532 39.3015321,443.173829 C92.6033743,422.296169 392.195242,304.702012 455.519396,281.981674 C518.831511,259.261337 540.796324,258.436347 594.67603,278.181904 C648.561754,297.927461 929.950938,409.969497 983.198606,429.486225 C1036.45831,449.008975 1038.50491,465.093264 983.86074,493.58853 L983.86074,493.58853 Z" id="Path" fill="#D82C20" fill-rule="nonzero"></path> <path d="M983.86074,422.049274 C929.21657,450.54454 646.135934,566.988529 585.869638,598.428466 C525.603343,629.856359 492.123405,629.549246 444.515922,606.780734 C396.902418,584.024265 95.6612327,462.275051 41.3962854,436.333038 C14.2728409,423.362031 0.0128675073,412.426401 0.0128675073,402.092953 L0.0128675073,298.535665 C0.0128675073,298.535665 392.195242,213.128152 455.513377,190.407814 C518.825492,167.681454 540.790305,166.862487 594.67001,186.608044 C648.555735,206.353601 970.726396,264.494301 1023.98008,284.011029 C1023.98008,284.011029 1023.95601,376.488162 1023.95601,386.09297 C1023.96202,396.318025 1011.67642,407.548725 983.86074,422.049274 L983.86074,422.049274 Z" id="Path" fill="#A41E11" fill-rule="nonzero"></path> <path d="M983.86074,318.473921 C929.21657,346.969187 646.135934,463.413175 585.869638,494.847091 C525.603343,526.274984 492.123405,525.967871 444.515922,503.205381 C396.908438,480.44289 95.6612327,358.699698 41.3962854,332.757685 C-12.8686619,306.815672 -14.0063296,288.948923 39.3015321,268.065242 C92.6033743,247.18156 392.195242,129.599447 455.519396,106.873087 C518.831511,84.1467277 540.796324,83.3277598 594.67603,103.079339 C648.561754,122.824896 929.950938,234.866932 983.198606,254.38366 C1036.45831,273.894366 1038.50491,289.984677 983.86074,318.473921 Z" id="Path" fill="#D82C20" fill-rule="nonzero"></path> <polygon id="Path" fill="#FFFFFF" fill-rule="nonzero" points="646.17205 218.752534 557.446002 227.965923 537.581961 275.779197 505.498526 222.425846 403.048232 213.212457 479.494691 185.632508 456.560753 143.299094 528.131494 171.30057 595.609038 149.20048 577.370237 192.979132"></polygon> <polygon id="Path" fill="#FFFFFF" fill-rule="nonzero" points="532.284884 450.713151 366.691018 382.004152 603.976012 345.572124"></polygon> <ellipse id="Oval" fill="#FFFFFF" fill-rule="nonzero" cx="302.70473" cy="294.507066" rx="126.82287" ry="49.1802273"></ellipse> <polygon id="Path" fill="#7A0C00" fill-rule="nonzero" points="751.030107 231.81989 891.462854 287.341097 751.150495 342.802085"></polygon> <polygon id="Path" fill="#AD2115" fill-rule="nonzero" points="595.669232 293.302701 751.030107 231.81989 751.150495 342.802085 735.921397 348.76369"></polygon> </g> </g> </svg> 