<?xml version="1.0" encoding="UTF-8"?> <svg xmlns="http://www.w3.org/2000/svg" xmlns:xlink="http://www.w3.org/1999/xlink" width="1024px" height="1024px" viewBox="0 0 1024 1024"> <title>rest</title> <g id="Page-1" stroke="none" stroke-width="1" fill="none" fill-rule="evenodd"> <g id="rest"> <rect id="Rectangle" x="0" y="0" width="1024" height="1024"></rect> <path d="M856.638963,153.230737 L878.223558,181.64506 C883.890556,189.144441 882.473807,199.893554 874.973368,205.559754 L852.055362,222.974984 C856.222272,234.057403 858.889095,245.889761 859.972491,257.972097 L886.057349,261.555135 C895.391228,262.805032 901.891608,271.470984 900.641535,280.803547 L895.807919,316.217293 C894.557846,325.549857 885.890673,332.132647 876.556794,330.799424 L848.055128,326.88308 C842.971497,337.965499 836.471117,348.131327 828.804003,357.213912 L844.804938,378.21218 C850.471936,385.711561 848.971848,396.460674 841.47141,402.126874 L813.053082,423.708427 C805.552643,429.374626 794.802015,427.87475 789.135017,420.458695 L771.717332,397.543918 C760.550013,401.710241 748.799326,404.376688 736.631948,405.459932 L733.048405,431.541114 C731.798332,440.873678 723.131159,447.373142 713.79728,446.123245 L678.378542,441.29031 C669.044663,440.040413 662.544283,431.374461 663.794357,422.041898 L667.711252,393.544248 C656.710609,388.461334 646.46001,381.96187 637.376146,374.379162 L616.374918,390.294516 C608.874479,395.960716 598.123851,394.544166 592.456853,387.044784 L570.872258,358.630461 C565.20526,351.13108 566.622009,340.381967 574.122448,334.715767 L597.040454,317.300537 C592.873544,306.134791 590.206721,294.38576 589.123325,282.303424 L563.038467,278.720386 C553.704588,277.470489 547.120869,268.804537 548.454281,259.471974 L553.287897,224.058228 C554.621308,214.725664 563.205143,208.2262 572.539022,209.476097 L601.040688,213.392441 C606.124319,202.393348 612.624699,192.144194 620.208475,183.061609 L604.290878,162.063341 C598.62388,154.647286 600.04063,143.898173 607.541068,138.231974 L635.959396,116.650421 C643.459835,110.984221 654.210463,112.400771 659.877461,119.900152 L677.295146,142.814929 C688.379127,138.648606 700.213152,135.982159 712.297192,134.898915 L715.880735,108.817733 C717.130808,99.4851697 725.797981,92.9023793 735.13186,94.1522763 L770.550597,98.985211 C779.884476,100.235108 786.468194,108.90106 785.134783,118.233623 L781.217887,146.731273 C792.301869,151.814187 802.46913,158.313651 811.636332,165.979685 L832.63756,150.064331 C840.137998,144.314805 850.888627,145.731355 856.638963,153.230737 L856.638963,153.230737 L856.638963,153.230737 Z M247.270008,653.272825 L247.270008,515.784166 L318.107482,515.784166 C331.274918,515.784166 341.275503,516.86741 348.192574,519.20055 C355.109645,521.450365 360.776643,525.616688 364.943553,531.69952 C369.193802,537.865678 371.360595,545.281733 371.360595,554.031011 C371.360595,561.613719 369.693831,568.279836 366.443641,573.779382 C363.193451,579.362255 358.693188,583.861884 353.02619,587.278269 C349.442647,589.444757 344.442355,591.277939 338.108651,592.694489 C343.192282,594.444344 346.859163,596.027547 349.109294,597.777403 C350.69272,598.943973 352.942852,601.36044 355.859689,605.026805 C358.776526,608.693169 360.776643,611.609595 361.776701,613.60943 L382.444576,653.356152 L334.44177,653.356152 L311.773778,611.442942 C308.856941,606.026722 306.356795,602.443684 304.106663,600.860482 C301.02315,598.77732 297.522945,597.694076 293.689388,597.694076 L289.939169,597.694076 L289.939169,653.356152 L247.270008,653.356152 L247.270008,653.272825 Z M397.1121,892.669746 L317.774129,892.669746 L306.356795,930 L234.852615,930 L320.107599,703.435354 L396.778747,703.435354 L481.700378,930 L408.362758,930 L397.1121,892.669746 L397.1121,892.669746 Z M382.2779,843.590461 L357.526453,762.097182 L332.691668,843.590461 L382.2779,843.590461 L382.2779,843.590461 Z M498.201343,703.435354 L614.708154,703.435354 C640.126306,703.435354 659.127417,709.434859 671.711486,721.517196 C684.295555,733.599533 690.629259,750.84811 690.629259,773.096275 C690.629259,796.011052 683.712188,813.926241 669.961384,826.841842 C656.21058,839.757443 635.126014,846.173581 606.874362,846.173581 L568.45545,846.173581 L568.45545,930 L498.201343,930 L498.201343,703.435354 L498.201343,703.435354 Z M568.45545,800.260701 L585.706458,800.260701 C599.290586,800.260701 608.874479,797.92756 614.374801,793.177952 C619.875122,788.51167 622.625283,782.428839 622.625283,775.179437 C622.625283,768.096688 620.208475,762.013856 615.458198,757.097595 C610.70792,752.181334 601.707394,749.68154 588.539957,749.68154 L568.45545,749.68154 L568.45545,800.260701 L568.45545,800.260701 Z M718.964248,703.435354 L789.218355,703.435354 L789.218355,930 L718.964248,930 L718.964248,703.435354 L718.964248,703.435354 Z M289.939169,571.612894 L307.856883,571.612894 C309.773661,571.612894 313.523881,570.946282 319.10754,569.696385 C321.941039,569.1131 324.274509,567.69655 326.024611,565.36341 C327.858052,563.030269 328.691434,560.363822 328.691434,557.364069 C328.691434,552.947767 327.274684,549.448056 324.441185,547.114915 C321.607687,544.698447 316.35738,543.531877 308.606927,543.531877 L289.939169,543.531877 L289.939169,571.612894 L289.939169,571.612894 Z M390.61172,515.784166 L504.36837,515.784166 L504.36837,545.11508 L433.280881,545.11508 L433.280881,567.029939 L499.201402,567.029939 L499.201402,595.027629 L433.280881,595.027629 L433.280881,622.108729 L506.451825,622.108729 L506.451825,653.189499 L390.61172,653.189499 L390.61172,515.784166 L390.61172,515.784166 Z M516.535748,607.776578 L556.871439,605.276784 C557.704821,611.859574 559.538262,616.775836 562.205085,620.19222 C566.622009,625.691767 572.872375,628.524866 580.956181,628.524866 C586.956531,628.524866 591.706809,627.108317 594.956999,624.275217 C598.207189,621.442117 599.873953,618.109059 599.873953,614.359368 C599.873953,610.77633 598.290527,607.609925 595.207014,604.776825 C592.1235,601.943726 584.873076,599.360605 573.455742,596.777485 C554.871323,592.611162 541.620548,587.028289 533.62008,580.112193 C525.619613,573.196097 521.619379,564.363492 521.619379,553.614379 C521.619379,546.531629 523.702834,539.865513 527.786406,533.616028 C531.869978,527.366544 538.037005,522.366956 546.287487,518.783918 C554.53797,515.20088 565.788627,513.451025 580.122799,513.451025 C597.70716,513.451025 611.041273,516.700757 620.291813,523.283547 C629.459016,529.866337 634.959338,540.198818 636.70944,554.53097 L596.79044,556.947437 C595.707043,550.697952 593.456911,546.114997 590.123383,543.365224 C586.706517,540.532124 581.956239,539.115575 576.039227,539.115575 C571.122273,539.115575 567.372053,540.198818 564.871907,542.28198 C562.371761,544.365142 561.121688,546.948262 561.121688,549.948014 C561.121688,552.114502 562.205085,554.031011 564.205201,555.864193 C566.205318,557.614049 570.872258,559.363904 578.372696,560.947107 C596.957116,564.946777 610.291229,569.029774 618.291697,573.11277 C626.292164,577.195767 632.209177,582.278681 635.79272,588.361513 C639.459601,594.361018 641.293041,601.193787 641.293041,608.693169 C641.293041,617.525774 638.876233,625.60844 633.959279,633.024495 C629.125663,640.44055 622.29193,646.10675 613.541419,649.939767 C604.790907,653.772784 593.790264,655.689293 580.456151,655.689293 C557.121454,655.689293 540.870504,651.189664 531.869978,642.190406 C522.869452,633.024495 517.785821,621.60877 516.535748,607.776578 L516.535748,607.776578 Z M647.460068,515.784166 L776.717624,515.784166 L776.717624,549.781361 L733.381758,549.781361 L733.381758,653.272825 L690.879273,653.272825 L690.879273,549.781361 L647.460068,549.781361 L647.460068,515.784166 L647.460068,515.784166 Z M504.451708,189.477747 C489.200817,188.311176 473.783249,188.477829 458.532357,189.977706 C411.612948,194.477335 366.02695,211.559259 328.358081,240.806846 C284.7722,274.554063 251.686932,325.049898 238.936187,391.961046 L234.935953,412.875987 L214.101402,416.542351 C193.683542,420.125389 175.432475,425.04165 159.431539,431.291135 C143.930633,437.29064 130.096491,444.706695 118.012452,453.455973 C108.34522,460.455396 100.011399,468.288083 92.9276518,476.787382 C71.0097039,503.035217 60.8424428,535.949169 61.0924575,569.279753 C61.3424721,603.110296 72.3431151,637.274145 92.6776372,665.355162 C100.261414,675.770969 109.011925,685.353512 119.01251,693.686158 C129.179771,702.102131 140.597105,709.101554 153.431189,714.351121 C160.681613,717.350873 168.432066,719.850667 176.515871,721.850502 L176.515871,784.262021 C159.84823,781.262268 144.514001,776.762639 130.179829,770.846461 C111.262057,763.013773 94.5110777,752.931272 79.7602154,740.598956 C65.7593969,728.933251 53.5086808,715.684344 43.0914052,701.268866 C15.3397829,662.938695 0.33890596,616.109224 0.00555313974,569.446406 C-0.327799681,522.28363 14.3397244,475.370832 46.0082423,437.373966 C56.2588416,425.04165 68.3428813,413.709252 82.1770233,403.710076 C98.2612969,392.044372 116.67904,382.21185 137.513592,374.129183 C151.847763,368.54631 167.181993,363.880028 183.349604,360.130338 C201.684009,287.303011 240.769628,231.224304 291.022565,192.310847 C338.025313,155.897183 394.611954,134.648936 452.86536,129.066063 C483.450481,126.149637 514.452293,127.48286 544.7874,133.14906 C544.120694,135.898833 543.537327,138.648606 543.203974,141.481706 L543.120636,141.981664 C542.537268,146.731273 542.287254,151.480881 542.537268,156.313816 C536.120226,158.813609 530.119876,162.229994 524.702892,166.396317 L524.452878,166.56297 C516.369072,172.645802 509.535339,180.478489 504.451708,189.477747 L504.451708,189.477747 Z M945.394151,349.464551 C950.061091,353.7142 954.561354,358.130503 958.978279,362.880111 C967.895467,372.462654 976.312626,383.295094 984.229755,395.37743 C1010.89798,436.374049 1024.56545,491.119533 1023.98208,544.698447 C1023.39871,597.277444 1009.23122,649.606461 980.229521,688.103286 C961.311749,713.18455 937.060331,733.682859 907.975297,749.931519 C888.057466,761.097265 865.639489,770.346502 841.221395,777.845883 L841.221395,713.267877 C854.388832,708.351615 866.639548,702.852069 877.890205,696.602585 C899.808153,684.353595 917.725867,669.438158 931.143318,651.52297 C951.97787,623.775258 962.228469,584.528495 962.64516,544.281815 C963.145189,502.0353 952.811252,459.622131 932.726744,428.791341 C926.976408,419.87541 920.642705,411.87607 913.975648,404.709994 C911.392164,401.960221 908.808679,399.377101 906.141857,396.877307 C906.558548,392.710984 906.725224,388.461334 906.47521,384.211685 C912.892252,381.711891 918.892602,378.295506 924.309586,374.129183 L924.5596,373.96253 C933.143435,367.37974 940.310521,359.047094 945.394151,349.464551 L945.394151,349.464551 Z M734.048463,200.643493 C772.467376,205.89306 799.302278,241.306805 794.051971,279.720303 C788.801664,318.133802 753.382927,345.048248 714.964014,339.798681 C676.545102,334.549114 649.626862,299.135369 654.960507,260.72187 C660.294152,222.308372 695.629551,195.393926 734.048463,200.643493 L734.048463,200.643493 L734.048463,200.643493 Z" id="Shape" fill="#000000" fill-rule="nonzero"></path> </g> </g> </svg> 