<?xml version="1.0" encoding="UTF-8"?> <svg xmlns="http://www.w3.org/2000/svg" xmlns:xlink="http://www.w3.org/1999/xlink" width="1024px" height="1024px" viewBox="0 0 1024 1024"> <title>swagger</title> <g id="Page-1" stroke="none" stroke-width="1" fill="none" fill-rule="evenodd"> <g id="swagger" fill-rule="nonzero"> <g id="Group-20"> <path d="M511.994883,999.590781 C243.137954,999.590781 24.3987407,780.86985 24.3987407,512 C24.3987407,243.13015 243.137954,24.409219 511.994883,24.409219 C780.851812,24.409219 999.591025,243.150619 999.591025,512.010234 C999.591025,780.86985 780.851812,999.590781 511.994883,999.590781 Z" id="Path" fill="#85EA2D"></path> <path d="M511.994883,48.8082036 C767.813223,48.8082036 975.18205,256.179103 975.18205,512 C975.18205,767.810662 767.813223,975.191796 511.994883,975.191796 C256.186777,975.191796 48.8077158,767.810662 48.8077158,512 C48.8077158,256.189338 256.186777,48.8082036 511.994883,48.8082036 M511.994883,0 C229.679756,0 0,229.682052 0,512 C0,794.317948 229.679756,1024 511.994883,1024 C794.310009,1024 1024,794.317948 1024,512 C1024,229.682052 794.310009,0 511.994883,0 L511.994883,0 Z" id="Shape" fill="#173647"></path> <path d="M322.392924,346.477862 C320.816831,363.99928 322.976283,382.114298 321.809565,399.830172 C320.427925,417.55628 318.258238,435.077698 314.717146,452.599116 C309.794413,477.601935 294.238169,496.505007 272.786927,512.255862 C314.532927,539.428389 319.250972,581.553481 322.004018,624.282407 C323.385658,647.320207 322.792064,670.552462 325.156204,693.385572 C326.92675,711.101445 333.814482,715.635317 352.134006,716.218682 C359.615332,716.413137 367.280876,716.218682 375.959622,716.218682 L375.959622,770.952646 C321.819799,780.20461 277.126301,764.852899 266.093648,718.98199 C262.542322,702.248626 260.178182,685.116117 259.40037,667.789154 C258.213183,649.479681 260.178182,631.170208 258.806776,612.860735 C254.866543,562.650409 248.367718,545.72259 200.337814,543.358426 L200.337814,480.948608 C203.878907,480.160553 207.225546,479.566954 210.766638,479.178044 C237.150847,477.79639 248.367718,469.72139 254.078497,443.736063 C256.841777,429.172407 258.41787,414.404062 259.001229,399.441262 C260.976463,370.897315 260.188416,341.75977 265.100914,313.410278 C271.988646,272.656605 297.195902,252.965479 339.136355,250.601315 C350.946819,250.007716 362.961971,250.601315 376.542981,250.601315 L376.542981,306.522478 C370.832202,306.921622 365.90947,307.699442 360.792284,307.699442 C326.732297,306.512243 324.951517,318.128371 322.392924,346.477862 Z M387.954305,476.025826 L387.166259,476.025826 C367.475329,475.043317 350.547679,490.395027 349.554945,510.086153 C348.572445,529.971735 363.924002,546.909789 383.614932,547.882064 L385.979072,547.882064 C405.475548,549.069263 422.198511,534.096228 423.385698,514.609791 L423.385698,512.644772 C423.784838,492.75919 407.839688,476.424971 387.954305,476.025826 Z M511.401289,476.025826 C492.303953,475.432227 476.348568,490.395027 475.765209,509.298099 C475.765209,510.485298 475.765209,511.467807 475.969897,512.644772 C475.969897,534.106463 490.533407,547.892298 512.588476,547.892298 C534.244406,547.892298 547.83565,533.717553 547.83565,511.467807 C547.630963,490.006117 533.251672,475.831371 511.401289,476.025826 Z M637.806007,476.025826 C617.726171,475.626682 600.982739,491.582226 600.39938,511.662262 C600.39938,531.742299 616.538984,547.882064 636.61882,547.882064 L637.01796,547.882064 C655.132797,551.034281 673.442087,533.512863 674.629274,512.450317 C675.601539,492.953645 657.885843,476.025826 637.806007,476.025826 Z M811.258128,478.973354 C788.415012,477.990845 776.993454,470.31499 771.292909,448.64861 C767.741582,434.873009 765.58213,420.493573 764.794083,406.318828 C763.21799,379.934355 763.412443,353.355428 761.641897,326.970956 C757.507211,264.366682 712.230353,242.516081 646.464285,253.33392 L646.464285,307.678973 C656.893109,307.678973 664.968028,307.678973 673.042946,307.873428 C687.023097,308.067883 697.656609,313.38981 699.028015,328.946209 C700.409655,343.120955 700.409655,357.490155 701.791295,371.86959 C704.554575,400.423771 706.120434,429.356627 711.043166,457.511664 C715.38254,480.743918 731.32769,498.070882 751.202838,512.245627 C716.365039,535.672337 706.120434,569.139065 704.349888,606.750755 C703.367388,632.541628 702.773794,658.526955 701.402389,684.522518 C700.215202,708.143682 691.956064,715.819537 668.130448,716.413137 C661.43717,716.607592 654.938344,717.201191 647.457019,717.600336 L647.457019,773.316809 C661.43717,773.316809 674.230133,774.104863 687.023097,773.316809 C726.793863,770.952646 750.813932,751.660663 758.694398,713.066464 C762.041037,691.799228 764.006037,670.347772 764.59963,648.886082 C765.971036,629.194955 765.786817,609.309373 767.751817,589.822936 C770.699315,559.303736 784.679466,546.705099 815.198361,544.74008 C818.156094,544.340936 820.90914,543.757571 823.67242,542.775061 L823.67242,480.355008 C818.545,479.761409 814.993673,479.178044 811.258128,478.973354 Z" id="Shape" fill="#173647"></path> </g> </g> </g> </svg> 