<?xml version="1.0" encoding="UTF-8"?> <svg xmlns="http://www.w3.org/2000/svg" xmlns:xlink="http://www.w3.org/1999/xlink" width="1024px" height="1024px" viewBox="0 0 1024 1024"> <title>yarn</title> <g id="Page-1" stroke="none" stroke-width="1" fill="none" fill-rule="evenodd"> <g id="yarn"> <rect id="Rectangle" x="0" y="0" width="1024" height="1024"></rect> <path d="M512,0 C794.687259,0 1024,229.312741 1024,512 C1024,794.687259 794.687259,1024 512,1024 C229.312741,1024 0,794.687259 0,512 C0,229.312741 229.312741,0 512,0 Z M530.779923,177.717375 C514.372201,183.647876 500.33668,199.462548 487.091892,227.533591 C485.115058,231.684942 483.335907,235.63861 481.75444,239.592278 C456.648649,241.371429 417.111969,250.464865 383.703475,286.640927 C379.552124,291.187645 371.447104,294.548263 362.946718,297.711197 L363.144402,297.711197 C345.748263,303.839382 337.840927,318.072587 328.15444,343.771429 C314.711969,379.749807 328.549807,415.135135 342.189961,438.066409 C323.607722,454.671815 298.897297,481.16139 285.850193,512.197683 C269.640154,550.548263 267.861004,588.108108 268.454054,608.469498 C254.616216,623.098069 233.266409,650.576062 230.894208,681.414672 C227.731274,724.509653 243.348263,753.766795 250.267181,764.441699 C252.244015,767.604633 254.418533,770.174517 256.790734,772.744402 C256,778.081853 255.802317,783.814672 256.988417,789.745174 C259.558301,803.583012 268.256371,814.850965 281.501158,821.967568 C307.595367,835.805405 343.969112,841.735907 372.040154,827.700386 C382.122008,838.37529 400.506564,848.654826 433.915058,848.654826 L435.891892,848.654826 C444.392278,848.654826 552.327413,842.922008 583.759073,835.212355 C597.794595,831.851737 607.481081,825.921236 613.80695,820.583784 C633.970656,814.257915 689.717375,795.280309 742.301158,761.278764 C779.465637,737.16139 792.315058,732.021622 819.990734,725.300386 C846.875676,718.776834 863.678764,694.264093 860.318147,667.181467 C856.759846,639.110425 833.037838,619.737452 802.594595,620.132819 C757.127413,620.725869 718.974517,644.250193 693.671042,659.867181 C683.786873,665.995367 675.286486,670.542085 667.972201,673.902703 C669.553668,650.971429 668.169884,620.923552 656.30888,587.910425 C641.877992,548.373745 622.505019,524.058687 608.667181,510.023166 C624.679537,486.696525 646.622394,452.694981 656.901931,400.111197 C665.797683,355.237066 663.030116,285.454826 642.668726,246.313514 C638.517375,238.406178 631.598456,232.673359 622.900386,230.301158 C619.342085,229.312741 612.620849,227.335907 599.376062,231.091892 C579.410039,189.776062 572.49112,185.427027 567.153668,181.868726 C556.083398,174.752124 543.036293,173.170656 530.779923,177.717375 Z M551.734363,206.974517 C559.048649,211.718919 585.340541,270.233205 585.340541,270.233205 C585.340541,270.233205 613.411583,253.825483 616.574517,259.953668 C633.57529,292.966795 635.552124,356.027799 628.040154,394.378378 C615.388417,457.637066 583.759073,491.63861 571.107336,512.988417 C568.142085,517.930502 605.10888,533.54749 628.435521,598.189961 C649.983012,657.297297 630.807722,706.91583 634.16834,712.450965 C634.501931,713.00695 634.710425,713.37529 634.829006,713.591168 L634.895125,713.712886 C634.939768,713.796139 634.959073,713.834749 634.959073,713.834749 C634.959073,713.834749 659.669498,715.811583 709.288031,685.170656 C735.777606,668.762934 767.209266,650.378378 802.989961,649.983012 C837.584556,649.389961 839.363707,689.915058 813.269498,696.240927 C781.640154,703.752896 765.627799,710.671815 726.486486,736.172973 C665.402317,775.709653 598.585328,794.094208 598.585328,794.094208 C598.585328,794.094208 593.050193,802.396911 577.037838,806.152896 C549.362162,812.874131 445.183012,818.60695 435.694208,818.808879 C410.19305,819.002317 394.576062,812.281081 390.227027,801.803861 C376.982239,770.174517 409.204633,756.33668 409.204633,756.33668 C409.204633,756.33668 405.246649,753.917912 401.51228,751.048187 L401.004827,750.65425 C399.910049,749.795466 398.851384,748.905124 397.93668,748.033977 C397.095787,747.193085 396.244987,746.163933 395.417553,745.104021 L395.087904,744.678789 L395.087904,744.678789 L394.761221,744.252516 C392.160881,740.844141 389.89067,737.550856 389.040927,739.533591 C384.098842,751.592278 381.528958,781.047104 368.28417,794.291892 C350.097297,812.676448 315.700386,806.548263 295.338996,795.873359 C273.000772,784.012355 296.920463,756.138996 296.920463,756.138996 C296.920463,756.138996 284.861776,763.255598 275.17529,748.627027 C266.47722,735.184556 258.372201,712.253282 260.546718,683.984556 C262.918919,651.762162 298.897297,620.528185 298.897297,620.528185 C298.897297,620.528185 292.571429,572.886486 313.328185,524.058687 C332.108108,479.579923 382.715058,443.799228 382.715058,443.799228 C382.715058,443.799228 340.213127,396.750579 356.027799,354.446332 C365.279382,329.538224 369.567135,327.207537 372.78206,326.125813 L372.994842,326.055314 C373.030055,326.043795 373.065146,326.032371 373.100121,326.021014 L373.308615,325.953433 C373.481266,325.89739 373.651274,325.841544 373.819305,325.782239 C385.680309,321.235521 397.145946,316.293436 405.646332,307.002317 C448.148263,261.139768 502.313514,269.837838 502.313514,269.837838 L502.321195,269.814584 L502.321195,269.814584 L502.382153,269.631636 C503.853665,265.236717 528.724015,192.209544 551.734363,206.974517 Z" id="Combined-Shape" fill="#2C8EBB" fill-rule="nonzero"></path> </g> </g> </svg> 